M48
INCH,TZ
T1C0.012
T2C0.016
T3C0.087
%
G90
G05
T1
X13268Y-14508
X13740Y-16181
X13780Y-17028
X14646Y-11614
X15374Y-16457
X15587Y-14827
X16142Y-17106
X16319Y-15669
X16685Y-15559
X16693Y-16240
X17362Y-17008
X17559Y-12126
X18110Y-15945
X18189Y-15551
X18228Y-18150
X18346Y-16496
X18465Y-16909
X18504Y-15256
X18898Y-12717
X18917Y-13150
X18976Y-17638
X19016Y-15276
X19024Y-16961
X19094Y-16280
X19902Y-15610
X20079Y-12343
X20157Y-13622
X20276Y-17520
X20335Y-13287
X20512Y-15728
X20827Y-13169
X20827Y-14075
X20925Y-16280
X21142Y-14311
X21220Y-14780
X21260Y-13150
X21358Y-15531
X21398Y-17047
X21496Y-17461
X21555Y-11811
X21654Y-16772
X21673Y-18937
X21693Y-16063
X21850Y-17933
X21870Y-16457
X22028Y-12933
X22087Y-12224
X22205Y-13996
X22480Y-17539
X22638Y-12343
X23248Y-17539
X23484Y-18563
X23858Y-12992
X23858Y-13740
X23996Y-18091
X24016Y-14764
X24035Y-16220
X24114Y-15472
X24390Y-16083
X24449Y-10630
X24488Y-16811
X24488Y-18642
X24606Y-14685
X24606Y-15118
X24780Y-15900
X25079Y-11339
X25118Y-18642
X25256Y-15039
X25610Y-15256
X25984Y-15354
X26024Y-13878
X26043Y-18642
X26063Y-11043
X26161Y-12677
X26260Y-16004
X26378Y-14016
X26575Y-12697
X26732Y-15689
X26732Y-18937
X26811Y-16299
X26831Y-14094
X26929Y-12559
X27028Y-16614
X27106Y-16024
X27283Y-12008
X27283Y-15453
X27402Y-18780
X27559Y-14488
X27559Y-16220
X27638Y-17539
X27874Y-17913
X28051Y-17421
X28307Y-13740
X28780Y-16732
X29134Y-16496
X29232Y-12776
X29232Y-16142
X29429Y-15335
X29488Y-16417
X29606Y-14173
X29606Y-14665
X29685Y-15039
X29882Y-16791
X29921Y-15630
X30059Y-15059
X31102Y-12500
X31102Y-17028
X31122Y-11752
X31161Y-13268
X31161Y-16280
T2
X13720Y-12441
X13740Y-12933
X13839Y-14508
X14213Y-10748
X18957Y-13583
X22067Y-11791
T3
X15846Y-11220
X15846Y-18307
X29035Y-11220
X29035Y-18307
T0
M30
