G04 (created by PCBNEW (2013-mar-13)-testing) date Mon 17 Mar 2014 10:10:55 PM CET*
%MOIN*%
G04 Gerber Fmt 3.4, Leading zero omitted, Abs format*
%FSLAX34Y34*%
G01*
G70*
G90*
G04 APERTURE LIST*
%ADD10C,0.005906*%
%ADD11R,0.060000X0.080000*%
%ADD12R,0.048031X0.024409*%
%ADD13R,0.024409X0.048031*%
%ADD14R,0.039370X0.017717*%
%ADD15R,0.074016X0.066142*%
%ADD16R,0.047244X0.016535*%
%ADD17R,0.031496X0.031496*%
%ADD18C,0.175197*%
%ADD19R,0.025591X0.039370*%
%ADD20R,0.039370X0.025591*%
%ADD21R,0.055118X0.066929*%
%ADD22R,0.031496X0.059055*%
%ADD23R,0.045276X0.059055*%
%ADD24R,0.059055X0.045276*%
%ADD25R,0.062992X0.031496*%
%ADD26R,0.118110X0.082677*%
%ADD27R,0.013780X0.013780*%
%ADD28R,0.070079X0.016535*%
%ADD29C,0.027795*%
%ADD30C,0.035433*%
%ADD31C,0.008000*%
%ADD32C,0.010000*%
%ADD33C,0.020000*%
%ADD34C,0.014000*%
%ADD35C,0.012000*%
G04 APERTURE END LIST*
G54D10*
G54D11*
X19606Y-13444D03*
X18306Y-13444D03*
G54D12*
X17370Y-12539D03*
X17370Y-12913D03*
X16338Y-12539D03*
X17370Y-13287D03*
X16338Y-12913D03*
X16338Y-13287D03*
G54D13*
X19389Y-16090D03*
X20137Y-16090D03*
X20137Y-15059D03*
X19763Y-15059D03*
X19389Y-15059D03*
G54D14*
X25059Y-17539D03*
X25059Y-17795D03*
X25059Y-18051D03*
X25059Y-18307D03*
X26082Y-18307D03*
X26082Y-18051D03*
X26082Y-17795D03*
X26082Y-17539D03*
G54D15*
X19965Y-11203D03*
G54D16*
X19110Y-10820D03*
X19110Y-11075D03*
X19110Y-11331D03*
X19110Y-11587D03*
X20820Y-11587D03*
X20820Y-11331D03*
X20820Y-11075D03*
X20820Y-10820D03*
G54D12*
X17370Y-13818D03*
X17370Y-14192D03*
X16338Y-13818D03*
X17370Y-14566D03*
X16338Y-14192D03*
X16338Y-14566D03*
G54D17*
X22066Y-12460D03*
X21161Y-12086D03*
X21161Y-12834D03*
G54D18*
X29035Y-11220D03*
X29035Y-18307D03*
X15846Y-18307D03*
X15846Y-11220D03*
G54D19*
X16909Y-16358D03*
X17500Y-16358D03*
X21299Y-14271D03*
X21889Y-14271D03*
X28090Y-15314D03*
X28681Y-15314D03*
X21181Y-17480D03*
X20590Y-17480D03*
X19940Y-17657D03*
X19350Y-17657D03*
G54D20*
X26653Y-17755D03*
X26653Y-18346D03*
X18460Y-11495D03*
X18460Y-10904D03*
X21540Y-11515D03*
X21540Y-10924D03*
G54D19*
X28090Y-14744D03*
X28681Y-14744D03*
G54D20*
X22381Y-18976D03*
X22381Y-18385D03*
G54D19*
X19192Y-12165D03*
X19783Y-12165D03*
G54D20*
X18700Y-14271D03*
X18700Y-14862D03*
G54D19*
X19862Y-14409D03*
X19271Y-14409D03*
X20059Y-16771D03*
X19468Y-16771D03*
G54D20*
X18858Y-17185D03*
X18858Y-16594D03*
X18858Y-15570D03*
X18858Y-16161D03*
X15649Y-12637D03*
X15649Y-13228D03*
X17992Y-16909D03*
X17992Y-17500D03*
G54D19*
X28090Y-14173D03*
X28681Y-14173D03*
G54D20*
X28228Y-12952D03*
X28228Y-12362D03*
X15059Y-13976D03*
X15059Y-14566D03*
X20629Y-12677D03*
X20629Y-12086D03*
G54D19*
X28070Y-15925D03*
X28661Y-15925D03*
G54D20*
X28740Y-12362D03*
X28740Y-12952D03*
X29153Y-14704D03*
X29153Y-15295D03*
X29153Y-14153D03*
X29153Y-13562D03*
X14448Y-15059D03*
X14448Y-14468D03*
G54D21*
X22578Y-10826D03*
G54D22*
X24448Y-11968D03*
X24015Y-11968D03*
X23149Y-11968D03*
X23582Y-11968D03*
X25314Y-11968D03*
X24881Y-11968D03*
X25748Y-11968D03*
X26181Y-11968D03*
G54D21*
X27657Y-10826D03*
G54D23*
X22529Y-14665D03*
G54D24*
X22755Y-16525D03*
X25354Y-16525D03*
X26259Y-16525D03*
G54D25*
X14429Y-16289D03*
X14429Y-16781D03*
X14429Y-17273D03*
X14429Y-17765D03*
G54D26*
X13287Y-18769D03*
X13287Y-15285D03*
G54D25*
X30452Y-17765D03*
X30452Y-17273D03*
X30452Y-16781D03*
X30452Y-16289D03*
G54D26*
X31594Y-15285D03*
X31594Y-18769D03*
G54D25*
X30452Y-13238D03*
X30452Y-12746D03*
X30452Y-12253D03*
X30452Y-11761D03*
G54D26*
X31594Y-10757D03*
X31594Y-14242D03*
G54D25*
X14429Y-12253D03*
X14429Y-12746D03*
G54D26*
X13287Y-13750D03*
X13287Y-11250D03*
G54D27*
X18277Y-12165D03*
X18809Y-12165D03*
G54D28*
X17496Y-15846D03*
X17496Y-15590D03*
X17496Y-15078D03*
X17496Y-15334D03*
X15157Y-15334D03*
X15157Y-15078D03*
X15157Y-15590D03*
X15157Y-15846D03*
G54D29*
X28051Y-17421D03*
X27637Y-17539D03*
X21141Y-14311D03*
X29685Y-15039D03*
X29429Y-15334D03*
X16141Y-17106D03*
X21673Y-18937D03*
X26732Y-18937D03*
X15374Y-16456D03*
X14645Y-11614D03*
X24448Y-10629D03*
X26830Y-14094D03*
X26377Y-14015D03*
X26023Y-13877D03*
X27106Y-16023D03*
X26732Y-15688D03*
X26574Y-12696D03*
X26161Y-12677D03*
X24780Y-15900D03*
X27559Y-16220D03*
X21259Y-13149D03*
X29232Y-16141D03*
X27283Y-12007D03*
X27283Y-15452D03*
X25078Y-11338D03*
X26929Y-12559D03*
X26062Y-11043D03*
X27559Y-14488D03*
X24015Y-14763D03*
X21220Y-14780D03*
X18464Y-16909D03*
X24488Y-16811D03*
X18188Y-15551D03*
X24606Y-15118D03*
X20511Y-15728D03*
X16685Y-15559D03*
X18346Y-16496D03*
X18503Y-15255D03*
X19901Y-15610D03*
X24606Y-14685D03*
X24035Y-16220D03*
X21397Y-17047D03*
X24389Y-16082D03*
X21653Y-16771D03*
X21850Y-17933D03*
X23484Y-18562D03*
X18110Y-15944D03*
X18917Y-13149D03*
X19094Y-16279D03*
X20925Y-16279D03*
X20157Y-13622D03*
X27027Y-16614D03*
X28779Y-16732D03*
X26811Y-16299D03*
X29133Y-16496D03*
X23996Y-18090D03*
X23248Y-17539D03*
X29488Y-16417D03*
X29881Y-16791D03*
X30059Y-15059D03*
X29921Y-15629D03*
X25610Y-15255D03*
X20826Y-13169D03*
X20334Y-13287D03*
X25255Y-15039D03*
G54D30*
X13838Y-14507D03*
G54D29*
X31122Y-11751D03*
X31161Y-13267D03*
X31161Y-16279D03*
X13740Y-16181D03*
X13267Y-14507D03*
X17559Y-12125D03*
X21358Y-15531D03*
X24114Y-15472D03*
G54D30*
X13720Y-12440D03*
G54D29*
X25984Y-15354D03*
X20078Y-12342D03*
X15586Y-14826D03*
X18897Y-12716D03*
X19023Y-16960D03*
G54D30*
X13740Y-12933D03*
X14212Y-10748D03*
G54D29*
X17362Y-17007D03*
X22204Y-13996D03*
X20826Y-14074D03*
X19015Y-15275D03*
X21870Y-16456D03*
G54D30*
X18956Y-13582D03*
G54D29*
X16692Y-16240D03*
X20275Y-17519D03*
X18228Y-18149D03*
X26259Y-16003D03*
X27401Y-18779D03*
X21555Y-11811D03*
X24488Y-18641D03*
X22027Y-12933D03*
X28307Y-13740D03*
X29606Y-14665D03*
X21692Y-16062D03*
X23858Y-12992D03*
X31102Y-12500D03*
X31102Y-17027D03*
X13779Y-17027D03*
X26043Y-18641D03*
X22637Y-12342D03*
X22086Y-12224D03*
X18976Y-17637D03*
X21496Y-17460D03*
X16318Y-15669D03*
X29606Y-14173D03*
G54D30*
X22066Y-11791D03*
G54D29*
X29232Y-12775D03*
X23858Y-13740D03*
X22480Y-17539D03*
X27874Y-17913D03*
X25118Y-18641D03*
G54D31*
X27893Y-17263D02*
X25826Y-17263D01*
X28051Y-17421D02*
X27893Y-17263D01*
X25787Y-18307D02*
X26082Y-18307D01*
X25708Y-18228D02*
X25787Y-18307D01*
X25708Y-17381D02*
X25708Y-18228D01*
X25826Y-17263D02*
X25708Y-17381D01*
X27637Y-17539D02*
X27440Y-17539D01*
X27440Y-17539D02*
X27342Y-17440D01*
X26929Y-17440D02*
X26181Y-17440D01*
X26948Y-17440D02*
X26929Y-17440D01*
X27342Y-17440D02*
X26948Y-17440D01*
X26181Y-17440D02*
X26082Y-17539D01*
X21141Y-14311D02*
X21259Y-14311D01*
X21259Y-14311D02*
X21299Y-14271D01*
X20295Y-15059D02*
X20393Y-15059D01*
X20393Y-15059D02*
X20984Y-14468D01*
X20984Y-14468D02*
X21141Y-14311D01*
X20137Y-15059D02*
X20295Y-15059D01*
X29685Y-15039D02*
X29881Y-14842D01*
X29448Y-13562D02*
X29153Y-13562D01*
X29881Y-13996D02*
X29448Y-13562D01*
X29881Y-14842D02*
X29881Y-13996D01*
X29389Y-15295D02*
X29153Y-15295D01*
X29429Y-15334D02*
X29389Y-15295D01*
X16200Y-17106D02*
X16141Y-17106D01*
X17047Y-17952D02*
X16200Y-17106D01*
X17047Y-18602D02*
X17047Y-17952D01*
X17381Y-18937D02*
X17047Y-18602D01*
X21673Y-18937D02*
X17381Y-18937D01*
X24744Y-10629D02*
X24448Y-10629D01*
X26653Y-11338D02*
X26722Y-11407D01*
X25452Y-11338D02*
X25098Y-10984D01*
X26653Y-11338D02*
X25452Y-11338D01*
X25098Y-10984D02*
X24744Y-10629D01*
X27076Y-13848D02*
X27204Y-13720D01*
X26889Y-11574D02*
X26722Y-11407D01*
X26722Y-11407D02*
X26712Y-11397D01*
X26889Y-12066D02*
X26889Y-11574D01*
X27204Y-12381D02*
X26889Y-12066D01*
X27204Y-13720D02*
X27204Y-12381D01*
X26830Y-14094D02*
X27076Y-13848D01*
X27076Y-13848D02*
X27086Y-13838D01*
X24448Y-12716D02*
X24448Y-11968D01*
X25885Y-14153D02*
X24448Y-12716D01*
X26240Y-14153D02*
X25885Y-14153D01*
X26377Y-14015D02*
X26240Y-14153D01*
X25314Y-13169D02*
X25314Y-11968D01*
X26023Y-13877D02*
X25314Y-13169D01*
X26663Y-15226D02*
X26564Y-15226D01*
X26564Y-15226D02*
X24606Y-13267D01*
X27106Y-15669D02*
X26663Y-15226D01*
X27106Y-16023D02*
X27106Y-15669D01*
X24330Y-13267D02*
X24606Y-13267D01*
X23740Y-13267D02*
X23582Y-13110D01*
X23582Y-13110D02*
X23582Y-11968D01*
X24330Y-13267D02*
X23740Y-13267D01*
X26633Y-15533D02*
X26732Y-15632D01*
X26732Y-15632D02*
X26732Y-15688D01*
X24560Y-13460D02*
X26633Y-15533D01*
X24360Y-13464D02*
X24364Y-13460D01*
X24364Y-13460D02*
X24560Y-13460D01*
X24291Y-13464D02*
X24360Y-13464D01*
X23307Y-13149D02*
X23149Y-12992D01*
X23622Y-13464D02*
X24291Y-13464D01*
X23622Y-13464D02*
X23307Y-13149D01*
X23149Y-11968D02*
X23149Y-12992D01*
X26633Y-15533D02*
X26633Y-15531D01*
X26574Y-12696D02*
X26279Y-12401D01*
X26279Y-12066D02*
X26181Y-11968D01*
X26279Y-12401D02*
X26279Y-12066D01*
X26161Y-12677D02*
X25866Y-12381D01*
X25866Y-12086D02*
X25748Y-11968D01*
X25866Y-12381D02*
X25866Y-12086D01*
X25354Y-16525D02*
X25354Y-16234D01*
X25020Y-15900D02*
X24780Y-15900D01*
X25354Y-16234D02*
X25020Y-15900D01*
X27834Y-14271D02*
X27834Y-14881D01*
X27834Y-14881D02*
X27755Y-14960D01*
X28011Y-12362D02*
X28110Y-12362D01*
X27755Y-12618D02*
X27755Y-14192D01*
X28011Y-12362D02*
X27755Y-12618D01*
X27755Y-14192D02*
X27834Y-14271D01*
X27755Y-16023D02*
X27755Y-14960D01*
X27559Y-16220D02*
X27755Y-16023D01*
X20629Y-12677D02*
X21003Y-12677D01*
X21003Y-12677D02*
X21161Y-12834D01*
X21259Y-13149D02*
X21259Y-12933D01*
X21259Y-12933D02*
X21161Y-12834D01*
X29232Y-16141D02*
X29015Y-15925D01*
X29015Y-15925D02*
X28661Y-15925D01*
X27283Y-12007D02*
X27381Y-12106D01*
X27381Y-14291D02*
X27283Y-14389D01*
X27381Y-12106D02*
X27381Y-14291D01*
X27283Y-15452D02*
X27283Y-14389D01*
X27244Y-15413D02*
X27283Y-15452D01*
X26387Y-11505D02*
X25246Y-11505D01*
X25246Y-11505D02*
X25078Y-11338D01*
X26614Y-11751D02*
X26614Y-11732D01*
X26614Y-11732D02*
X26387Y-11505D01*
X26929Y-12559D02*
X26614Y-12244D01*
X26614Y-12244D02*
X26614Y-11751D01*
X26712Y-11043D02*
X26811Y-11141D01*
X26062Y-11043D02*
X26712Y-11043D01*
X27559Y-11889D02*
X26811Y-11141D01*
X27559Y-14488D02*
X27559Y-11889D01*
X22106Y-13720D02*
X21830Y-13720D01*
X21440Y-14780D02*
X21220Y-14780D01*
X21594Y-14625D02*
X21440Y-14780D01*
X21594Y-13956D02*
X21594Y-14625D01*
X21830Y-13720D02*
X21594Y-13956D01*
X22677Y-13720D02*
X22106Y-13720D01*
X24015Y-14763D02*
X23720Y-14763D01*
X23720Y-14763D02*
X22677Y-13720D01*
X18464Y-16909D02*
X18464Y-17913D01*
X18661Y-18110D02*
X18799Y-18110D01*
X18464Y-17913D02*
X18661Y-18110D01*
X18917Y-18110D02*
X18799Y-18110D01*
X21259Y-18110D02*
X18917Y-18110D01*
X22106Y-17263D02*
X21259Y-18110D01*
X24035Y-17263D02*
X22106Y-17263D01*
X24488Y-16811D02*
X24035Y-17263D01*
X17496Y-15334D02*
X17972Y-15334D01*
X17972Y-15334D02*
X18188Y-15551D01*
X20511Y-15728D02*
X20984Y-15728D01*
X20984Y-15728D02*
X21082Y-15826D01*
X21496Y-15826D02*
X21082Y-15826D01*
X21496Y-15826D02*
X21751Y-15570D01*
X21751Y-15570D02*
X23681Y-15570D01*
X23681Y-15570D02*
X23877Y-15767D01*
X24606Y-15570D02*
X24606Y-15118D01*
X24409Y-15767D02*
X24606Y-15570D01*
X23877Y-15767D02*
X24409Y-15767D01*
X16685Y-15559D02*
X16685Y-15303D01*
X16909Y-15078D02*
X17496Y-15078D01*
X16685Y-15303D02*
X16909Y-15078D01*
X17496Y-15078D02*
X17992Y-15078D01*
X18169Y-15255D02*
X18065Y-15152D01*
X18169Y-15255D02*
X18503Y-15255D01*
X17992Y-15078D02*
X18065Y-15152D01*
X18346Y-16496D02*
X18346Y-16555D01*
X18346Y-16555D02*
X17992Y-16909D01*
X18503Y-15255D02*
X18503Y-16338D01*
X18503Y-16338D02*
X18346Y-16496D01*
X19921Y-15590D02*
X19901Y-15610D01*
X21003Y-15393D02*
X21220Y-15177D01*
X20413Y-15393D02*
X20216Y-15590D01*
X20433Y-15393D02*
X20413Y-15393D01*
X21003Y-15393D02*
X20433Y-15393D01*
X20216Y-15590D02*
X19921Y-15590D01*
X24606Y-14704D02*
X24212Y-15098D01*
X24606Y-14685D02*
X24606Y-14704D01*
X21574Y-15098D02*
X24212Y-15098D01*
X21299Y-15098D02*
X21220Y-15177D01*
X21574Y-15098D02*
X21299Y-15098D01*
X24035Y-16220D02*
X24037Y-16222D01*
X21417Y-17066D02*
X21968Y-17066D01*
X21397Y-17047D02*
X21417Y-17066D01*
X24100Y-16160D02*
X24037Y-16222D01*
X24037Y-16222D02*
X23193Y-17066D01*
X23193Y-17066D02*
X21968Y-17066D01*
X23709Y-16150D02*
X23709Y-16310D01*
X23709Y-16310D02*
X23248Y-16771D01*
X24250Y-15943D02*
X23916Y-15943D01*
X24389Y-16082D02*
X24250Y-15943D01*
X23248Y-16771D02*
X23129Y-16889D01*
X23129Y-16889D02*
X21771Y-16889D01*
X21771Y-16889D02*
X21653Y-16771D01*
X23760Y-16100D02*
X23709Y-16150D01*
X23760Y-16100D02*
X23916Y-15943D01*
X21860Y-17933D02*
X22027Y-18100D01*
X21850Y-17933D02*
X21860Y-17933D01*
X23021Y-18100D02*
X22027Y-18100D01*
X23484Y-18562D02*
X23021Y-18100D01*
G54D32*
X17496Y-15846D02*
X17496Y-16354D01*
X17496Y-16354D02*
X17500Y-16358D01*
X17696Y-16358D02*
X17500Y-16358D01*
X18110Y-15944D02*
X17696Y-16358D01*
G54D31*
X17992Y-17500D02*
X17913Y-17500D01*
X17913Y-17500D02*
X17657Y-17244D01*
X17657Y-17244D02*
X17657Y-16515D01*
X17657Y-16515D02*
X17500Y-16358D01*
G54D32*
X19291Y-16279D02*
X19094Y-16279D01*
X19389Y-16090D02*
X19389Y-16181D01*
X19389Y-16181D02*
X19291Y-16279D01*
X19094Y-16279D02*
X19094Y-16358D01*
X19094Y-16358D02*
X18858Y-16594D01*
X19094Y-16259D02*
X18858Y-16161D01*
X19094Y-16259D02*
X19094Y-16279D01*
X19389Y-16090D02*
X19389Y-16692D01*
X19389Y-16692D02*
X19468Y-16771D01*
G54D31*
X27421Y-16732D02*
X28779Y-16732D01*
X27027Y-16614D02*
X27421Y-16732D01*
X27351Y-16447D02*
X27459Y-16555D01*
X28562Y-16555D02*
X28661Y-16456D01*
X27459Y-16555D02*
X28562Y-16555D01*
X26851Y-16340D02*
X27244Y-16340D01*
X26851Y-16340D02*
X26811Y-16299D01*
X29133Y-16496D02*
X29094Y-16456D01*
X29094Y-16456D02*
X28661Y-16456D01*
X27360Y-16456D02*
X27351Y-16447D01*
X27351Y-16447D02*
X27244Y-16340D01*
X27225Y-16340D02*
X27244Y-16340D01*
X27244Y-16340D02*
X27244Y-16340D01*
X23996Y-18090D02*
X23996Y-18070D01*
X23996Y-18070D02*
X24980Y-17086D01*
X24980Y-17086D02*
X28326Y-17086D01*
X28326Y-17086D02*
X28440Y-17200D01*
X29990Y-16289D02*
X29080Y-17200D01*
X29080Y-17200D02*
X28440Y-17200D01*
X30452Y-16289D02*
X29990Y-16289D01*
X24232Y-17539D02*
X23248Y-17539D01*
X24862Y-16909D02*
X24330Y-17440D01*
X28484Y-16909D02*
X28594Y-17020D01*
X24862Y-16909D02*
X28484Y-16909D01*
X29447Y-16458D02*
X29447Y-16572D01*
X29488Y-16417D02*
X29447Y-16458D01*
X29000Y-17020D02*
X28594Y-17020D01*
X29447Y-16572D02*
X29000Y-17020D01*
X24330Y-17440D02*
X24232Y-17539D01*
X30442Y-16791D02*
X30452Y-16781D01*
X29881Y-16791D02*
X30442Y-16791D01*
X30036Y-13895D02*
X30059Y-13917D01*
X30452Y-11761D02*
X30127Y-11761D01*
X29724Y-12165D02*
X30127Y-11761D01*
X29724Y-13562D02*
X29724Y-12165D01*
X29724Y-13582D02*
X30036Y-13895D01*
X29724Y-13562D02*
X29724Y-13582D01*
X30059Y-13917D02*
X30059Y-15059D01*
X30196Y-15334D02*
X30334Y-15196D01*
X29921Y-15610D02*
X30196Y-15334D01*
X30147Y-12253D02*
X30452Y-12253D01*
X30147Y-12253D02*
X29921Y-12480D01*
X29921Y-12480D02*
X29921Y-13543D01*
X29921Y-13543D02*
X30196Y-13818D01*
X30334Y-13956D02*
X30196Y-13818D01*
X30334Y-15196D02*
X30334Y-13956D01*
X29921Y-15629D02*
X29921Y-15610D01*
X29921Y-15610D02*
X29921Y-15629D01*
X21692Y-13366D02*
X21496Y-13366D01*
X23740Y-14212D02*
X23661Y-14212D01*
X23661Y-14212D02*
X22814Y-13366D01*
X25610Y-15255D02*
X25610Y-15000D01*
X24822Y-14212D02*
X23740Y-14212D01*
X25610Y-15000D02*
X24822Y-14212D01*
X22224Y-13366D02*
X21692Y-13366D01*
X22224Y-13366D02*
X22814Y-13366D01*
X21082Y-13425D02*
X20826Y-13169D01*
X21437Y-13425D02*
X21082Y-13425D01*
X21496Y-13366D02*
X21437Y-13425D01*
X21614Y-13543D02*
X21555Y-13602D01*
X21555Y-13602D02*
X20649Y-13602D01*
X20649Y-13602D02*
X20334Y-13287D01*
X22785Y-13572D02*
X22755Y-13543D01*
X22755Y-13543D02*
X21732Y-13543D01*
X23641Y-14389D02*
X23602Y-14389D01*
X23602Y-14389D02*
X22785Y-13572D01*
X25255Y-15039D02*
X25255Y-14901D01*
X24744Y-14389D02*
X23641Y-14389D01*
X25255Y-14901D02*
X24744Y-14389D01*
X21732Y-13543D02*
X21614Y-13543D01*
G54D33*
X13740Y-16181D02*
X14320Y-16181D01*
X14320Y-16181D02*
X14429Y-16289D01*
X31161Y-13267D02*
X30482Y-13267D01*
X30482Y-13267D02*
X30452Y-13238D01*
X31161Y-16279D02*
X31437Y-16555D01*
X31151Y-17765D02*
X30452Y-17765D01*
X31437Y-17480D02*
X31151Y-17765D01*
X31437Y-16555D02*
X31437Y-17480D01*
G54D34*
X14429Y-16289D02*
X14320Y-16181D01*
G54D31*
X21555Y-15334D02*
X21358Y-15531D01*
X21771Y-15334D02*
X21555Y-15334D01*
X24114Y-15472D02*
X23976Y-15334D01*
X23976Y-15334D02*
X21771Y-15334D01*
X21771Y-15334D02*
X21751Y-15334D01*
G54D32*
X15649Y-13228D02*
X15590Y-13228D01*
X15590Y-13228D02*
X15275Y-13543D01*
G54D33*
X16338Y-14192D02*
X15925Y-14192D01*
X15925Y-14192D02*
X15275Y-13543D01*
X15118Y-13385D02*
X15118Y-12893D01*
X15118Y-12893D02*
X15118Y-12440D01*
X14931Y-12253D02*
X14429Y-12253D01*
X15118Y-12440D02*
X14931Y-12253D01*
X15275Y-13543D02*
X15118Y-13385D01*
X14429Y-12253D02*
X13927Y-12253D01*
X13927Y-12253D02*
X13740Y-12440D01*
X13740Y-12440D02*
X13720Y-12440D01*
G54D34*
X16338Y-14566D02*
X16338Y-14192D01*
X17370Y-14192D02*
X17370Y-14566D01*
X17370Y-14566D02*
X16338Y-14566D01*
G54D35*
X15649Y-13228D02*
X16279Y-13228D01*
X16279Y-13228D02*
X16338Y-13287D01*
G54D34*
X18277Y-12165D02*
X18277Y-12183D01*
X18277Y-12183D02*
X18062Y-12397D01*
G54D33*
X18248Y-12582D02*
X18062Y-12397D01*
X18062Y-12397D02*
X17952Y-12287D01*
X17952Y-12287D02*
X17952Y-12047D01*
G54D34*
X18700Y-14271D02*
X18700Y-13996D01*
X18306Y-13601D02*
X18306Y-13444D01*
X18700Y-13996D02*
X18306Y-13601D01*
G54D35*
X17370Y-13287D02*
X17370Y-13818D01*
G54D33*
X17370Y-13818D02*
X17932Y-13818D01*
X17932Y-13818D02*
X18306Y-13444D01*
X18460Y-10904D02*
X18229Y-10904D01*
X18229Y-10904D02*
X17952Y-11181D01*
X17952Y-11181D02*
X17952Y-12047D01*
X18248Y-12582D02*
X18248Y-13386D01*
X18248Y-13386D02*
X18306Y-13444D01*
G54D34*
X19110Y-11075D02*
X18631Y-11075D01*
X18631Y-11075D02*
X18460Y-10904D01*
X19110Y-10820D02*
X18544Y-10820D01*
X18544Y-10820D02*
X18460Y-10904D01*
X19110Y-11331D02*
X19110Y-10820D01*
G54D32*
X20078Y-12342D02*
X19960Y-12342D01*
X19960Y-12342D02*
X19783Y-12165D01*
G54D31*
X22913Y-13228D02*
X22888Y-13203D01*
X22888Y-13203D02*
X22150Y-13203D01*
X21870Y-13169D02*
X21904Y-13203D01*
X20866Y-12342D02*
X20984Y-12460D01*
X20984Y-12460D02*
X21377Y-12460D01*
X21377Y-12460D02*
X21673Y-12755D01*
X21673Y-12755D02*
X21673Y-12972D01*
X21673Y-12972D02*
X21870Y-13169D01*
X20078Y-12342D02*
X20866Y-12342D01*
X21904Y-13203D02*
X22150Y-13203D01*
X23720Y-14035D02*
X22913Y-13228D01*
X25984Y-15354D02*
X25984Y-15137D01*
X24881Y-14035D02*
X23720Y-14035D01*
X25984Y-15137D02*
X24881Y-14035D01*
G54D32*
X17496Y-15590D02*
X17086Y-15590D01*
X16909Y-15767D02*
X16909Y-16358D01*
X17086Y-15590D02*
X16909Y-15767D01*
G54D31*
X15157Y-15334D02*
X15688Y-15334D01*
X15688Y-15334D02*
X15748Y-15393D01*
X15157Y-15590D02*
X15787Y-15590D01*
X15157Y-15846D02*
X15807Y-15846D01*
X15157Y-15078D02*
X14468Y-15078D01*
X14468Y-15078D02*
X14448Y-15059D01*
X15586Y-14826D02*
X15334Y-15078D01*
X15334Y-15078D02*
X15157Y-15078D01*
G54D32*
X18858Y-17185D02*
X18858Y-17125D01*
X18858Y-17125D02*
X19023Y-16960D01*
G54D31*
X22529Y-14665D02*
X21960Y-14665D01*
X21889Y-14594D02*
X21889Y-14271D01*
X21960Y-14665D02*
X21889Y-14594D01*
G54D34*
X13287Y-15285D02*
X12838Y-14836D01*
X12838Y-14198D02*
X13287Y-13750D01*
X12838Y-14836D02*
X12838Y-14198D01*
G54D33*
X14429Y-12746D02*
X14242Y-12933D01*
X14242Y-12933D02*
X13740Y-12933D01*
G54D35*
X22578Y-10826D02*
X22342Y-10590D01*
X22342Y-10590D02*
X22047Y-10590D01*
G54D34*
X18460Y-11495D02*
X18552Y-11587D01*
X18552Y-11587D02*
X19110Y-11587D01*
X20820Y-11587D02*
X21467Y-11587D01*
X21467Y-11587D02*
X21540Y-11515D01*
X20820Y-11587D02*
X20349Y-11587D01*
X20349Y-11587D02*
X19965Y-11203D01*
X19110Y-11587D02*
X19581Y-11587D01*
X19581Y-11587D02*
X19965Y-11203D01*
G54D31*
X21889Y-14271D02*
X21929Y-14271D01*
X21929Y-14271D02*
X22204Y-13996D01*
G54D32*
X19763Y-15059D02*
X19763Y-15354D01*
X19547Y-15570D02*
X19448Y-15570D01*
X19763Y-15354D02*
X19547Y-15570D01*
X20492Y-14409D02*
X19862Y-14409D01*
X20826Y-14074D02*
X20492Y-14409D01*
X19015Y-15275D02*
X19015Y-15413D01*
X19015Y-15413D02*
X18858Y-15570D01*
X19468Y-13582D02*
X18956Y-13582D01*
X19606Y-13444D02*
X19468Y-13582D01*
X18858Y-15570D02*
X19448Y-15570D01*
G54D31*
X16692Y-16240D02*
X16791Y-16240D01*
X16791Y-16240D02*
X16909Y-16358D01*
G54D32*
X18228Y-18149D02*
X18149Y-18149D01*
X20590Y-17480D02*
X20314Y-17480D01*
X20137Y-17657D02*
X20275Y-17519D01*
X20137Y-17657D02*
X19940Y-17657D01*
X20314Y-17480D02*
X20275Y-17519D01*
G54D31*
X26259Y-16525D02*
X26259Y-16003D01*
G54D35*
X16338Y-12539D02*
X15748Y-12539D01*
X15748Y-12539D02*
X15649Y-12637D01*
G54D32*
X16338Y-12539D02*
X16338Y-12913D01*
X21540Y-11515D02*
X21540Y-11795D01*
X21540Y-11795D02*
X21555Y-11811D01*
G54D31*
X25059Y-18307D02*
X24822Y-18307D01*
X24822Y-18307D02*
X24488Y-18641D01*
X28307Y-13740D02*
X28070Y-13976D01*
X28070Y-13976D02*
X28070Y-15334D01*
G54D32*
X24015Y-11968D02*
X24015Y-12834D01*
X24015Y-12834D02*
X23858Y-12992D01*
X26082Y-17795D02*
X26614Y-17795D01*
X26614Y-17795D02*
X26653Y-17755D01*
X19763Y-15059D02*
X19763Y-14507D01*
X19763Y-14507D02*
X19862Y-14409D01*
G54D35*
X30856Y-12746D02*
X30452Y-12746D01*
X31102Y-12500D02*
X30856Y-12746D01*
X30452Y-17273D02*
X30856Y-17273D01*
X30856Y-17273D02*
X31102Y-17027D01*
X14025Y-16781D02*
X14429Y-16781D01*
X13779Y-17027D02*
X14025Y-16781D01*
G54D32*
X19192Y-12165D02*
X18838Y-12165D01*
G54D31*
X14448Y-14468D02*
X14566Y-14468D01*
X14566Y-14468D02*
X15059Y-13976D01*
G54D32*
X20137Y-16090D02*
X20137Y-16692D01*
X20137Y-16692D02*
X20059Y-16771D01*
G54D31*
X25748Y-18641D02*
X25570Y-18464D01*
X26043Y-18641D02*
X25748Y-18641D01*
X25334Y-17539D02*
X25059Y-17539D01*
X25492Y-17696D02*
X25334Y-17539D01*
X25492Y-18385D02*
X25492Y-17696D01*
X25570Y-18464D02*
X25492Y-18385D01*
X28661Y-14744D02*
X29114Y-14744D01*
X29114Y-14744D02*
X29153Y-14704D01*
X28070Y-15925D02*
X28661Y-15334D01*
X28661Y-14173D02*
X29133Y-14173D01*
X29133Y-14173D02*
X29153Y-14153D01*
X17370Y-12913D02*
X16968Y-12913D01*
X16653Y-13818D02*
X16338Y-13818D01*
X16830Y-13641D02*
X16653Y-13818D01*
X16830Y-13051D02*
X16830Y-13641D01*
X16968Y-12913D02*
X16830Y-13051D01*
X28228Y-12952D02*
X28740Y-12952D01*
G54D32*
X18700Y-14862D02*
X18818Y-14862D01*
X18818Y-14862D02*
X19271Y-14409D01*
X19389Y-15059D02*
X19389Y-14527D01*
X19389Y-14527D02*
X19271Y-14409D01*
G54D31*
X23326Y-18858D02*
X23602Y-18858D01*
X23602Y-18858D02*
X24409Y-18051D01*
X23051Y-18858D02*
X22972Y-18858D01*
X15068Y-17273D02*
X14429Y-17273D01*
X15688Y-16653D02*
X15068Y-17273D01*
X16318Y-16653D02*
X15688Y-16653D01*
X17421Y-17755D02*
X16318Y-16653D01*
X17421Y-18425D02*
X17421Y-17755D01*
X17578Y-18582D02*
X17421Y-18425D01*
X21318Y-18582D02*
X17578Y-18582D01*
X21456Y-18444D02*
X21318Y-18582D01*
X22559Y-18444D02*
X21456Y-18444D01*
X22972Y-18858D02*
X22559Y-18444D01*
X25059Y-17795D02*
X24665Y-17795D01*
X23326Y-18858D02*
X23051Y-18858D01*
X23051Y-18858D02*
X23031Y-18858D01*
X24665Y-17795D02*
X24409Y-18051D01*
X24783Y-18051D02*
X24665Y-18051D01*
X24665Y-18051D02*
X23681Y-19035D01*
X22736Y-19035D02*
X22185Y-19035D01*
X14852Y-17765D02*
X14429Y-17765D01*
X15787Y-16830D02*
X14852Y-17765D01*
X16240Y-16830D02*
X15787Y-16830D01*
X17244Y-17834D02*
X16240Y-16830D01*
X17244Y-18523D02*
X17244Y-17834D01*
X17480Y-18759D02*
X17244Y-18523D01*
X21437Y-18759D02*
X17480Y-18759D01*
X21555Y-18641D02*
X21437Y-18759D01*
X21791Y-18641D02*
X21555Y-18641D01*
X22185Y-19035D02*
X21791Y-18641D01*
X25059Y-18051D02*
X24783Y-18051D01*
X23681Y-19035D02*
X22736Y-19035D01*
X22736Y-19035D02*
X22716Y-19035D01*
G54D32*
X22814Y-11811D02*
X22814Y-12165D01*
X22814Y-12165D02*
X22637Y-12342D01*
X22814Y-11811D02*
X22814Y-11515D01*
G54D31*
X22066Y-12460D02*
X22066Y-12244D01*
X22066Y-12244D02*
X22086Y-12224D01*
G54D32*
X24881Y-11574D02*
X24763Y-11456D01*
X24881Y-11574D02*
X24881Y-11968D01*
X22874Y-11456D02*
X22814Y-11515D01*
X24763Y-11456D02*
X22874Y-11456D01*
G54D31*
X18976Y-17637D02*
X19330Y-17637D01*
X19330Y-17637D02*
X19350Y-17657D01*
X21496Y-17460D02*
X21200Y-17460D01*
X21200Y-17460D02*
X21181Y-17480D01*
X21496Y-17460D02*
X21496Y-17500D01*
X15059Y-14566D02*
X15787Y-14566D01*
X15905Y-15255D02*
X16318Y-15669D01*
X15905Y-14685D02*
X15905Y-15255D01*
X15787Y-14566D02*
X15905Y-14685D01*
X20629Y-12086D02*
X21161Y-12086D01*
G54D32*
X21161Y-12086D02*
X21417Y-12086D01*
G54D33*
X22066Y-11279D02*
X22066Y-11417D01*
G54D34*
X20820Y-11075D02*
X21388Y-11075D01*
X21388Y-11075D02*
X21540Y-10924D01*
X20820Y-11331D02*
X20820Y-10820D01*
X20820Y-10820D02*
X21435Y-10820D01*
X21435Y-10820D02*
X21540Y-10924D01*
G54D33*
X21540Y-10924D02*
X21849Y-10924D01*
X21849Y-10924D02*
X22066Y-11141D01*
X22066Y-11141D02*
X22066Y-11279D01*
X22066Y-11279D02*
X22066Y-11791D01*
G54D32*
X21417Y-12086D02*
X21771Y-12086D01*
X21771Y-12086D02*
X22066Y-11791D01*
G54D35*
X21849Y-10924D02*
X22066Y-11141D01*
X22066Y-11141D02*
X22066Y-11791D01*
G54D31*
X25118Y-18641D02*
X25393Y-18917D01*
X25393Y-18917D02*
X26240Y-18917D01*
X26240Y-18917D02*
X26515Y-18641D01*
X26515Y-18641D02*
X26515Y-18484D01*
X26515Y-18484D02*
X26653Y-18346D01*
G54D32*
X26082Y-18051D02*
X26358Y-18051D01*
X26358Y-18051D02*
X26653Y-18346D01*
G54D10*
G36*
X14671Y-15887D02*
X14619Y-15887D01*
X14557Y-15950D01*
X14557Y-15978D01*
X14558Y-15981D01*
X14464Y-15981D01*
X14416Y-15950D01*
X14320Y-15931D01*
X13970Y-15931D01*
X14019Y-15910D01*
X14090Y-15840D01*
X14127Y-15748D01*
X14127Y-15406D01*
X14202Y-15436D01*
X14301Y-15437D01*
X14336Y-15437D01*
X14398Y-15374D01*
X14398Y-15109D01*
X14390Y-15109D01*
X14390Y-15009D01*
X14398Y-15009D01*
X14398Y-15001D01*
X14498Y-15001D01*
X14498Y-15009D01*
X14506Y-15009D01*
X14506Y-15109D01*
X14498Y-15109D01*
X14498Y-15374D01*
X14559Y-15435D01*
X14557Y-15438D01*
X14557Y-15458D01*
X14557Y-15458D01*
X14557Y-15462D01*
X14557Y-15466D01*
X14557Y-15466D01*
X14557Y-15486D01*
X14571Y-15500D01*
X14595Y-15558D01*
X14626Y-15590D01*
X14595Y-15622D01*
X14571Y-15680D01*
X14557Y-15694D01*
X14557Y-15714D01*
X14557Y-15714D01*
X14557Y-15718D01*
X14557Y-15722D01*
X14557Y-15722D01*
X14557Y-15742D01*
X14571Y-15756D01*
X14595Y-15814D01*
X14665Y-15885D01*
X14671Y-15887D01*
X14671Y-15887D01*
G37*
G54D32*
X14671Y-15887D02*
X14619Y-15887D01*
X14557Y-15950D01*
X14557Y-15978D01*
X14558Y-15981D01*
X14464Y-15981D01*
X14416Y-15950D01*
X14320Y-15931D01*
X13970Y-15931D01*
X14019Y-15910D01*
X14090Y-15840D01*
X14127Y-15748D01*
X14127Y-15406D01*
X14202Y-15436D01*
X14301Y-15437D01*
X14336Y-15437D01*
X14398Y-15374D01*
X14398Y-15109D01*
X14390Y-15109D01*
X14390Y-15009D01*
X14398Y-15009D01*
X14398Y-15001D01*
X14498Y-15001D01*
X14498Y-15009D01*
X14506Y-15009D01*
X14506Y-15109D01*
X14498Y-15109D01*
X14498Y-15374D01*
X14559Y-15435D01*
X14557Y-15438D01*
X14557Y-15458D01*
X14557Y-15458D01*
X14557Y-15462D01*
X14557Y-15466D01*
X14557Y-15466D01*
X14557Y-15486D01*
X14571Y-15500D01*
X14595Y-15558D01*
X14626Y-15590D01*
X14595Y-15622D01*
X14571Y-15680D01*
X14557Y-15694D01*
X14557Y-15714D01*
X14557Y-15714D01*
X14557Y-15718D01*
X14557Y-15722D01*
X14557Y-15722D01*
X14557Y-15742D01*
X14571Y-15756D01*
X14595Y-15814D01*
X14665Y-15885D01*
X14671Y-15887D01*
G54D10*
G36*
X17354Y-19121D02*
X14127Y-19121D01*
X14127Y-18306D01*
X14090Y-18214D01*
X14019Y-18144D01*
X13927Y-18106D01*
X13828Y-18106D01*
X13399Y-18106D01*
X13337Y-18168D01*
X13337Y-18719D01*
X14065Y-18719D01*
X14127Y-18657D01*
X14127Y-18306D01*
X14127Y-19121D01*
X14127Y-19121D01*
X14127Y-18882D01*
X14065Y-18819D01*
X13337Y-18819D01*
X13337Y-18827D01*
X13237Y-18827D01*
X13237Y-18819D01*
X13229Y-18819D01*
X13229Y-18719D01*
X13237Y-18719D01*
X13237Y-18168D01*
X13174Y-18106D01*
X12768Y-18106D01*
X12768Y-15948D01*
X13174Y-15948D01*
X13237Y-15886D01*
X13237Y-15335D01*
X13229Y-15335D01*
X13229Y-15235D01*
X13237Y-15235D01*
X13237Y-15227D01*
X13337Y-15227D01*
X13337Y-15235D01*
X13345Y-15235D01*
X13345Y-15335D01*
X13337Y-15335D01*
X13337Y-15886D01*
X13399Y-15948D01*
X13563Y-15948D01*
X13495Y-16017D01*
X13451Y-16123D01*
X13451Y-16238D01*
X13495Y-16344D01*
X13576Y-16425D01*
X13682Y-16470D01*
X13797Y-16470D01*
X13891Y-16431D01*
X13953Y-16431D01*
X13902Y-16482D01*
X13864Y-16574D01*
X13864Y-16668D01*
X13926Y-16731D01*
X14379Y-16731D01*
X14379Y-16723D01*
X14479Y-16723D01*
X14479Y-16731D01*
X14931Y-16731D01*
X14994Y-16668D01*
X14994Y-16574D01*
X14956Y-16482D01*
X14894Y-16420D01*
X14894Y-16417D01*
X14894Y-16179D01*
X15044Y-16179D01*
X15107Y-16116D01*
X15107Y-15887D01*
X15080Y-15887D01*
X15107Y-15860D01*
X15107Y-15805D01*
X15107Y-15631D01*
X15107Y-15604D01*
X15107Y-15576D01*
X15107Y-15549D01*
X15107Y-15375D01*
X15107Y-15348D01*
X15107Y-15320D01*
X15107Y-15293D01*
X15107Y-15120D01*
X15107Y-15064D01*
X15080Y-15037D01*
X15107Y-15037D01*
X15107Y-15020D01*
X15207Y-15020D01*
X15207Y-15037D01*
X15215Y-15037D01*
X15215Y-15056D01*
X15207Y-15064D01*
X15207Y-15120D01*
X15207Y-15293D01*
X15207Y-15320D01*
X15207Y-15348D01*
X15207Y-15375D01*
X15207Y-15549D01*
X15207Y-15576D01*
X15207Y-15604D01*
X15207Y-15631D01*
X15207Y-15805D01*
X15207Y-15860D01*
X15234Y-15887D01*
X15207Y-15887D01*
X15207Y-16116D01*
X15269Y-16179D01*
X15289Y-16179D01*
X15210Y-16211D01*
X15129Y-16292D01*
X15085Y-16398D01*
X15084Y-16513D01*
X15128Y-16620D01*
X15210Y-16701D01*
X15316Y-16745D01*
X15328Y-16745D01*
X14990Y-17083D01*
X14952Y-17083D01*
X14956Y-17080D01*
X14994Y-16988D01*
X14994Y-16893D01*
X14931Y-16831D01*
X14479Y-16831D01*
X14479Y-16839D01*
X14379Y-16839D01*
X14379Y-16831D01*
X13926Y-16831D01*
X13864Y-16893D01*
X13864Y-16988D01*
X13902Y-17080D01*
X13964Y-17142D01*
X13964Y-17145D01*
X13964Y-17460D01*
X13986Y-17515D01*
X13990Y-17519D01*
X13987Y-17523D01*
X13964Y-17578D01*
X13964Y-17637D01*
X13964Y-17952D01*
X13986Y-18008D01*
X14029Y-18050D01*
X14084Y-18073D01*
X14143Y-18073D01*
X14773Y-18073D01*
X14828Y-18050D01*
X14871Y-18008D01*
X14894Y-17953D01*
X14894Y-17947D01*
X14925Y-17941D01*
X14986Y-17900D01*
X15863Y-17023D01*
X15852Y-17048D01*
X15852Y-17163D01*
X15896Y-17269D01*
X15977Y-17351D01*
X16083Y-17395D01*
X16198Y-17395D01*
X16214Y-17388D01*
X16857Y-18031D01*
X16857Y-18602D01*
X16871Y-18675D01*
X16912Y-18736D01*
X17247Y-19071D01*
X17247Y-19071D01*
X17309Y-19112D01*
X17354Y-19121D01*
X17354Y-19121D01*
G37*
G54D32*
X17354Y-19121D02*
X14127Y-19121D01*
X14127Y-18306D01*
X14090Y-18214D01*
X14019Y-18144D01*
X13927Y-18106D01*
X13828Y-18106D01*
X13399Y-18106D01*
X13337Y-18168D01*
X13337Y-18719D01*
X14065Y-18719D01*
X14127Y-18657D01*
X14127Y-18306D01*
X14127Y-19121D01*
X14127Y-19121D01*
X14127Y-18882D01*
X14065Y-18819D01*
X13337Y-18819D01*
X13337Y-18827D01*
X13237Y-18827D01*
X13237Y-18819D01*
X13229Y-18819D01*
X13229Y-18719D01*
X13237Y-18719D01*
X13237Y-18168D01*
X13174Y-18106D01*
X12768Y-18106D01*
X12768Y-15948D01*
X13174Y-15948D01*
X13237Y-15886D01*
X13237Y-15335D01*
X13229Y-15335D01*
X13229Y-15235D01*
X13237Y-15235D01*
X13237Y-15227D01*
X13337Y-15227D01*
X13337Y-15235D01*
X13345Y-15235D01*
X13345Y-15335D01*
X13337Y-15335D01*
X13337Y-15886D01*
X13399Y-15948D01*
X13563Y-15948D01*
X13495Y-16017D01*
X13451Y-16123D01*
X13451Y-16238D01*
X13495Y-16344D01*
X13576Y-16425D01*
X13682Y-16470D01*
X13797Y-16470D01*
X13891Y-16431D01*
X13953Y-16431D01*
X13902Y-16482D01*
X13864Y-16574D01*
X13864Y-16668D01*
X13926Y-16731D01*
X14379Y-16731D01*
X14379Y-16723D01*
X14479Y-16723D01*
X14479Y-16731D01*
X14931Y-16731D01*
X14994Y-16668D01*
X14994Y-16574D01*
X14956Y-16482D01*
X14894Y-16420D01*
X14894Y-16417D01*
X14894Y-16179D01*
X15044Y-16179D01*
X15107Y-16116D01*
X15107Y-15887D01*
X15080Y-15887D01*
X15107Y-15860D01*
X15107Y-15805D01*
X15107Y-15631D01*
X15107Y-15604D01*
X15107Y-15576D01*
X15107Y-15549D01*
X15107Y-15375D01*
X15107Y-15348D01*
X15107Y-15320D01*
X15107Y-15293D01*
X15107Y-15120D01*
X15107Y-15064D01*
X15080Y-15037D01*
X15107Y-15037D01*
X15107Y-15020D01*
X15207Y-15020D01*
X15207Y-15037D01*
X15215Y-15037D01*
X15215Y-15056D01*
X15207Y-15064D01*
X15207Y-15120D01*
X15207Y-15293D01*
X15207Y-15320D01*
X15207Y-15348D01*
X15207Y-15375D01*
X15207Y-15549D01*
X15207Y-15576D01*
X15207Y-15604D01*
X15207Y-15631D01*
X15207Y-15805D01*
X15207Y-15860D01*
X15234Y-15887D01*
X15207Y-15887D01*
X15207Y-16116D01*
X15269Y-16179D01*
X15289Y-16179D01*
X15210Y-16211D01*
X15129Y-16292D01*
X15085Y-16398D01*
X15084Y-16513D01*
X15128Y-16620D01*
X15210Y-16701D01*
X15316Y-16745D01*
X15328Y-16745D01*
X14990Y-17083D01*
X14952Y-17083D01*
X14956Y-17080D01*
X14994Y-16988D01*
X14994Y-16893D01*
X14931Y-16831D01*
X14479Y-16831D01*
X14479Y-16839D01*
X14379Y-16839D01*
X14379Y-16831D01*
X13926Y-16831D01*
X13864Y-16893D01*
X13864Y-16988D01*
X13902Y-17080D01*
X13964Y-17142D01*
X13964Y-17145D01*
X13964Y-17460D01*
X13986Y-17515D01*
X13990Y-17519D01*
X13987Y-17523D01*
X13964Y-17578D01*
X13964Y-17637D01*
X13964Y-17952D01*
X13986Y-18008D01*
X14029Y-18050D01*
X14084Y-18073D01*
X14143Y-18073D01*
X14773Y-18073D01*
X14828Y-18050D01*
X14871Y-18008D01*
X14894Y-17953D01*
X14894Y-17947D01*
X14925Y-17941D01*
X14986Y-17900D01*
X15863Y-17023D01*
X15852Y-17048D01*
X15852Y-17163D01*
X15896Y-17269D01*
X15977Y-17351D01*
X16083Y-17395D01*
X16198Y-17395D01*
X16214Y-17388D01*
X16857Y-18031D01*
X16857Y-18602D01*
X16871Y-18675D01*
X16912Y-18736D01*
X17247Y-19071D01*
X17247Y-19071D01*
X17309Y-19112D01*
X17354Y-19121D01*
G54D10*
G36*
X17553Y-15613D02*
X17438Y-15613D01*
X17438Y-15567D01*
X17553Y-15567D01*
X17553Y-15613D01*
X17553Y-15613D01*
G37*
G54D32*
X17553Y-15613D02*
X17438Y-15613D01*
X17438Y-15567D01*
X17553Y-15567D01*
X17553Y-15613D01*
G54D10*
G36*
X19168Y-11629D02*
X19160Y-11629D01*
X19160Y-11645D01*
X19060Y-11645D01*
X19060Y-11629D01*
X19053Y-11629D01*
X19053Y-11564D01*
X19168Y-11564D01*
X19168Y-11629D01*
X19168Y-11629D01*
G37*
G54D32*
X19168Y-11629D02*
X19160Y-11629D01*
X19160Y-11645D01*
X19060Y-11645D01*
X19060Y-11629D01*
X19053Y-11629D01*
X19053Y-11564D01*
X19168Y-11564D01*
X19168Y-11629D01*
G54D10*
G36*
X19821Y-15109D02*
X19813Y-15109D01*
X19813Y-15116D01*
X19713Y-15116D01*
X19713Y-15109D01*
X19705Y-15109D01*
X19705Y-15009D01*
X19713Y-15009D01*
X19713Y-15001D01*
X19813Y-15001D01*
X19813Y-15009D01*
X19821Y-15009D01*
X19821Y-15109D01*
X19821Y-15109D01*
G37*
G54D32*
X19821Y-15109D02*
X19813Y-15109D01*
X19813Y-15116D01*
X19713Y-15116D01*
X19713Y-15109D01*
X19705Y-15109D01*
X19705Y-15009D01*
X19713Y-15009D01*
X19713Y-15001D01*
X19813Y-15001D01*
X19813Y-15009D01*
X19821Y-15009D01*
X19821Y-15109D01*
G54D10*
G36*
X20877Y-11629D02*
X20870Y-11629D01*
X20870Y-11645D01*
X20770Y-11645D01*
X20770Y-11629D01*
X20762Y-11629D01*
X20762Y-11564D01*
X20877Y-11564D01*
X20877Y-11629D01*
X20877Y-11629D01*
G37*
G54D32*
X20877Y-11629D02*
X20870Y-11629D01*
X20870Y-11645D01*
X20770Y-11645D01*
X20770Y-11629D01*
X20762Y-11629D01*
X20762Y-11564D01*
X20877Y-11564D01*
X20877Y-11629D01*
G54D10*
G36*
X21490Y-13792D02*
X21460Y-13822D01*
X21418Y-13883D01*
X21410Y-13924D01*
X21397Y-13924D01*
X21141Y-13924D01*
X21086Y-13947D01*
X21044Y-13989D01*
X21021Y-14044D01*
X21021Y-14048D01*
X20978Y-14065D01*
X20896Y-14147D01*
X20852Y-14253D01*
X20852Y-14331D01*
X20849Y-14334D01*
X20849Y-14334D01*
X20405Y-14778D01*
X20387Y-14734D01*
X20344Y-14691D01*
X20289Y-14668D01*
X20234Y-14668D01*
X20240Y-14656D01*
X20240Y-14556D01*
X20240Y-14521D01*
X20177Y-14459D01*
X19912Y-14459D01*
X19912Y-14467D01*
X19812Y-14467D01*
X19812Y-14459D01*
X19804Y-14459D01*
X19804Y-14359D01*
X19812Y-14359D01*
X19812Y-14351D01*
X19912Y-14351D01*
X19912Y-14359D01*
X20177Y-14359D01*
X20240Y-14296D01*
X20240Y-14262D01*
X20240Y-14162D01*
X20201Y-14070D01*
X20131Y-14000D01*
X20112Y-13992D01*
X20118Y-13986D01*
X20149Y-13911D01*
X20214Y-13911D01*
X20320Y-13867D01*
X20402Y-13785D01*
X20446Y-13679D01*
X20446Y-13667D01*
X20515Y-13736D01*
X20515Y-13736D01*
X20576Y-13777D01*
X20637Y-13789D01*
X20649Y-13792D01*
X20649Y-13792D01*
X20649Y-13792D01*
X21490Y-13792D01*
X21490Y-13792D01*
G37*
G54D32*
X21490Y-13792D02*
X21460Y-13822D01*
X21418Y-13883D01*
X21410Y-13924D01*
X21397Y-13924D01*
X21141Y-13924D01*
X21086Y-13947D01*
X21044Y-13989D01*
X21021Y-14044D01*
X21021Y-14048D01*
X20978Y-14065D01*
X20896Y-14147D01*
X20852Y-14253D01*
X20852Y-14331D01*
X20849Y-14334D01*
X20849Y-14334D01*
X20405Y-14778D01*
X20387Y-14734D01*
X20344Y-14691D01*
X20289Y-14668D01*
X20234Y-14668D01*
X20240Y-14656D01*
X20240Y-14556D01*
X20240Y-14521D01*
X20177Y-14459D01*
X19912Y-14459D01*
X19912Y-14467D01*
X19812Y-14467D01*
X19812Y-14459D01*
X19804Y-14459D01*
X19804Y-14359D01*
X19812Y-14359D01*
X19812Y-14351D01*
X19912Y-14351D01*
X19912Y-14359D01*
X20177Y-14359D01*
X20240Y-14296D01*
X20240Y-14262D01*
X20240Y-14162D01*
X20201Y-14070D01*
X20131Y-14000D01*
X20112Y-13992D01*
X20118Y-13986D01*
X20149Y-13911D01*
X20214Y-13911D01*
X20320Y-13867D01*
X20402Y-13785D01*
X20446Y-13679D01*
X20446Y-13667D01*
X20515Y-13736D01*
X20515Y-13736D01*
X20576Y-13777D01*
X20637Y-13789D01*
X20649Y-13792D01*
X20649Y-13792D01*
X20649Y-13792D01*
X21490Y-13792D01*
G54D10*
G36*
X21597Y-11565D02*
X21590Y-11565D01*
X21590Y-11573D01*
X21490Y-11573D01*
X21490Y-11565D01*
X21482Y-11565D01*
X21482Y-11465D01*
X21490Y-11465D01*
X21490Y-11457D01*
X21590Y-11457D01*
X21590Y-11465D01*
X21597Y-11465D01*
X21597Y-11565D01*
X21597Y-11565D01*
G37*
G54D32*
X21597Y-11565D02*
X21590Y-11565D01*
X21590Y-11573D01*
X21490Y-11573D01*
X21490Y-11565D01*
X21482Y-11565D01*
X21482Y-11465D01*
X21490Y-11465D01*
X21490Y-11457D01*
X21590Y-11457D01*
X21590Y-11465D01*
X21597Y-11465D01*
X21597Y-11565D01*
G54D10*
G36*
X21923Y-18254D02*
X21456Y-18254D01*
X21456Y-18254D01*
X21383Y-18269D01*
X21322Y-18310D01*
X21322Y-18310D01*
X21240Y-18392D01*
X17657Y-18392D01*
X17611Y-18346D01*
X17611Y-17755D01*
X17611Y-17755D01*
X17611Y-17755D01*
X17608Y-17741D01*
X17596Y-17683D01*
X17596Y-17683D01*
X17555Y-17621D01*
X17555Y-17621D01*
X16739Y-16805D01*
X16796Y-16805D01*
X16859Y-16742D01*
X16859Y-16408D01*
X16593Y-16408D01*
X16531Y-16470D01*
X16531Y-16505D01*
X16531Y-16597D01*
X16453Y-16519D01*
X16391Y-16478D01*
X16318Y-16463D01*
X15688Y-16463D01*
X15662Y-16468D01*
X15663Y-16399D01*
X15619Y-16293D01*
X15537Y-16211D01*
X15459Y-16179D01*
X15557Y-16179D01*
X15649Y-16140D01*
X15719Y-16070D01*
X15757Y-15978D01*
X15757Y-15950D01*
X15695Y-15887D01*
X15643Y-15887D01*
X15649Y-15885D01*
X15719Y-15814D01*
X15743Y-15756D01*
X15757Y-15742D01*
X15757Y-15722D01*
X15757Y-15722D01*
X15757Y-15718D01*
X15757Y-15714D01*
X15757Y-15714D01*
X15757Y-15694D01*
X15743Y-15680D01*
X15719Y-15622D01*
X15688Y-15590D01*
X15719Y-15558D01*
X15743Y-15500D01*
X15757Y-15486D01*
X15757Y-15466D01*
X15757Y-15466D01*
X15757Y-15462D01*
X15757Y-15458D01*
X15757Y-15458D01*
X15757Y-15438D01*
X15743Y-15424D01*
X15727Y-15384D01*
X15757Y-15384D01*
X15757Y-15370D01*
X15771Y-15390D01*
X16029Y-15649D01*
X16029Y-15726D01*
X16073Y-15832D01*
X16154Y-15914D01*
X16261Y-15958D01*
X16376Y-15958D01*
X16482Y-15914D01*
X16563Y-15833D01*
X16564Y-15832D01*
X16564Y-16032D01*
X16531Y-16111D01*
X16531Y-16210D01*
X16531Y-16245D01*
X16593Y-16308D01*
X16859Y-16308D01*
X16859Y-16300D01*
X16959Y-16300D01*
X16959Y-16308D01*
X16967Y-16308D01*
X16967Y-16408D01*
X16959Y-16408D01*
X16959Y-16742D01*
X17021Y-16805D01*
X17086Y-16805D01*
X17178Y-16767D01*
X17249Y-16696D01*
X17264Y-16659D01*
X17286Y-16682D01*
X17342Y-16705D01*
X17401Y-16705D01*
X17467Y-16705D01*
X17467Y-17244D01*
X17481Y-17316D01*
X17523Y-17378D01*
X17645Y-17500D01*
X17645Y-17657D01*
X17668Y-17712D01*
X17710Y-17755D01*
X17765Y-17777D01*
X17824Y-17777D01*
X18218Y-17777D01*
X18273Y-17755D01*
X18274Y-17754D01*
X18274Y-17913D01*
X18289Y-17986D01*
X18330Y-18047D01*
X18527Y-18244D01*
X18527Y-18244D01*
X18588Y-18285D01*
X18661Y-18300D01*
X18661Y-18300D01*
X18661Y-18300D01*
X18799Y-18300D01*
X18917Y-18300D01*
X21259Y-18300D01*
X21332Y-18285D01*
X21394Y-18244D01*
X21586Y-18051D01*
X21605Y-18096D01*
X21686Y-18177D01*
X21792Y-18221D01*
X21880Y-18222D01*
X21893Y-18234D01*
X21893Y-18234D01*
X21923Y-18254D01*
X21923Y-18254D01*
G37*
G54D32*
X21923Y-18254D02*
X21456Y-18254D01*
X21456Y-18254D01*
X21383Y-18269D01*
X21322Y-18310D01*
X21322Y-18310D01*
X21240Y-18392D01*
X17657Y-18392D01*
X17611Y-18346D01*
X17611Y-17755D01*
X17611Y-17755D01*
X17611Y-17755D01*
X17608Y-17741D01*
X17596Y-17683D01*
X17596Y-17683D01*
X17555Y-17621D01*
X17555Y-17621D01*
X16739Y-16805D01*
X16796Y-16805D01*
X16859Y-16742D01*
X16859Y-16408D01*
X16593Y-16408D01*
X16531Y-16470D01*
X16531Y-16505D01*
X16531Y-16597D01*
X16453Y-16519D01*
X16391Y-16478D01*
X16318Y-16463D01*
X15688Y-16463D01*
X15662Y-16468D01*
X15663Y-16399D01*
X15619Y-16293D01*
X15537Y-16211D01*
X15459Y-16179D01*
X15557Y-16179D01*
X15649Y-16140D01*
X15719Y-16070D01*
X15757Y-15978D01*
X15757Y-15950D01*
X15695Y-15887D01*
X15643Y-15887D01*
X15649Y-15885D01*
X15719Y-15814D01*
X15743Y-15756D01*
X15757Y-15742D01*
X15757Y-15722D01*
X15757Y-15722D01*
X15757Y-15718D01*
X15757Y-15714D01*
X15757Y-15714D01*
X15757Y-15694D01*
X15743Y-15680D01*
X15719Y-15622D01*
X15688Y-15590D01*
X15719Y-15558D01*
X15743Y-15500D01*
X15757Y-15486D01*
X15757Y-15466D01*
X15757Y-15466D01*
X15757Y-15462D01*
X15757Y-15458D01*
X15757Y-15458D01*
X15757Y-15438D01*
X15743Y-15424D01*
X15727Y-15384D01*
X15757Y-15384D01*
X15757Y-15370D01*
X15771Y-15390D01*
X16029Y-15649D01*
X16029Y-15726D01*
X16073Y-15832D01*
X16154Y-15914D01*
X16261Y-15958D01*
X16376Y-15958D01*
X16482Y-15914D01*
X16563Y-15833D01*
X16564Y-15832D01*
X16564Y-16032D01*
X16531Y-16111D01*
X16531Y-16210D01*
X16531Y-16245D01*
X16593Y-16308D01*
X16859Y-16308D01*
X16859Y-16300D01*
X16959Y-16300D01*
X16959Y-16308D01*
X16967Y-16308D01*
X16967Y-16408D01*
X16959Y-16408D01*
X16959Y-16742D01*
X17021Y-16805D01*
X17086Y-16805D01*
X17178Y-16767D01*
X17249Y-16696D01*
X17264Y-16659D01*
X17286Y-16682D01*
X17342Y-16705D01*
X17401Y-16705D01*
X17467Y-16705D01*
X17467Y-17244D01*
X17481Y-17316D01*
X17523Y-17378D01*
X17645Y-17500D01*
X17645Y-17657D01*
X17668Y-17712D01*
X17710Y-17755D01*
X17765Y-17777D01*
X17824Y-17777D01*
X18218Y-17777D01*
X18273Y-17755D01*
X18274Y-17754D01*
X18274Y-17913D01*
X18289Y-17986D01*
X18330Y-18047D01*
X18527Y-18244D01*
X18527Y-18244D01*
X18588Y-18285D01*
X18661Y-18300D01*
X18661Y-18300D01*
X18661Y-18300D01*
X18799Y-18300D01*
X18917Y-18300D01*
X21259Y-18300D01*
X21332Y-18285D01*
X21394Y-18244D01*
X21586Y-18051D01*
X21605Y-18096D01*
X21686Y-18177D01*
X21792Y-18221D01*
X21880Y-18222D01*
X21893Y-18234D01*
X21893Y-18234D01*
X21923Y-18254D01*
G54D10*
G36*
X22115Y-10776D02*
X22055Y-10776D01*
X22026Y-10747D01*
X21945Y-10693D01*
X21849Y-10674D01*
X21826Y-10674D01*
X21821Y-10669D01*
X21766Y-10646D01*
X21707Y-10646D01*
X21564Y-10646D01*
X21519Y-10616D01*
X21435Y-10600D01*
X21116Y-10600D01*
X21086Y-10587D01*
X21026Y-10587D01*
X20554Y-10587D01*
X20498Y-10610D01*
X20456Y-10652D01*
X20456Y-10652D01*
X20385Y-10623D01*
X20285Y-10623D01*
X20077Y-10623D01*
X20015Y-10685D01*
X20015Y-11153D01*
X20023Y-11153D01*
X20023Y-11253D01*
X20015Y-11253D01*
X20015Y-11722D01*
X20077Y-11784D01*
X20285Y-11784D01*
X20360Y-11784D01*
X20371Y-11811D01*
X20378Y-11818D01*
X20348Y-11831D01*
X20305Y-11873D01*
X20283Y-11928D01*
X20283Y-11988D01*
X20283Y-12138D01*
X20242Y-12097D01*
X20136Y-12053D01*
X20061Y-12053D01*
X20061Y-11938D01*
X20038Y-11883D01*
X19996Y-11841D01*
X19941Y-11818D01*
X19881Y-11818D01*
X19625Y-11818D01*
X19570Y-11841D01*
X19528Y-11883D01*
X19505Y-11938D01*
X19505Y-11998D01*
X19505Y-12391D01*
X19528Y-12447D01*
X19570Y-12489D01*
X19625Y-12512D01*
X19685Y-12512D01*
X19839Y-12512D01*
X19914Y-12587D01*
X20021Y-12631D01*
X20135Y-12631D01*
X20242Y-12587D01*
X20283Y-12546D01*
X20283Y-12578D01*
X20283Y-12834D01*
X20305Y-12889D01*
X20347Y-12932D01*
X20403Y-12955D01*
X20462Y-12955D01*
X20632Y-12955D01*
X20581Y-13005D01*
X20546Y-13090D01*
X20498Y-13042D01*
X20392Y-12998D01*
X20277Y-12998D01*
X20171Y-13042D01*
X20156Y-13056D01*
X20156Y-12994D01*
X20118Y-12903D01*
X20048Y-12832D01*
X19956Y-12794D01*
X19719Y-12794D01*
X19656Y-12857D01*
X19656Y-13394D01*
X19664Y-13394D01*
X19664Y-13494D01*
X19656Y-13494D01*
X19656Y-13502D01*
X19556Y-13502D01*
X19556Y-13494D01*
X19119Y-13494D01*
X19056Y-13557D01*
X19056Y-13795D01*
X19056Y-13894D01*
X19094Y-13986D01*
X19165Y-14056D01*
X19178Y-14062D01*
X19113Y-14062D01*
X19058Y-14085D01*
X19042Y-14101D01*
X19024Y-14058D01*
X18982Y-14016D01*
X18927Y-13993D01*
X18920Y-13993D01*
X18904Y-13911D01*
X18856Y-13840D01*
X18856Y-13840D01*
X18756Y-13740D01*
X18756Y-13395D01*
X18859Y-13438D01*
X18974Y-13438D01*
X19080Y-13394D01*
X19099Y-13375D01*
X19119Y-13394D01*
X19556Y-13394D01*
X19556Y-12857D01*
X19494Y-12794D01*
X19257Y-12794D01*
X19165Y-12832D01*
X19094Y-12903D01*
X19090Y-12913D01*
X19081Y-12904D01*
X18975Y-12860D01*
X18860Y-12860D01*
X18753Y-12904D01*
X18716Y-12942D01*
X18691Y-12917D01*
X18636Y-12894D01*
X18576Y-12894D01*
X18498Y-12894D01*
X18498Y-12582D01*
X18479Y-12487D01*
X18479Y-12487D01*
X18424Y-12405D01*
X18395Y-12376D01*
X18395Y-12376D01*
X18431Y-12361D01*
X18473Y-12319D01*
X18496Y-12264D01*
X18496Y-12204D01*
X18496Y-12188D01*
X18496Y-12188D01*
X18497Y-12183D01*
X18497Y-12183D01*
X18497Y-12165D01*
X18496Y-12159D01*
X18496Y-12066D01*
X18473Y-12011D01*
X18431Y-11969D01*
X18376Y-11946D01*
X18316Y-11946D01*
X18282Y-11946D01*
X18277Y-11945D01*
X18272Y-11946D01*
X18202Y-11946D01*
X18202Y-11868D01*
X18213Y-11873D01*
X18312Y-11873D01*
X18347Y-11873D01*
X18410Y-11810D01*
X18410Y-11545D01*
X18402Y-11545D01*
X18402Y-11445D01*
X18410Y-11445D01*
X18410Y-11437D01*
X18510Y-11437D01*
X18510Y-11445D01*
X18517Y-11445D01*
X18517Y-11545D01*
X18510Y-11545D01*
X18510Y-11810D01*
X18572Y-11873D01*
X18607Y-11873D01*
X18706Y-11873D01*
X18718Y-11868D01*
X18732Y-11882D01*
X18824Y-11920D01*
X18922Y-11920D01*
X18914Y-11938D01*
X18914Y-11949D01*
X18907Y-11946D01*
X18848Y-11946D01*
X18710Y-11946D01*
X18655Y-11969D01*
X18613Y-12011D01*
X18590Y-12066D01*
X18590Y-12126D01*
X18590Y-12263D01*
X18612Y-12319D01*
X18655Y-12361D01*
X18710Y-12384D01*
X18769Y-12384D01*
X18907Y-12384D01*
X18914Y-12381D01*
X18914Y-12391D01*
X18937Y-12447D01*
X18979Y-12489D01*
X19034Y-12512D01*
X19094Y-12512D01*
X19350Y-12512D01*
X19405Y-12489D01*
X19447Y-12447D01*
X19470Y-12392D01*
X19470Y-12332D01*
X19470Y-11938D01*
X19453Y-11896D01*
X19488Y-11882D01*
X19559Y-11811D01*
X19570Y-11784D01*
X19644Y-11784D01*
X19852Y-11784D01*
X19915Y-11722D01*
X19915Y-11253D01*
X19907Y-11253D01*
X19907Y-11153D01*
X19915Y-11153D01*
X19915Y-10685D01*
X19852Y-10623D01*
X19644Y-10623D01*
X19545Y-10623D01*
X19474Y-10652D01*
X19474Y-10652D01*
X19432Y-10610D01*
X19377Y-10587D01*
X19317Y-10587D01*
X18845Y-10587D01*
X18814Y-10600D01*
X18544Y-10600D01*
X18460Y-10616D01*
X18445Y-10626D01*
X18233Y-10626D01*
X18178Y-10649D01*
X18159Y-10668D01*
X18133Y-10673D01*
X18052Y-10727D01*
X18052Y-10727D01*
X17775Y-11004D01*
X17721Y-11085D01*
X17702Y-11181D01*
X17702Y-11872D01*
X17616Y-11837D01*
X17501Y-11836D01*
X17395Y-11880D01*
X17314Y-11962D01*
X17270Y-12068D01*
X17270Y-12183D01*
X17304Y-12267D01*
X17100Y-12267D01*
X17045Y-12290D01*
X17002Y-12332D01*
X16979Y-12387D01*
X16979Y-12447D01*
X16979Y-12691D01*
X16993Y-12723D01*
X16968Y-12723D01*
X16968Y-12723D01*
X16895Y-12737D01*
X16834Y-12779D01*
X16834Y-12779D01*
X16828Y-12784D01*
X16828Y-12741D01*
X16822Y-12726D01*
X16828Y-12710D01*
X16828Y-12367D01*
X16790Y-12275D01*
X16720Y-12205D01*
X16628Y-12167D01*
X16529Y-12167D01*
X16451Y-12167D01*
X16388Y-12229D01*
X16388Y-12489D01*
X16766Y-12489D01*
X16828Y-12426D01*
X16828Y-12367D01*
X16828Y-12710D01*
X16828Y-12651D01*
X16766Y-12589D01*
X16730Y-12589D01*
X16720Y-12579D01*
X16628Y-12541D01*
X16529Y-12541D01*
X16451Y-12541D01*
X16403Y-12589D01*
X16388Y-12589D01*
X16388Y-12603D01*
X16388Y-12848D01*
X16388Y-12863D01*
X16396Y-12863D01*
X16396Y-12963D01*
X16388Y-12963D01*
X16388Y-12971D01*
X16288Y-12971D01*
X16288Y-12963D01*
X16280Y-12963D01*
X16280Y-12863D01*
X16288Y-12863D01*
X16288Y-12848D01*
X16288Y-12603D01*
X16288Y-12589D01*
X16280Y-12589D01*
X16280Y-12489D01*
X16288Y-12489D01*
X16288Y-12229D01*
X16226Y-12167D01*
X16147Y-12167D01*
X16048Y-12167D01*
X15956Y-12205D01*
X15900Y-12261D01*
X15896Y-12259D01*
X15796Y-12259D01*
X15762Y-12259D01*
X15699Y-12322D01*
X15699Y-12587D01*
X15707Y-12587D01*
X15707Y-12687D01*
X15699Y-12687D01*
X15699Y-12695D01*
X15599Y-12695D01*
X15599Y-12687D01*
X15591Y-12687D01*
X15591Y-12587D01*
X15599Y-12587D01*
X15599Y-12322D01*
X15537Y-12259D01*
X15502Y-12259D01*
X15402Y-12259D01*
X15316Y-12295D01*
X15294Y-12264D01*
X15294Y-12264D01*
X15107Y-12077D01*
X15026Y-12022D01*
X14934Y-12004D01*
X14934Y-11556D01*
X14890Y-11450D01*
X14809Y-11369D01*
X14703Y-11325D01*
X14588Y-11325D01*
X14482Y-11369D01*
X14400Y-11450D01*
X14356Y-11556D01*
X14356Y-11671D01*
X14400Y-11777D01*
X14481Y-11859D01*
X14587Y-11903D01*
X14702Y-11903D01*
X14809Y-11859D01*
X14890Y-11778D01*
X14934Y-11671D01*
X14934Y-11556D01*
X14934Y-12004D01*
X14931Y-12003D01*
X14863Y-12003D01*
X14829Y-11969D01*
X14774Y-11946D01*
X14714Y-11946D01*
X14127Y-11946D01*
X14127Y-11712D01*
X14127Y-10787D01*
X14090Y-10695D01*
X14019Y-10624D01*
X13927Y-10586D01*
X13828Y-10586D01*
X13399Y-10586D01*
X13337Y-10649D01*
X13337Y-11200D01*
X14065Y-11200D01*
X14127Y-11137D01*
X14127Y-10787D01*
X14127Y-11712D01*
X14127Y-11362D01*
X14065Y-11300D01*
X13337Y-11300D01*
X13337Y-11850D01*
X13399Y-11913D01*
X13828Y-11913D01*
X13927Y-11913D01*
X14019Y-11875D01*
X14090Y-11804D01*
X14127Y-11712D01*
X14127Y-11946D01*
X14084Y-11946D01*
X14029Y-11969D01*
X13994Y-12003D01*
X13927Y-12003D01*
X13831Y-12022D01*
X13799Y-12044D01*
X13750Y-12077D01*
X13750Y-12077D01*
X13713Y-12113D01*
X13655Y-12113D01*
X13535Y-12163D01*
X13443Y-12255D01*
X13393Y-12375D01*
X13393Y-12505D01*
X13442Y-12626D01*
X13534Y-12718D01*
X13655Y-12768D01*
X13785Y-12768D01*
X13905Y-12718D01*
X13927Y-12696D01*
X14379Y-12696D01*
X14379Y-12688D01*
X14479Y-12688D01*
X14479Y-12696D01*
X14487Y-12696D01*
X14487Y-12796D01*
X14479Y-12796D01*
X14479Y-13091D01*
X14541Y-13153D01*
X14694Y-13153D01*
X14794Y-13153D01*
X14868Y-13122D01*
X14868Y-13385D01*
X14887Y-13481D01*
X14941Y-13562D01*
X15077Y-13698D01*
X14832Y-13698D01*
X14777Y-13721D01*
X14735Y-13763D01*
X14712Y-13818D01*
X14712Y-13878D01*
X14712Y-14054D01*
X14576Y-14190D01*
X14379Y-14190D01*
X14379Y-13091D01*
X14379Y-12796D01*
X13926Y-12796D01*
X13864Y-12858D01*
X13864Y-12953D01*
X13902Y-13044D01*
X13954Y-13097D01*
X13927Y-13086D01*
X13828Y-13086D01*
X13399Y-13086D01*
X13337Y-13149D01*
X13337Y-13700D01*
X14065Y-13700D01*
X14127Y-13637D01*
X14127Y-13287D01*
X14090Y-13195D01*
X14037Y-13142D01*
X14064Y-13153D01*
X14163Y-13153D01*
X14316Y-13153D01*
X14379Y-13091D01*
X14379Y-14190D01*
X14222Y-14190D01*
X14167Y-14213D01*
X14124Y-14255D01*
X14102Y-14309D01*
X14092Y-14299D01*
X14127Y-14212D01*
X14127Y-13862D01*
X14065Y-13800D01*
X13337Y-13800D01*
X13337Y-13807D01*
X13237Y-13807D01*
X13237Y-13800D01*
X13229Y-13800D01*
X13229Y-13700D01*
X13237Y-13700D01*
X13237Y-13149D01*
X13174Y-13086D01*
X12768Y-13086D01*
X12768Y-11913D01*
X13174Y-11913D01*
X13237Y-11850D01*
X13237Y-11300D01*
X13229Y-11300D01*
X13229Y-11200D01*
X13237Y-11200D01*
X13237Y-10649D01*
X13174Y-10586D01*
X12768Y-10586D01*
X12768Y-10405D01*
X22068Y-10405D01*
X22053Y-10442D01*
X22053Y-10541D01*
X22053Y-10714D01*
X22115Y-10776D01*
X22115Y-10776D01*
G37*
G54D32*
X22115Y-10776D02*
X22055Y-10776D01*
X22026Y-10747D01*
X21945Y-10693D01*
X21849Y-10674D01*
X21826Y-10674D01*
X21821Y-10669D01*
X21766Y-10646D01*
X21707Y-10646D01*
X21564Y-10646D01*
X21519Y-10616D01*
X21435Y-10600D01*
X21116Y-10600D01*
X21086Y-10587D01*
X21026Y-10587D01*
X20554Y-10587D01*
X20498Y-10610D01*
X20456Y-10652D01*
X20456Y-10652D01*
X20385Y-10623D01*
X20285Y-10623D01*
X20077Y-10623D01*
X20015Y-10685D01*
X20015Y-11153D01*
X20023Y-11153D01*
X20023Y-11253D01*
X20015Y-11253D01*
X20015Y-11722D01*
X20077Y-11784D01*
X20285Y-11784D01*
X20360Y-11784D01*
X20371Y-11811D01*
X20378Y-11818D01*
X20348Y-11831D01*
X20305Y-11873D01*
X20283Y-11928D01*
X20283Y-11988D01*
X20283Y-12138D01*
X20242Y-12097D01*
X20136Y-12053D01*
X20061Y-12053D01*
X20061Y-11938D01*
X20038Y-11883D01*
X19996Y-11841D01*
X19941Y-11818D01*
X19881Y-11818D01*
X19625Y-11818D01*
X19570Y-11841D01*
X19528Y-11883D01*
X19505Y-11938D01*
X19505Y-11998D01*
X19505Y-12391D01*
X19528Y-12447D01*
X19570Y-12489D01*
X19625Y-12512D01*
X19685Y-12512D01*
X19839Y-12512D01*
X19914Y-12587D01*
X20021Y-12631D01*
X20135Y-12631D01*
X20242Y-12587D01*
X20283Y-12546D01*
X20283Y-12578D01*
X20283Y-12834D01*
X20305Y-12889D01*
X20347Y-12932D01*
X20403Y-12955D01*
X20462Y-12955D01*
X20632Y-12955D01*
X20581Y-13005D01*
X20546Y-13090D01*
X20498Y-13042D01*
X20392Y-12998D01*
X20277Y-12998D01*
X20171Y-13042D01*
X20156Y-13056D01*
X20156Y-12994D01*
X20118Y-12903D01*
X20048Y-12832D01*
X19956Y-12794D01*
X19719Y-12794D01*
X19656Y-12857D01*
X19656Y-13394D01*
X19664Y-13394D01*
X19664Y-13494D01*
X19656Y-13494D01*
X19656Y-13502D01*
X19556Y-13502D01*
X19556Y-13494D01*
X19119Y-13494D01*
X19056Y-13557D01*
X19056Y-13795D01*
X19056Y-13894D01*
X19094Y-13986D01*
X19165Y-14056D01*
X19178Y-14062D01*
X19113Y-14062D01*
X19058Y-14085D01*
X19042Y-14101D01*
X19024Y-14058D01*
X18982Y-14016D01*
X18927Y-13993D01*
X18920Y-13993D01*
X18904Y-13911D01*
X18856Y-13840D01*
X18856Y-13840D01*
X18756Y-13740D01*
X18756Y-13395D01*
X18859Y-13438D01*
X18974Y-13438D01*
X19080Y-13394D01*
X19099Y-13375D01*
X19119Y-13394D01*
X19556Y-13394D01*
X19556Y-12857D01*
X19494Y-12794D01*
X19257Y-12794D01*
X19165Y-12832D01*
X19094Y-12903D01*
X19090Y-12913D01*
X19081Y-12904D01*
X18975Y-12860D01*
X18860Y-12860D01*
X18753Y-12904D01*
X18716Y-12942D01*
X18691Y-12917D01*
X18636Y-12894D01*
X18576Y-12894D01*
X18498Y-12894D01*
X18498Y-12582D01*
X18479Y-12487D01*
X18479Y-12487D01*
X18424Y-12405D01*
X18395Y-12376D01*
X18395Y-12376D01*
X18431Y-12361D01*
X18473Y-12319D01*
X18496Y-12264D01*
X18496Y-12204D01*
X18496Y-12188D01*
X18496Y-12188D01*
X18497Y-12183D01*
X18497Y-12183D01*
X18497Y-12165D01*
X18496Y-12159D01*
X18496Y-12066D01*
X18473Y-12011D01*
X18431Y-11969D01*
X18376Y-11946D01*
X18316Y-11946D01*
X18282Y-11946D01*
X18277Y-11945D01*
X18272Y-11946D01*
X18202Y-11946D01*
X18202Y-11868D01*
X18213Y-11873D01*
X18312Y-11873D01*
X18347Y-11873D01*
X18410Y-11810D01*
X18410Y-11545D01*
X18402Y-11545D01*
X18402Y-11445D01*
X18410Y-11445D01*
X18410Y-11437D01*
X18510Y-11437D01*
X18510Y-11445D01*
X18517Y-11445D01*
X18517Y-11545D01*
X18510Y-11545D01*
X18510Y-11810D01*
X18572Y-11873D01*
X18607Y-11873D01*
X18706Y-11873D01*
X18718Y-11868D01*
X18732Y-11882D01*
X18824Y-11920D01*
X18922Y-11920D01*
X18914Y-11938D01*
X18914Y-11949D01*
X18907Y-11946D01*
X18848Y-11946D01*
X18710Y-11946D01*
X18655Y-11969D01*
X18613Y-12011D01*
X18590Y-12066D01*
X18590Y-12126D01*
X18590Y-12263D01*
X18612Y-12319D01*
X18655Y-12361D01*
X18710Y-12384D01*
X18769Y-12384D01*
X18907Y-12384D01*
X18914Y-12381D01*
X18914Y-12391D01*
X18937Y-12447D01*
X18979Y-12489D01*
X19034Y-12512D01*
X19094Y-12512D01*
X19350Y-12512D01*
X19405Y-12489D01*
X19447Y-12447D01*
X19470Y-12392D01*
X19470Y-12332D01*
X19470Y-11938D01*
X19453Y-11896D01*
X19488Y-11882D01*
X19559Y-11811D01*
X19570Y-11784D01*
X19644Y-11784D01*
X19852Y-11784D01*
X19915Y-11722D01*
X19915Y-11253D01*
X19907Y-11253D01*
X19907Y-11153D01*
X19915Y-11153D01*
X19915Y-10685D01*
X19852Y-10623D01*
X19644Y-10623D01*
X19545Y-10623D01*
X19474Y-10652D01*
X19474Y-10652D01*
X19432Y-10610D01*
X19377Y-10587D01*
X19317Y-10587D01*
X18845Y-10587D01*
X18814Y-10600D01*
X18544Y-10600D01*
X18460Y-10616D01*
X18445Y-10626D01*
X18233Y-10626D01*
X18178Y-10649D01*
X18159Y-10668D01*
X18133Y-10673D01*
X18052Y-10727D01*
X18052Y-10727D01*
X17775Y-11004D01*
X17721Y-11085D01*
X17702Y-11181D01*
X17702Y-11872D01*
X17616Y-11837D01*
X17501Y-11836D01*
X17395Y-11880D01*
X17314Y-11962D01*
X17270Y-12068D01*
X17270Y-12183D01*
X17304Y-12267D01*
X17100Y-12267D01*
X17045Y-12290D01*
X17002Y-12332D01*
X16979Y-12387D01*
X16979Y-12447D01*
X16979Y-12691D01*
X16993Y-12723D01*
X16968Y-12723D01*
X16968Y-12723D01*
X16895Y-12737D01*
X16834Y-12779D01*
X16834Y-12779D01*
X16828Y-12784D01*
X16828Y-12741D01*
X16822Y-12726D01*
X16828Y-12710D01*
X16828Y-12367D01*
X16790Y-12275D01*
X16720Y-12205D01*
X16628Y-12167D01*
X16529Y-12167D01*
X16451Y-12167D01*
X16388Y-12229D01*
X16388Y-12489D01*
X16766Y-12489D01*
X16828Y-12426D01*
X16828Y-12367D01*
X16828Y-12710D01*
X16828Y-12651D01*
X16766Y-12589D01*
X16730Y-12589D01*
X16720Y-12579D01*
X16628Y-12541D01*
X16529Y-12541D01*
X16451Y-12541D01*
X16403Y-12589D01*
X16388Y-12589D01*
X16388Y-12603D01*
X16388Y-12848D01*
X16388Y-12863D01*
X16396Y-12863D01*
X16396Y-12963D01*
X16388Y-12963D01*
X16388Y-12971D01*
X16288Y-12971D01*
X16288Y-12963D01*
X16280Y-12963D01*
X16280Y-12863D01*
X16288Y-12863D01*
X16288Y-12848D01*
X16288Y-12603D01*
X16288Y-12589D01*
X16280Y-12589D01*
X16280Y-12489D01*
X16288Y-12489D01*
X16288Y-12229D01*
X16226Y-12167D01*
X16147Y-12167D01*
X16048Y-12167D01*
X15956Y-12205D01*
X15900Y-12261D01*
X15896Y-12259D01*
X15796Y-12259D01*
X15762Y-12259D01*
X15699Y-12322D01*
X15699Y-12587D01*
X15707Y-12587D01*
X15707Y-12687D01*
X15699Y-12687D01*
X15699Y-12695D01*
X15599Y-12695D01*
X15599Y-12687D01*
X15591Y-12687D01*
X15591Y-12587D01*
X15599Y-12587D01*
X15599Y-12322D01*
X15537Y-12259D01*
X15502Y-12259D01*
X15402Y-12259D01*
X15316Y-12295D01*
X15294Y-12264D01*
X15294Y-12264D01*
X15107Y-12077D01*
X15026Y-12022D01*
X14934Y-12004D01*
X14934Y-11556D01*
X14890Y-11450D01*
X14809Y-11369D01*
X14703Y-11325D01*
X14588Y-11325D01*
X14482Y-11369D01*
X14400Y-11450D01*
X14356Y-11556D01*
X14356Y-11671D01*
X14400Y-11777D01*
X14481Y-11859D01*
X14587Y-11903D01*
X14702Y-11903D01*
X14809Y-11859D01*
X14890Y-11778D01*
X14934Y-11671D01*
X14934Y-11556D01*
X14934Y-12004D01*
X14931Y-12003D01*
X14863Y-12003D01*
X14829Y-11969D01*
X14774Y-11946D01*
X14714Y-11946D01*
X14127Y-11946D01*
X14127Y-11712D01*
X14127Y-10787D01*
X14090Y-10695D01*
X14019Y-10624D01*
X13927Y-10586D01*
X13828Y-10586D01*
X13399Y-10586D01*
X13337Y-10649D01*
X13337Y-11200D01*
X14065Y-11200D01*
X14127Y-11137D01*
X14127Y-10787D01*
X14127Y-11712D01*
X14127Y-11362D01*
X14065Y-11300D01*
X13337Y-11300D01*
X13337Y-11850D01*
X13399Y-11913D01*
X13828Y-11913D01*
X13927Y-11913D01*
X14019Y-11875D01*
X14090Y-11804D01*
X14127Y-11712D01*
X14127Y-11946D01*
X14084Y-11946D01*
X14029Y-11969D01*
X13994Y-12003D01*
X13927Y-12003D01*
X13831Y-12022D01*
X13799Y-12044D01*
X13750Y-12077D01*
X13750Y-12077D01*
X13713Y-12113D01*
X13655Y-12113D01*
X13535Y-12163D01*
X13443Y-12255D01*
X13393Y-12375D01*
X13393Y-12505D01*
X13442Y-12626D01*
X13534Y-12718D01*
X13655Y-12768D01*
X13785Y-12768D01*
X13905Y-12718D01*
X13927Y-12696D01*
X14379Y-12696D01*
X14379Y-12688D01*
X14479Y-12688D01*
X14479Y-12696D01*
X14487Y-12696D01*
X14487Y-12796D01*
X14479Y-12796D01*
X14479Y-13091D01*
X14541Y-13153D01*
X14694Y-13153D01*
X14794Y-13153D01*
X14868Y-13122D01*
X14868Y-13385D01*
X14887Y-13481D01*
X14941Y-13562D01*
X15077Y-13698D01*
X14832Y-13698D01*
X14777Y-13721D01*
X14735Y-13763D01*
X14712Y-13818D01*
X14712Y-13878D01*
X14712Y-14054D01*
X14576Y-14190D01*
X14379Y-14190D01*
X14379Y-13091D01*
X14379Y-12796D01*
X13926Y-12796D01*
X13864Y-12858D01*
X13864Y-12953D01*
X13902Y-13044D01*
X13954Y-13097D01*
X13927Y-13086D01*
X13828Y-13086D01*
X13399Y-13086D01*
X13337Y-13149D01*
X13337Y-13700D01*
X14065Y-13700D01*
X14127Y-13637D01*
X14127Y-13287D01*
X14090Y-13195D01*
X14037Y-13142D01*
X14064Y-13153D01*
X14163Y-13153D01*
X14316Y-13153D01*
X14379Y-13091D01*
X14379Y-14190D01*
X14222Y-14190D01*
X14167Y-14213D01*
X14124Y-14255D01*
X14102Y-14309D01*
X14092Y-14299D01*
X14127Y-14212D01*
X14127Y-13862D01*
X14065Y-13800D01*
X13337Y-13800D01*
X13337Y-13807D01*
X13237Y-13807D01*
X13237Y-13800D01*
X13229Y-13800D01*
X13229Y-13700D01*
X13237Y-13700D01*
X13237Y-13149D01*
X13174Y-13086D01*
X12768Y-13086D01*
X12768Y-11913D01*
X13174Y-11913D01*
X13237Y-11850D01*
X13237Y-11300D01*
X13229Y-11300D01*
X13229Y-11200D01*
X13237Y-11200D01*
X13237Y-10649D01*
X13174Y-10586D01*
X12768Y-10586D01*
X12768Y-10405D01*
X22068Y-10405D01*
X22053Y-10442D01*
X22053Y-10541D01*
X22053Y-10714D01*
X22115Y-10776D01*
G54D10*
G36*
X22115Y-14715D02*
X22053Y-14777D01*
X22053Y-14908D01*
X21580Y-14908D01*
X21728Y-14760D01*
X21728Y-14760D01*
X21728Y-14760D01*
X21756Y-14718D01*
X21777Y-14718D01*
X21839Y-14656D01*
X21839Y-14321D01*
X21831Y-14321D01*
X21831Y-14221D01*
X21839Y-14221D01*
X21839Y-14213D01*
X21939Y-14213D01*
X21939Y-14221D01*
X21947Y-14221D01*
X21947Y-14321D01*
X21939Y-14321D01*
X21939Y-14656D01*
X22002Y-14718D01*
X22067Y-14718D01*
X22074Y-14715D01*
X22115Y-14715D01*
X22115Y-14715D01*
G37*
G54D32*
X22115Y-14715D02*
X22053Y-14777D01*
X22053Y-14908D01*
X21580Y-14908D01*
X21728Y-14760D01*
X21728Y-14760D01*
X21728Y-14760D01*
X21756Y-14718D01*
X21777Y-14718D01*
X21839Y-14656D01*
X21839Y-14321D01*
X21831Y-14321D01*
X21831Y-14221D01*
X21839Y-14221D01*
X21839Y-14213D01*
X21939Y-14213D01*
X21939Y-14221D01*
X21947Y-14221D01*
X21947Y-14321D01*
X21939Y-14321D01*
X21939Y-14656D01*
X22002Y-14718D01*
X22067Y-14718D01*
X22074Y-14715D01*
X22115Y-14715D01*
G54D10*
G36*
X22813Y-16575D02*
X22805Y-16575D01*
X22805Y-16583D01*
X22705Y-16583D01*
X22705Y-16575D01*
X22273Y-16575D01*
X22210Y-16638D01*
X22210Y-16699D01*
X21936Y-16699D01*
X21898Y-16608D01*
X21817Y-16526D01*
X21711Y-16482D01*
X21596Y-16482D01*
X21490Y-16526D01*
X21408Y-16607D01*
X21364Y-16713D01*
X21364Y-16758D01*
X21340Y-16758D01*
X21234Y-16802D01*
X21152Y-16883D01*
X21108Y-16989D01*
X21108Y-17104D01*
X21120Y-17133D01*
X21023Y-17133D01*
X20968Y-17156D01*
X20945Y-17178D01*
X20930Y-17141D01*
X20859Y-17071D01*
X20768Y-17033D01*
X20703Y-17033D01*
X20640Y-17095D01*
X20640Y-17430D01*
X20648Y-17430D01*
X20648Y-17530D01*
X20640Y-17530D01*
X20640Y-17538D01*
X20540Y-17538D01*
X20540Y-17530D01*
X20532Y-17530D01*
X20532Y-17430D01*
X20540Y-17430D01*
X20540Y-17095D01*
X20478Y-17033D01*
X20413Y-17033D01*
X20321Y-17071D01*
X20250Y-17141D01*
X20212Y-17233D01*
X20212Y-17250D01*
X20210Y-17248D01*
X20118Y-17210D01*
X20053Y-17210D01*
X19990Y-17273D01*
X19990Y-17607D01*
X19998Y-17607D01*
X19998Y-17707D01*
X19990Y-17707D01*
X19990Y-17715D01*
X19890Y-17715D01*
X19890Y-17707D01*
X19883Y-17707D01*
X19883Y-17607D01*
X19890Y-17607D01*
X19890Y-17273D01*
X19828Y-17210D01*
X19763Y-17210D01*
X19671Y-17248D01*
X19601Y-17318D01*
X19585Y-17355D01*
X19563Y-17333D01*
X19508Y-17310D01*
X19448Y-17310D01*
X19305Y-17310D01*
X19305Y-17297D01*
X19242Y-17235D01*
X18908Y-17235D01*
X18908Y-17242D01*
X18808Y-17242D01*
X18808Y-17235D01*
X18800Y-17235D01*
X18800Y-17135D01*
X18808Y-17135D01*
X18808Y-17127D01*
X18908Y-17127D01*
X18908Y-17135D01*
X19242Y-17135D01*
X19274Y-17103D01*
X19310Y-17118D01*
X19370Y-17118D01*
X19626Y-17118D01*
X19681Y-17095D01*
X19723Y-17053D01*
X19746Y-16998D01*
X19746Y-16938D01*
X19746Y-16545D01*
X19723Y-16489D01*
X19681Y-16447D01*
X19628Y-16425D01*
X19638Y-16415D01*
X19661Y-16360D01*
X19661Y-16301D01*
X19661Y-15820D01*
X19639Y-15765D01*
X19596Y-15723D01*
X19541Y-15700D01*
X19482Y-15700D01*
X19305Y-15700D01*
X19305Y-15683D01*
X19242Y-15620D01*
X18908Y-15620D01*
X18908Y-15628D01*
X18808Y-15628D01*
X18808Y-15620D01*
X18800Y-15620D01*
X18800Y-15520D01*
X18808Y-15520D01*
X18808Y-15255D01*
X18792Y-15240D01*
X18792Y-15198D01*
X18768Y-15140D01*
X18927Y-15140D01*
X18982Y-15117D01*
X19024Y-15075D01*
X19047Y-15020D01*
X19047Y-14960D01*
X19047Y-14916D01*
X19117Y-14846D01*
X19117Y-14848D01*
X19117Y-15198D01*
X19105Y-15192D01*
X19005Y-15192D01*
X18970Y-15192D01*
X18908Y-15255D01*
X18908Y-15520D01*
X19242Y-15520D01*
X19305Y-15458D01*
X19305Y-15449D01*
X19438Y-15449D01*
X19500Y-15511D01*
X19592Y-15549D01*
X19614Y-15549D01*
X19612Y-15552D01*
X19612Y-15667D01*
X19656Y-15773D01*
X19737Y-15855D01*
X19843Y-15899D01*
X19865Y-15899D01*
X19865Y-16360D01*
X19888Y-16415D01*
X19898Y-16425D01*
X19846Y-16447D01*
X19804Y-16489D01*
X19781Y-16544D01*
X19781Y-16604D01*
X19781Y-16998D01*
X19803Y-17053D01*
X19846Y-17095D01*
X19901Y-17118D01*
X19960Y-17118D01*
X20216Y-17118D01*
X20271Y-17095D01*
X20314Y-17053D01*
X20336Y-16998D01*
X20337Y-16938D01*
X20337Y-16696D01*
X20337Y-16696D01*
X20337Y-16692D01*
X20337Y-16692D01*
X20337Y-16460D01*
X20344Y-16457D01*
X20386Y-16415D01*
X20409Y-16360D01*
X20409Y-16301D01*
X20409Y-15998D01*
X20454Y-16017D01*
X20569Y-16017D01*
X20675Y-15973D01*
X20730Y-15918D01*
X20905Y-15918D01*
X20948Y-15961D01*
X20948Y-15961D01*
X21008Y-16001D01*
X20982Y-15990D01*
X20867Y-15990D01*
X20761Y-16034D01*
X20680Y-16115D01*
X20636Y-16221D01*
X20636Y-16336D01*
X20680Y-16443D01*
X20761Y-16524D01*
X20867Y-16568D01*
X20982Y-16568D01*
X21088Y-16524D01*
X21170Y-16443D01*
X21214Y-16337D01*
X21214Y-16222D01*
X21170Y-16116D01*
X21089Y-16034D01*
X21012Y-16002D01*
X21082Y-16016D01*
X21496Y-16016D01*
X21568Y-16002D01*
X21630Y-15961D01*
X21830Y-15760D01*
X22123Y-15760D01*
X22123Y-16321D01*
X22210Y-16321D01*
X22210Y-16348D01*
X22210Y-16413D01*
X22273Y-16475D01*
X22705Y-16475D01*
X22705Y-16467D01*
X22805Y-16467D01*
X22805Y-16475D01*
X22813Y-16475D01*
X22813Y-16575D01*
X22813Y-16575D01*
G37*
G54D32*
X22813Y-16575D02*
X22805Y-16575D01*
X22805Y-16583D01*
X22705Y-16583D01*
X22705Y-16575D01*
X22273Y-16575D01*
X22210Y-16638D01*
X22210Y-16699D01*
X21936Y-16699D01*
X21898Y-16608D01*
X21817Y-16526D01*
X21711Y-16482D01*
X21596Y-16482D01*
X21490Y-16526D01*
X21408Y-16607D01*
X21364Y-16713D01*
X21364Y-16758D01*
X21340Y-16758D01*
X21234Y-16802D01*
X21152Y-16883D01*
X21108Y-16989D01*
X21108Y-17104D01*
X21120Y-17133D01*
X21023Y-17133D01*
X20968Y-17156D01*
X20945Y-17178D01*
X20930Y-17141D01*
X20859Y-17071D01*
X20768Y-17033D01*
X20703Y-17033D01*
X20640Y-17095D01*
X20640Y-17430D01*
X20648Y-17430D01*
X20648Y-17530D01*
X20640Y-17530D01*
X20640Y-17538D01*
X20540Y-17538D01*
X20540Y-17530D01*
X20532Y-17530D01*
X20532Y-17430D01*
X20540Y-17430D01*
X20540Y-17095D01*
X20478Y-17033D01*
X20413Y-17033D01*
X20321Y-17071D01*
X20250Y-17141D01*
X20212Y-17233D01*
X20212Y-17250D01*
X20210Y-17248D01*
X20118Y-17210D01*
X20053Y-17210D01*
X19990Y-17273D01*
X19990Y-17607D01*
X19998Y-17607D01*
X19998Y-17707D01*
X19990Y-17707D01*
X19990Y-17715D01*
X19890Y-17715D01*
X19890Y-17707D01*
X19883Y-17707D01*
X19883Y-17607D01*
X19890Y-17607D01*
X19890Y-17273D01*
X19828Y-17210D01*
X19763Y-17210D01*
X19671Y-17248D01*
X19601Y-17318D01*
X19585Y-17355D01*
X19563Y-17333D01*
X19508Y-17310D01*
X19448Y-17310D01*
X19305Y-17310D01*
X19305Y-17297D01*
X19242Y-17235D01*
X18908Y-17235D01*
X18908Y-17242D01*
X18808Y-17242D01*
X18808Y-17235D01*
X18800Y-17235D01*
X18800Y-17135D01*
X18808Y-17135D01*
X18808Y-17127D01*
X18908Y-17127D01*
X18908Y-17135D01*
X19242Y-17135D01*
X19274Y-17103D01*
X19310Y-17118D01*
X19370Y-17118D01*
X19626Y-17118D01*
X19681Y-17095D01*
X19723Y-17053D01*
X19746Y-16998D01*
X19746Y-16938D01*
X19746Y-16545D01*
X19723Y-16489D01*
X19681Y-16447D01*
X19628Y-16425D01*
X19638Y-16415D01*
X19661Y-16360D01*
X19661Y-16301D01*
X19661Y-15820D01*
X19639Y-15765D01*
X19596Y-15723D01*
X19541Y-15700D01*
X19482Y-15700D01*
X19305Y-15700D01*
X19305Y-15683D01*
X19242Y-15620D01*
X18908Y-15620D01*
X18908Y-15628D01*
X18808Y-15628D01*
X18808Y-15620D01*
X18800Y-15620D01*
X18800Y-15520D01*
X18808Y-15520D01*
X18808Y-15255D01*
X18792Y-15240D01*
X18792Y-15198D01*
X18768Y-15140D01*
X18927Y-15140D01*
X18982Y-15117D01*
X19024Y-15075D01*
X19047Y-15020D01*
X19047Y-14960D01*
X19047Y-14916D01*
X19117Y-14846D01*
X19117Y-14848D01*
X19117Y-15198D01*
X19105Y-15192D01*
X19005Y-15192D01*
X18970Y-15192D01*
X18908Y-15255D01*
X18908Y-15520D01*
X19242Y-15520D01*
X19305Y-15458D01*
X19305Y-15449D01*
X19438Y-15449D01*
X19500Y-15511D01*
X19592Y-15549D01*
X19614Y-15549D01*
X19612Y-15552D01*
X19612Y-15667D01*
X19656Y-15773D01*
X19737Y-15855D01*
X19843Y-15899D01*
X19865Y-15899D01*
X19865Y-16360D01*
X19888Y-16415D01*
X19898Y-16425D01*
X19846Y-16447D01*
X19804Y-16489D01*
X19781Y-16544D01*
X19781Y-16604D01*
X19781Y-16998D01*
X19803Y-17053D01*
X19846Y-17095D01*
X19901Y-17118D01*
X19960Y-17118D01*
X20216Y-17118D01*
X20271Y-17095D01*
X20314Y-17053D01*
X20336Y-16998D01*
X20337Y-16938D01*
X20337Y-16696D01*
X20337Y-16696D01*
X20337Y-16692D01*
X20337Y-16692D01*
X20337Y-16460D01*
X20344Y-16457D01*
X20386Y-16415D01*
X20409Y-16360D01*
X20409Y-16301D01*
X20409Y-15998D01*
X20454Y-16017D01*
X20569Y-16017D01*
X20675Y-15973D01*
X20730Y-15918D01*
X20905Y-15918D01*
X20948Y-15961D01*
X20948Y-15961D01*
X21008Y-16001D01*
X20982Y-15990D01*
X20867Y-15990D01*
X20761Y-16034D01*
X20680Y-16115D01*
X20636Y-16221D01*
X20636Y-16336D01*
X20680Y-16443D01*
X20761Y-16524D01*
X20867Y-16568D01*
X20982Y-16568D01*
X21088Y-16524D01*
X21170Y-16443D01*
X21214Y-16337D01*
X21214Y-16222D01*
X21170Y-16116D01*
X21089Y-16034D01*
X21012Y-16002D01*
X21082Y-16016D01*
X21496Y-16016D01*
X21568Y-16002D01*
X21630Y-15961D01*
X21830Y-15760D01*
X22123Y-15760D01*
X22123Y-16321D01*
X22210Y-16321D01*
X22210Y-16348D01*
X22210Y-16413D01*
X22273Y-16475D01*
X22705Y-16475D01*
X22705Y-16467D01*
X22805Y-16467D01*
X22805Y-16475D01*
X22813Y-16475D01*
X22813Y-16575D01*
G54D10*
G36*
X22967Y-13032D02*
X22961Y-13028D01*
X22888Y-13013D01*
X22150Y-13013D01*
X21983Y-13013D01*
X21863Y-12893D01*
X21863Y-12761D01*
X21879Y-12768D01*
X21939Y-12768D01*
X22254Y-12768D01*
X22309Y-12745D01*
X22351Y-12703D01*
X22374Y-12648D01*
X22374Y-12588D01*
X22374Y-12461D01*
X22392Y-12505D01*
X22473Y-12587D01*
X22580Y-12631D01*
X22695Y-12631D01*
X22801Y-12587D01*
X22882Y-12506D01*
X22926Y-12400D01*
X22926Y-12399D01*
X22959Y-12412D01*
X22959Y-12992D01*
X22967Y-13032D01*
X22967Y-13032D01*
G37*
G54D32*
X22967Y-13032D02*
X22961Y-13028D01*
X22888Y-13013D01*
X22150Y-13013D01*
X21983Y-13013D01*
X21863Y-12893D01*
X21863Y-12761D01*
X21879Y-12768D01*
X21939Y-12768D01*
X22254Y-12768D01*
X22309Y-12745D01*
X22351Y-12703D01*
X22374Y-12648D01*
X22374Y-12588D01*
X22374Y-12461D01*
X22392Y-12505D01*
X22473Y-12587D01*
X22580Y-12631D01*
X22695Y-12631D01*
X22801Y-12587D01*
X22882Y-12506D01*
X22926Y-12400D01*
X22926Y-12399D01*
X22959Y-12412D01*
X22959Y-12992D01*
X22967Y-13032D01*
G54D10*
G36*
X23601Y-14908D02*
X23005Y-14908D01*
X23005Y-14777D01*
X22943Y-14715D01*
X22579Y-14715D01*
X22579Y-14723D01*
X22479Y-14723D01*
X22479Y-14715D01*
X22471Y-14715D01*
X22471Y-14615D01*
X22479Y-14615D01*
X22479Y-14607D01*
X22579Y-14607D01*
X22579Y-14615D01*
X22943Y-14615D01*
X23005Y-14552D01*
X23005Y-14419D01*
X23005Y-14320D01*
X23004Y-14316D01*
X23586Y-14898D01*
X23586Y-14898D01*
X23601Y-14908D01*
X23601Y-14908D01*
G37*
G54D32*
X23601Y-14908D02*
X23005Y-14908D01*
X23005Y-14777D01*
X22943Y-14715D01*
X22579Y-14715D01*
X22579Y-14723D01*
X22479Y-14723D01*
X22479Y-14715D01*
X22471Y-14715D01*
X22471Y-14615D01*
X22479Y-14615D01*
X22479Y-14607D01*
X22579Y-14607D01*
X22579Y-14615D01*
X22943Y-14615D01*
X23005Y-14552D01*
X23005Y-14419D01*
X23005Y-14320D01*
X23004Y-14316D01*
X23586Y-14898D01*
X23586Y-14898D01*
X23601Y-14908D01*
G54D10*
G36*
X24541Y-13077D02*
X24330Y-13077D01*
X23818Y-13077D01*
X23772Y-13031D01*
X23772Y-12498D01*
X23808Y-12513D01*
X23903Y-12513D01*
X23965Y-12451D01*
X23965Y-12018D01*
X23957Y-12018D01*
X23957Y-11918D01*
X23965Y-11918D01*
X23965Y-11910D01*
X24065Y-11910D01*
X24065Y-11918D01*
X24073Y-11918D01*
X24073Y-12018D01*
X24065Y-12018D01*
X24065Y-12451D01*
X24128Y-12513D01*
X24222Y-12513D01*
X24258Y-12498D01*
X24258Y-12716D01*
X24273Y-12789D01*
X24314Y-12850D01*
X24541Y-13077D01*
X24541Y-13077D01*
G37*
G54D32*
X24541Y-13077D02*
X24330Y-13077D01*
X23818Y-13077D01*
X23772Y-13031D01*
X23772Y-12498D01*
X23808Y-12513D01*
X23903Y-12513D01*
X23965Y-12451D01*
X23965Y-12018D01*
X23957Y-12018D01*
X23957Y-11918D01*
X23965Y-11918D01*
X23965Y-11910D01*
X24065Y-11910D01*
X24065Y-11918D01*
X24073Y-11918D01*
X24073Y-12018D01*
X24065Y-12018D01*
X24065Y-12451D01*
X24128Y-12513D01*
X24222Y-12513D01*
X24258Y-12498D01*
X24258Y-12716D01*
X24273Y-12789D01*
X24314Y-12850D01*
X24541Y-13077D01*
G54D10*
G36*
X24932Y-11086D02*
X24915Y-11093D01*
X24833Y-11174D01*
X24797Y-11263D01*
X24763Y-11256D01*
X23085Y-11256D01*
X23104Y-11211D01*
X23104Y-11111D01*
X23104Y-10939D01*
X23041Y-10876D01*
X22628Y-10876D01*
X22628Y-11348D01*
X22665Y-11385D01*
X22630Y-11439D01*
X22614Y-11515D01*
X22614Y-11811D01*
X22614Y-12053D01*
X22580Y-12053D01*
X22474Y-12097D01*
X22392Y-12178D01*
X22375Y-12220D01*
X22375Y-12167D01*
X22331Y-12060D01*
X22295Y-12025D01*
X22344Y-11976D01*
X22394Y-11856D01*
X22394Y-11726D01*
X22344Y-11606D01*
X22316Y-11578D01*
X22316Y-11417D01*
X22316Y-11411D01*
X22466Y-11411D01*
X22528Y-11348D01*
X22528Y-10876D01*
X22520Y-10876D01*
X22520Y-10776D01*
X22528Y-10776D01*
X22528Y-10768D01*
X22628Y-10768D01*
X22628Y-10776D01*
X23041Y-10776D01*
X23104Y-10714D01*
X23104Y-10541D01*
X23104Y-10442D01*
X23089Y-10405D01*
X24264Y-10405D01*
X24203Y-10466D01*
X24159Y-10572D01*
X24159Y-10687D01*
X24203Y-10793D01*
X24284Y-10874D01*
X24391Y-10918D01*
X24506Y-10918D01*
X24612Y-10875D01*
X24666Y-10820D01*
X24932Y-11086D01*
X24932Y-11086D01*
G37*
G54D32*
X24932Y-11086D02*
X24915Y-11093D01*
X24833Y-11174D01*
X24797Y-11263D01*
X24763Y-11256D01*
X23085Y-11256D01*
X23104Y-11211D01*
X23104Y-11111D01*
X23104Y-10939D01*
X23041Y-10876D01*
X22628Y-10876D01*
X22628Y-11348D01*
X22665Y-11385D01*
X22630Y-11439D01*
X22614Y-11515D01*
X22614Y-11811D01*
X22614Y-12053D01*
X22580Y-12053D01*
X22474Y-12097D01*
X22392Y-12178D01*
X22375Y-12220D01*
X22375Y-12167D01*
X22331Y-12060D01*
X22295Y-12025D01*
X22344Y-11976D01*
X22394Y-11856D01*
X22394Y-11726D01*
X22344Y-11606D01*
X22316Y-11578D01*
X22316Y-11417D01*
X22316Y-11411D01*
X22466Y-11411D01*
X22528Y-11348D01*
X22528Y-10876D01*
X22520Y-10876D01*
X22520Y-10776D01*
X22528Y-10776D01*
X22528Y-10768D01*
X22628Y-10768D01*
X22628Y-10776D01*
X23041Y-10776D01*
X23104Y-10714D01*
X23104Y-10541D01*
X23104Y-10442D01*
X23089Y-10405D01*
X24264Y-10405D01*
X24203Y-10466D01*
X24159Y-10572D01*
X24159Y-10687D01*
X24203Y-10793D01*
X24284Y-10874D01*
X24391Y-10918D01*
X24506Y-10918D01*
X24612Y-10875D01*
X24666Y-10820D01*
X24932Y-11086D01*
G54D10*
G36*
X25116Y-18351D02*
X25109Y-18351D01*
X25109Y-18352D01*
X25060Y-18352D01*
X25031Y-18364D01*
X25009Y-18364D01*
X25009Y-18351D01*
X25001Y-18351D01*
X25001Y-18289D01*
X25116Y-18289D01*
X25116Y-18351D01*
X25116Y-18351D01*
G37*
G54D32*
X25116Y-18351D02*
X25109Y-18351D01*
X25109Y-18352D01*
X25060Y-18352D01*
X25031Y-18364D01*
X25009Y-18364D01*
X25009Y-18351D01*
X25001Y-18351D01*
X25001Y-18289D01*
X25116Y-18289D01*
X25116Y-18351D01*
G54D10*
G36*
X26269Y-17805D02*
X26262Y-17812D01*
X26249Y-17812D01*
X26024Y-17812D01*
X26024Y-17777D01*
X26206Y-17777D01*
X26206Y-17805D01*
X26269Y-17805D01*
X26269Y-17805D01*
G37*
G54D32*
X26269Y-17805D02*
X26262Y-17812D01*
X26249Y-17812D01*
X26024Y-17812D01*
X26024Y-17777D01*
X26206Y-17777D01*
X26206Y-17805D01*
X26269Y-17805D01*
G54D10*
G36*
X26508Y-19121D02*
X23863Y-19121D01*
X24628Y-18357D01*
X24668Y-18357D01*
X24612Y-18413D01*
X24612Y-18445D01*
X24650Y-18537D01*
X24720Y-18607D01*
X24812Y-18645D01*
X24829Y-18645D01*
X24829Y-18698D01*
X24872Y-18805D01*
X24954Y-18886D01*
X25060Y-18930D01*
X25138Y-18930D01*
X25259Y-19051D01*
X25259Y-19051D01*
X25320Y-19092D01*
X25393Y-19107D01*
X26240Y-19107D01*
X26312Y-19092D01*
X26374Y-19051D01*
X26443Y-18982D01*
X26443Y-18994D01*
X26487Y-19100D01*
X26508Y-19121D01*
X26508Y-19121D01*
G37*
G54D32*
X26508Y-19121D02*
X23863Y-19121D01*
X24628Y-18357D01*
X24668Y-18357D01*
X24612Y-18413D01*
X24612Y-18445D01*
X24650Y-18537D01*
X24720Y-18607D01*
X24812Y-18645D01*
X24829Y-18645D01*
X24829Y-18698D01*
X24872Y-18805D01*
X24954Y-18886D01*
X25060Y-18930D01*
X25138Y-18930D01*
X25259Y-19051D01*
X25259Y-19051D01*
X25320Y-19092D01*
X25393Y-19107D01*
X26240Y-19107D01*
X26312Y-19092D01*
X26374Y-19051D01*
X26443Y-18982D01*
X26443Y-18994D01*
X26487Y-19100D01*
X26508Y-19121D01*
G54D10*
G36*
X26817Y-15966D02*
X26817Y-16010D01*
X26753Y-16010D01*
X26647Y-16054D01*
X26638Y-16063D01*
X26604Y-16049D01*
X26372Y-16049D01*
X26309Y-16111D01*
X26309Y-16475D01*
X26317Y-16475D01*
X26317Y-16575D01*
X26309Y-16575D01*
X26309Y-16583D01*
X26209Y-16583D01*
X26209Y-16575D01*
X26201Y-16575D01*
X26201Y-16475D01*
X26209Y-16475D01*
X26209Y-16111D01*
X26147Y-16049D01*
X25915Y-16049D01*
X25823Y-16087D01*
X25752Y-16157D01*
X25743Y-16180D01*
X25734Y-16172D01*
X25679Y-16149D01*
X25619Y-16149D01*
X25521Y-16149D01*
X25488Y-16099D01*
X25154Y-15765D01*
X25092Y-15724D01*
X25020Y-15710D01*
X24998Y-15710D01*
X24943Y-15655D01*
X24837Y-15611D01*
X24788Y-15611D01*
X24796Y-15570D01*
X24796Y-15570D01*
X24796Y-15570D01*
X24796Y-15336D01*
X24851Y-15282D01*
X24895Y-15175D01*
X24895Y-15060D01*
X24851Y-14954D01*
X24798Y-14901D01*
X24851Y-14848D01*
X24875Y-14789D01*
X24996Y-14910D01*
X24966Y-14981D01*
X24966Y-15096D01*
X25010Y-15202D01*
X25091Y-15284D01*
X25198Y-15328D01*
X25313Y-15328D01*
X25325Y-15323D01*
X25365Y-15419D01*
X25446Y-15500D01*
X25552Y-15544D01*
X25667Y-15544D01*
X25738Y-15515D01*
X25739Y-15517D01*
X25820Y-15599D01*
X25926Y-15643D01*
X26041Y-15643D01*
X26147Y-15599D01*
X26229Y-15518D01*
X26264Y-15433D01*
X26448Y-15617D01*
X26443Y-15631D01*
X26443Y-15746D01*
X26487Y-15852D01*
X26568Y-15933D01*
X26674Y-15977D01*
X26789Y-15978D01*
X26817Y-15966D01*
X26817Y-15966D01*
G37*
G54D32*
X26817Y-15966D02*
X26817Y-16010D01*
X26753Y-16010D01*
X26647Y-16054D01*
X26638Y-16063D01*
X26604Y-16049D01*
X26372Y-16049D01*
X26309Y-16111D01*
X26309Y-16475D01*
X26317Y-16475D01*
X26317Y-16575D01*
X26309Y-16575D01*
X26309Y-16583D01*
X26209Y-16583D01*
X26209Y-16575D01*
X26201Y-16575D01*
X26201Y-16475D01*
X26209Y-16475D01*
X26209Y-16111D01*
X26147Y-16049D01*
X25915Y-16049D01*
X25823Y-16087D01*
X25752Y-16157D01*
X25743Y-16180D01*
X25734Y-16172D01*
X25679Y-16149D01*
X25619Y-16149D01*
X25521Y-16149D01*
X25488Y-16099D01*
X25154Y-15765D01*
X25092Y-15724D01*
X25020Y-15710D01*
X24998Y-15710D01*
X24943Y-15655D01*
X24837Y-15611D01*
X24788Y-15611D01*
X24796Y-15570D01*
X24796Y-15570D01*
X24796Y-15570D01*
X24796Y-15336D01*
X24851Y-15282D01*
X24895Y-15175D01*
X24895Y-15060D01*
X24851Y-14954D01*
X24798Y-14901D01*
X24851Y-14848D01*
X24875Y-14789D01*
X24996Y-14910D01*
X24966Y-14981D01*
X24966Y-15096D01*
X25010Y-15202D01*
X25091Y-15284D01*
X25198Y-15328D01*
X25313Y-15328D01*
X25325Y-15323D01*
X25365Y-15419D01*
X25446Y-15500D01*
X25552Y-15544D01*
X25667Y-15544D01*
X25738Y-15515D01*
X25739Y-15517D01*
X25820Y-15599D01*
X25926Y-15643D01*
X26041Y-15643D01*
X26147Y-15599D01*
X26229Y-15518D01*
X26264Y-15433D01*
X26448Y-15617D01*
X26443Y-15631D01*
X26443Y-15746D01*
X26487Y-15852D01*
X26568Y-15933D01*
X26674Y-15977D01*
X26789Y-15978D01*
X26817Y-15966D01*
G54D10*
G36*
X29691Y-14750D02*
X29627Y-14750D01*
X29521Y-14794D01*
X29500Y-14815D01*
X29500Y-14802D01*
X29500Y-14547D01*
X29477Y-14491D01*
X29435Y-14449D01*
X29385Y-14429D01*
X29433Y-14409D01*
X29442Y-14418D01*
X29548Y-14462D01*
X29663Y-14462D01*
X29691Y-14450D01*
X29691Y-14750D01*
X29691Y-14750D01*
G37*
G54D32*
X29691Y-14750D02*
X29627Y-14750D01*
X29521Y-14794D01*
X29500Y-14815D01*
X29500Y-14802D01*
X29500Y-14547D01*
X29477Y-14491D01*
X29435Y-14449D01*
X29385Y-14429D01*
X29433Y-14409D01*
X29442Y-14418D01*
X29548Y-14462D01*
X29663Y-14462D01*
X29691Y-14450D01*
X29691Y-14750D01*
G54D10*
G36*
X32113Y-18106D02*
X31706Y-18106D01*
X31644Y-18168D01*
X31644Y-18719D01*
X31652Y-18719D01*
X31652Y-18819D01*
X31644Y-18819D01*
X31644Y-18827D01*
X31544Y-18827D01*
X31544Y-18819D01*
X31544Y-18719D01*
X31544Y-18168D01*
X31481Y-18106D01*
X31053Y-18106D01*
X30953Y-18106D01*
X30862Y-18144D01*
X30791Y-18214D01*
X30753Y-18306D01*
X30753Y-18657D01*
X30816Y-18719D01*
X31544Y-18719D01*
X31544Y-18819D01*
X30816Y-18819D01*
X30753Y-18882D01*
X30753Y-19121D01*
X26956Y-19121D01*
X26977Y-19100D01*
X27021Y-18994D01*
X27021Y-18879D01*
X26977Y-18773D01*
X26896Y-18692D01*
X26790Y-18648D01*
X26704Y-18648D01*
X26705Y-18641D01*
X26705Y-18624D01*
X26880Y-18624D01*
X26935Y-18601D01*
X26977Y-18559D01*
X27000Y-18504D01*
X27000Y-18444D01*
X27000Y-18188D01*
X26977Y-18133D01*
X26955Y-18111D01*
X26992Y-18095D01*
X27062Y-18025D01*
X27100Y-17933D01*
X27100Y-17868D01*
X27037Y-17805D01*
X26703Y-17805D01*
X26703Y-17813D01*
X26603Y-17813D01*
X26603Y-17805D01*
X26595Y-17805D01*
X26595Y-17705D01*
X26603Y-17705D01*
X26603Y-17698D01*
X26703Y-17698D01*
X26703Y-17705D01*
X27037Y-17705D01*
X27100Y-17643D01*
X27100Y-17630D01*
X27263Y-17630D01*
X27306Y-17673D01*
X27306Y-17673D01*
X27368Y-17714D01*
X27413Y-17723D01*
X27473Y-17784D01*
X27580Y-17828D01*
X27596Y-17828D01*
X27585Y-17855D01*
X27584Y-17970D01*
X27628Y-18076D01*
X27710Y-18158D01*
X27816Y-18202D01*
X27931Y-18202D01*
X28037Y-18158D01*
X28118Y-18077D01*
X28162Y-17971D01*
X28163Y-17856D01*
X28119Y-17749D01*
X28079Y-17710D01*
X28108Y-17710D01*
X28214Y-17666D01*
X28296Y-17585D01*
X28340Y-17478D01*
X28340Y-17364D01*
X28336Y-17354D01*
X28367Y-17375D01*
X28440Y-17390D01*
X29080Y-17390D01*
X29152Y-17375D01*
X29214Y-17334D01*
X29624Y-16924D01*
X29636Y-16954D01*
X29717Y-17036D01*
X29824Y-17080D01*
X29887Y-17080D01*
X29887Y-17161D01*
X29950Y-17223D01*
X30402Y-17223D01*
X30402Y-17215D01*
X30502Y-17215D01*
X30502Y-17223D01*
X30955Y-17223D01*
X31017Y-17161D01*
X31017Y-17066D01*
X30979Y-16974D01*
X30917Y-16912D01*
X30917Y-16909D01*
X30917Y-16594D01*
X30894Y-16539D01*
X30891Y-16535D01*
X30894Y-16531D01*
X30917Y-16476D01*
X30917Y-16444D01*
X30997Y-16524D01*
X31091Y-16563D01*
X31187Y-16658D01*
X31187Y-17376D01*
X31048Y-17515D01*
X31003Y-17515D01*
X31017Y-17480D01*
X31017Y-17386D01*
X30955Y-17323D01*
X30502Y-17323D01*
X30502Y-17331D01*
X30402Y-17331D01*
X30402Y-17323D01*
X29950Y-17323D01*
X29887Y-17386D01*
X29887Y-17480D01*
X29925Y-17572D01*
X29987Y-17634D01*
X29987Y-17637D01*
X29987Y-17952D01*
X30010Y-18008D01*
X30052Y-18050D01*
X30107Y-18073D01*
X30167Y-18073D01*
X30797Y-18073D01*
X30852Y-18050D01*
X30887Y-18015D01*
X31151Y-18015D01*
X31247Y-17996D01*
X31328Y-17942D01*
X31613Y-17657D01*
X31613Y-17657D01*
X31613Y-17657D01*
X31667Y-17575D01*
X31667Y-17575D01*
X31683Y-17499D01*
X31687Y-17480D01*
X31687Y-17480D01*
X31687Y-17480D01*
X31687Y-16555D01*
X31667Y-16459D01*
X31667Y-16459D01*
X31646Y-16426D01*
X31613Y-16378D01*
X31613Y-16378D01*
X31544Y-16309D01*
X31544Y-15886D01*
X31544Y-15335D01*
X31544Y-15235D01*
X31544Y-14843D01*
X31544Y-14684D01*
X31544Y-14292D01*
X31544Y-14192D01*
X31544Y-13641D01*
X31544Y-11358D01*
X31544Y-10807D01*
X30816Y-10807D01*
X30753Y-10870D01*
X30753Y-11220D01*
X30791Y-11312D01*
X30862Y-11383D01*
X30953Y-11421D01*
X31053Y-11421D01*
X31481Y-11421D01*
X31544Y-11358D01*
X31544Y-13641D01*
X31481Y-13578D01*
X31053Y-13578D01*
X30953Y-13578D01*
X30862Y-13616D01*
X30791Y-13687D01*
X30753Y-13779D01*
X30753Y-14129D01*
X30816Y-14192D01*
X31544Y-14192D01*
X31544Y-14292D01*
X30816Y-14292D01*
X30753Y-14354D01*
X30753Y-14705D01*
X30778Y-14763D01*
X30753Y-14822D01*
X30753Y-15172D01*
X30816Y-15235D01*
X31544Y-15235D01*
X31544Y-15335D01*
X30816Y-15335D01*
X30753Y-15397D01*
X30753Y-15748D01*
X30791Y-15840D01*
X30862Y-15910D01*
X30953Y-15948D01*
X31053Y-15948D01*
X31481Y-15948D01*
X31544Y-15886D01*
X31544Y-16309D01*
X31445Y-16209D01*
X31406Y-16116D01*
X31325Y-16034D01*
X31219Y-15990D01*
X31104Y-15990D01*
X30997Y-16034D01*
X30917Y-16114D01*
X30917Y-16102D01*
X30894Y-16047D01*
X30852Y-16004D01*
X30797Y-15981D01*
X30738Y-15981D01*
X30108Y-15981D01*
X30052Y-16004D01*
X30010Y-16046D01*
X29988Y-16099D01*
X29976Y-16102D01*
X29917Y-16113D01*
X29856Y-16155D01*
X29856Y-16155D01*
X29740Y-16270D01*
X29733Y-16253D01*
X29652Y-16172D01*
X29545Y-16128D01*
X29521Y-16128D01*
X29521Y-16084D01*
X29477Y-15978D01*
X29396Y-15896D01*
X29290Y-15852D01*
X29211Y-15852D01*
X29150Y-15790D01*
X29088Y-15749D01*
X29015Y-15735D01*
X28939Y-15735D01*
X28939Y-15698D01*
X28916Y-15643D01*
X28903Y-15629D01*
X28936Y-15596D01*
X28945Y-15573D01*
X28986Y-15573D01*
X29259Y-15573D01*
X29265Y-15579D01*
X29371Y-15623D01*
X29486Y-15623D01*
X29592Y-15579D01*
X29655Y-15517D01*
X29632Y-15572D01*
X29632Y-15687D01*
X29676Y-15793D01*
X29757Y-15874D01*
X29863Y-15918D01*
X29978Y-15918D01*
X30084Y-15875D01*
X30166Y-15793D01*
X30210Y-15687D01*
X30210Y-15589D01*
X30331Y-15468D01*
X30331Y-15468D01*
X30331Y-15468D01*
X30468Y-15331D01*
X30468Y-15331D01*
X30468Y-15331D01*
X30510Y-15269D01*
X30524Y-15196D01*
X30524Y-15196D01*
X30524Y-15196D01*
X30524Y-13956D01*
X30524Y-13956D01*
X30524Y-13956D01*
X30510Y-13883D01*
X30468Y-13822D01*
X30468Y-13822D01*
X30331Y-13684D01*
X30331Y-13684D01*
X30192Y-13545D01*
X30797Y-13545D01*
X30852Y-13522D01*
X30857Y-13517D01*
X31009Y-13517D01*
X31103Y-13556D01*
X31218Y-13556D01*
X31324Y-13512D01*
X31406Y-13431D01*
X31450Y-13325D01*
X31450Y-13210D01*
X31406Y-13104D01*
X31325Y-13022D01*
X31219Y-12978D01*
X31104Y-12978D01*
X31009Y-13017D01*
X30991Y-13017D01*
X31017Y-12953D01*
X31017Y-12858D01*
X30955Y-12796D01*
X30502Y-12796D01*
X30502Y-12803D01*
X30402Y-12803D01*
X30402Y-12796D01*
X30394Y-12796D01*
X30394Y-12696D01*
X30402Y-12696D01*
X30402Y-12688D01*
X30502Y-12688D01*
X30502Y-12696D01*
X30955Y-12696D01*
X31017Y-12633D01*
X31017Y-12539D01*
X30979Y-12447D01*
X30917Y-12385D01*
X30917Y-12381D01*
X30917Y-12066D01*
X30894Y-12011D01*
X30891Y-12007D01*
X30894Y-12004D01*
X30915Y-11954D01*
X30958Y-11996D01*
X31064Y-12040D01*
X31179Y-12040D01*
X31285Y-11997D01*
X31366Y-11915D01*
X31410Y-11809D01*
X31411Y-11694D01*
X31367Y-11588D01*
X31285Y-11507D01*
X31179Y-11463D01*
X31064Y-11462D01*
X30958Y-11506D01*
X30909Y-11555D01*
X30894Y-11519D01*
X30852Y-11477D01*
X30797Y-11454D01*
X30738Y-11454D01*
X30108Y-11454D01*
X30052Y-11477D01*
X30010Y-11519D01*
X29987Y-11574D01*
X29987Y-11633D01*
X29590Y-12031D01*
X29548Y-12092D01*
X29534Y-12165D01*
X29534Y-13396D01*
X29521Y-13387D01*
X29490Y-13381D01*
X29477Y-13350D01*
X29435Y-13307D01*
X29380Y-13285D01*
X29320Y-13285D01*
X28926Y-13285D01*
X28871Y-13307D01*
X28829Y-13349D01*
X28806Y-13405D01*
X28806Y-13464D01*
X28806Y-13720D01*
X28829Y-13775D01*
X28871Y-13818D01*
X28926Y-13840D01*
X28986Y-13840D01*
X29380Y-13840D01*
X29435Y-13818D01*
X29435Y-13818D01*
X29515Y-13898D01*
X29458Y-13921D01*
X29435Y-13898D01*
X29380Y-13875D01*
X29320Y-13875D01*
X28926Y-13875D01*
X28922Y-13877D01*
X28894Y-13849D01*
X28839Y-13826D01*
X28779Y-13826D01*
X28523Y-13826D01*
X28468Y-13849D01*
X28445Y-13871D01*
X28430Y-13834D01*
X28359Y-13764D01*
X28268Y-13726D01*
X28203Y-13726D01*
X28140Y-13788D01*
X28140Y-14123D01*
X28148Y-14123D01*
X28148Y-14223D01*
X28140Y-14223D01*
X28140Y-14359D01*
X28140Y-14557D01*
X28140Y-14694D01*
X28148Y-14694D01*
X28148Y-14794D01*
X28140Y-14794D01*
X28140Y-14930D01*
X28140Y-15128D01*
X28140Y-15264D01*
X28148Y-15264D01*
X28148Y-15364D01*
X28140Y-15364D01*
X28140Y-15372D01*
X28040Y-15372D01*
X28040Y-15364D01*
X28032Y-15364D01*
X28032Y-15264D01*
X28040Y-15264D01*
X28040Y-15128D01*
X28040Y-14930D01*
X28040Y-14794D01*
X28032Y-14794D01*
X28032Y-14694D01*
X28040Y-14694D01*
X28040Y-14557D01*
X28040Y-14359D01*
X28040Y-14223D01*
X28032Y-14223D01*
X28032Y-14123D01*
X28040Y-14123D01*
X28040Y-13788D01*
X27978Y-13726D01*
X27945Y-13726D01*
X27945Y-13207D01*
X27946Y-13207D01*
X28001Y-13230D01*
X28061Y-13230D01*
X28454Y-13230D01*
X28484Y-13218D01*
X28513Y-13230D01*
X28573Y-13230D01*
X28966Y-13230D01*
X29021Y-13207D01*
X29064Y-13165D01*
X29086Y-13110D01*
X29087Y-13051D01*
X29087Y-13028D01*
X29174Y-13064D01*
X29289Y-13064D01*
X29395Y-13020D01*
X29477Y-12939D01*
X29521Y-12833D01*
X29521Y-12718D01*
X29477Y-12612D01*
X29396Y-12530D01*
X29290Y-12486D01*
X29187Y-12486D01*
X29187Y-12184D01*
X29149Y-12092D01*
X29078Y-12022D01*
X28986Y-11984D01*
X28887Y-11984D01*
X28852Y-11984D01*
X28790Y-12046D01*
X28790Y-12312D01*
X29124Y-12312D01*
X29187Y-12249D01*
X29187Y-12184D01*
X29187Y-12486D01*
X29187Y-12486D01*
X29187Y-12474D01*
X29124Y-12412D01*
X28790Y-12412D01*
X28790Y-12420D01*
X28690Y-12420D01*
X28690Y-12412D01*
X28682Y-12412D01*
X28682Y-12312D01*
X28690Y-12312D01*
X28690Y-12046D01*
X28627Y-11984D01*
X28592Y-11984D01*
X28493Y-11984D01*
X28401Y-12022D01*
X28339Y-12084D01*
X28183Y-12084D01*
X28183Y-11111D01*
X28183Y-10939D01*
X28120Y-10876D01*
X27707Y-10876D01*
X27707Y-11348D01*
X27769Y-11411D01*
X27982Y-11411D01*
X28074Y-11373D01*
X28144Y-11303D01*
X28183Y-11211D01*
X28183Y-11111D01*
X28183Y-12084D01*
X28001Y-12084D01*
X27946Y-12107D01*
X27904Y-12149D01*
X27881Y-12204D01*
X27881Y-12225D01*
X27881Y-12225D01*
X27877Y-12227D01*
X27877Y-12227D01*
X27749Y-12356D01*
X27749Y-11889D01*
X27749Y-11889D01*
X27749Y-11889D01*
X27734Y-11817D01*
X27693Y-11755D01*
X27693Y-11755D01*
X27349Y-11411D01*
X27544Y-11411D01*
X27607Y-11348D01*
X27607Y-10876D01*
X27194Y-10876D01*
X27131Y-10939D01*
X27131Y-11111D01*
X27131Y-11193D01*
X26945Y-11007D01*
X26945Y-11007D01*
X26846Y-10908D01*
X26785Y-10867D01*
X26712Y-10853D01*
X26281Y-10853D01*
X26226Y-10798D01*
X26120Y-10754D01*
X26005Y-10754D01*
X25899Y-10798D01*
X25818Y-10879D01*
X25774Y-10985D01*
X25773Y-11100D01*
X25793Y-11148D01*
X25531Y-11148D01*
X25232Y-10849D01*
X24878Y-10495D01*
X24816Y-10454D01*
X24744Y-10439D01*
X24667Y-10439D01*
X24633Y-10405D01*
X27146Y-10405D01*
X27131Y-10442D01*
X27131Y-10541D01*
X27131Y-10714D01*
X27194Y-10776D01*
X27607Y-10776D01*
X27607Y-10768D01*
X27707Y-10768D01*
X27707Y-10776D01*
X28120Y-10776D01*
X28183Y-10714D01*
X28183Y-10541D01*
X28183Y-10442D01*
X28167Y-10405D01*
X30753Y-10405D01*
X30753Y-10645D01*
X30816Y-10707D01*
X31544Y-10707D01*
X31544Y-10700D01*
X31644Y-10700D01*
X31644Y-10707D01*
X31652Y-10707D01*
X31652Y-10807D01*
X31644Y-10807D01*
X31644Y-11358D01*
X31706Y-11421D01*
X32113Y-11421D01*
X32113Y-13578D01*
X31706Y-13578D01*
X31644Y-13641D01*
X31644Y-14192D01*
X31652Y-14192D01*
X31652Y-14292D01*
X31644Y-14292D01*
X31644Y-14684D01*
X31644Y-14843D01*
X31644Y-15235D01*
X31652Y-15235D01*
X31652Y-15335D01*
X31644Y-15335D01*
X31644Y-15886D01*
X31706Y-15948D01*
X32113Y-15948D01*
X32113Y-18106D01*
X32113Y-18106D01*
G37*
G54D32*
X32113Y-18106D02*
X31706Y-18106D01*
X31644Y-18168D01*
X31644Y-18719D01*
X31652Y-18719D01*
X31652Y-18819D01*
X31644Y-18819D01*
X31644Y-18827D01*
X31544Y-18827D01*
X31544Y-18819D01*
X31544Y-18719D01*
X31544Y-18168D01*
X31481Y-18106D01*
X31053Y-18106D01*
X30953Y-18106D01*
X30862Y-18144D01*
X30791Y-18214D01*
X30753Y-18306D01*
X30753Y-18657D01*
X30816Y-18719D01*
X31544Y-18719D01*
X31544Y-18819D01*
X30816Y-18819D01*
X30753Y-18882D01*
X30753Y-19121D01*
X26956Y-19121D01*
X26977Y-19100D01*
X27021Y-18994D01*
X27021Y-18879D01*
X26977Y-18773D01*
X26896Y-18692D01*
X26790Y-18648D01*
X26704Y-18648D01*
X26705Y-18641D01*
X26705Y-18624D01*
X26880Y-18624D01*
X26935Y-18601D01*
X26977Y-18559D01*
X27000Y-18504D01*
X27000Y-18444D01*
X27000Y-18188D01*
X26977Y-18133D01*
X26955Y-18111D01*
X26992Y-18095D01*
X27062Y-18025D01*
X27100Y-17933D01*
X27100Y-17868D01*
X27037Y-17805D01*
X26703Y-17805D01*
X26703Y-17813D01*
X26603Y-17813D01*
X26603Y-17805D01*
X26595Y-17805D01*
X26595Y-17705D01*
X26603Y-17705D01*
X26603Y-17698D01*
X26703Y-17698D01*
X26703Y-17705D01*
X27037Y-17705D01*
X27100Y-17643D01*
X27100Y-17630D01*
X27263Y-17630D01*
X27306Y-17673D01*
X27306Y-17673D01*
X27368Y-17714D01*
X27413Y-17723D01*
X27473Y-17784D01*
X27580Y-17828D01*
X27596Y-17828D01*
X27585Y-17855D01*
X27584Y-17970D01*
X27628Y-18076D01*
X27710Y-18158D01*
X27816Y-18202D01*
X27931Y-18202D01*
X28037Y-18158D01*
X28118Y-18077D01*
X28162Y-17971D01*
X28163Y-17856D01*
X28119Y-17749D01*
X28079Y-17710D01*
X28108Y-17710D01*
X28214Y-17666D01*
X28296Y-17585D01*
X28340Y-17478D01*
X28340Y-17364D01*
X28336Y-17354D01*
X28367Y-17375D01*
X28440Y-17390D01*
X29080Y-17390D01*
X29152Y-17375D01*
X29214Y-17334D01*
X29624Y-16924D01*
X29636Y-16954D01*
X29717Y-17036D01*
X29824Y-17080D01*
X29887Y-17080D01*
X29887Y-17161D01*
X29950Y-17223D01*
X30402Y-17223D01*
X30402Y-17215D01*
X30502Y-17215D01*
X30502Y-17223D01*
X30955Y-17223D01*
X31017Y-17161D01*
X31017Y-17066D01*
X30979Y-16974D01*
X30917Y-16912D01*
X30917Y-16909D01*
X30917Y-16594D01*
X30894Y-16539D01*
X30891Y-16535D01*
X30894Y-16531D01*
X30917Y-16476D01*
X30917Y-16444D01*
X30997Y-16524D01*
X31091Y-16563D01*
X31187Y-16658D01*
X31187Y-17376D01*
X31048Y-17515D01*
X31003Y-17515D01*
X31017Y-17480D01*
X31017Y-17386D01*
X30955Y-17323D01*
X30502Y-17323D01*
X30502Y-17331D01*
X30402Y-17331D01*
X30402Y-17323D01*
X29950Y-17323D01*
X29887Y-17386D01*
X29887Y-17480D01*
X29925Y-17572D01*
X29987Y-17634D01*
X29987Y-17637D01*
X29987Y-17952D01*
X30010Y-18008D01*
X30052Y-18050D01*
X30107Y-18073D01*
X30167Y-18073D01*
X30797Y-18073D01*
X30852Y-18050D01*
X30887Y-18015D01*
X31151Y-18015D01*
X31247Y-17996D01*
X31328Y-17942D01*
X31613Y-17657D01*
X31613Y-17657D01*
X31613Y-17657D01*
X31667Y-17575D01*
X31667Y-17575D01*
X31683Y-17499D01*
X31687Y-17480D01*
X31687Y-17480D01*
X31687Y-17480D01*
X31687Y-16555D01*
X31667Y-16459D01*
X31667Y-16459D01*
X31646Y-16426D01*
X31613Y-16378D01*
X31613Y-16378D01*
X31544Y-16309D01*
X31544Y-15886D01*
X31544Y-15335D01*
X31544Y-15235D01*
X31544Y-14843D01*
X31544Y-14684D01*
X31544Y-14292D01*
X31544Y-14192D01*
X31544Y-13641D01*
X31544Y-11358D01*
X31544Y-10807D01*
X30816Y-10807D01*
X30753Y-10870D01*
X30753Y-11220D01*
X30791Y-11312D01*
X30862Y-11383D01*
X30953Y-11421D01*
X31053Y-11421D01*
X31481Y-11421D01*
X31544Y-11358D01*
X31544Y-13641D01*
X31481Y-13578D01*
X31053Y-13578D01*
X30953Y-13578D01*
X30862Y-13616D01*
X30791Y-13687D01*
X30753Y-13779D01*
X30753Y-14129D01*
X30816Y-14192D01*
X31544Y-14192D01*
X31544Y-14292D01*
X30816Y-14292D01*
X30753Y-14354D01*
X30753Y-14705D01*
X30778Y-14763D01*
X30753Y-14822D01*
X30753Y-15172D01*
X30816Y-15235D01*
X31544Y-15235D01*
X31544Y-15335D01*
X30816Y-15335D01*
X30753Y-15397D01*
X30753Y-15748D01*
X30791Y-15840D01*
X30862Y-15910D01*
X30953Y-15948D01*
X31053Y-15948D01*
X31481Y-15948D01*
X31544Y-15886D01*
X31544Y-16309D01*
X31445Y-16209D01*
X31406Y-16116D01*
X31325Y-16034D01*
X31219Y-15990D01*
X31104Y-15990D01*
X30997Y-16034D01*
X30917Y-16114D01*
X30917Y-16102D01*
X30894Y-16047D01*
X30852Y-16004D01*
X30797Y-15981D01*
X30738Y-15981D01*
X30108Y-15981D01*
X30052Y-16004D01*
X30010Y-16046D01*
X29988Y-16099D01*
X29976Y-16102D01*
X29917Y-16113D01*
X29856Y-16155D01*
X29856Y-16155D01*
X29740Y-16270D01*
X29733Y-16253D01*
X29652Y-16172D01*
X29545Y-16128D01*
X29521Y-16128D01*
X29521Y-16084D01*
X29477Y-15978D01*
X29396Y-15896D01*
X29290Y-15852D01*
X29211Y-15852D01*
X29150Y-15790D01*
X29088Y-15749D01*
X29015Y-15735D01*
X28939Y-15735D01*
X28939Y-15698D01*
X28916Y-15643D01*
X28903Y-15629D01*
X28936Y-15596D01*
X28945Y-15573D01*
X28986Y-15573D01*
X29259Y-15573D01*
X29265Y-15579D01*
X29371Y-15623D01*
X29486Y-15623D01*
X29592Y-15579D01*
X29655Y-15517D01*
X29632Y-15572D01*
X29632Y-15687D01*
X29676Y-15793D01*
X29757Y-15874D01*
X29863Y-15918D01*
X29978Y-15918D01*
X30084Y-15875D01*
X30166Y-15793D01*
X30210Y-15687D01*
X30210Y-15589D01*
X30331Y-15468D01*
X30331Y-15468D01*
X30331Y-15468D01*
X30468Y-15331D01*
X30468Y-15331D01*
X30468Y-15331D01*
X30510Y-15269D01*
X30524Y-15196D01*
X30524Y-15196D01*
X30524Y-15196D01*
X30524Y-13956D01*
X30524Y-13956D01*
X30524Y-13956D01*
X30510Y-13883D01*
X30468Y-13822D01*
X30468Y-13822D01*
X30331Y-13684D01*
X30331Y-13684D01*
X30192Y-13545D01*
X30797Y-13545D01*
X30852Y-13522D01*
X30857Y-13517D01*
X31009Y-13517D01*
X31103Y-13556D01*
X31218Y-13556D01*
X31324Y-13512D01*
X31406Y-13431D01*
X31450Y-13325D01*
X31450Y-13210D01*
X31406Y-13104D01*
X31325Y-13022D01*
X31219Y-12978D01*
X31104Y-12978D01*
X31009Y-13017D01*
X30991Y-13017D01*
X31017Y-12953D01*
X31017Y-12858D01*
X30955Y-12796D01*
X30502Y-12796D01*
X30502Y-12803D01*
X30402Y-12803D01*
X30402Y-12796D01*
X30394Y-12796D01*
X30394Y-12696D01*
X30402Y-12696D01*
X30402Y-12688D01*
X30502Y-12688D01*
X30502Y-12696D01*
X30955Y-12696D01*
X31017Y-12633D01*
X31017Y-12539D01*
X30979Y-12447D01*
X30917Y-12385D01*
X30917Y-12381D01*
X30917Y-12066D01*
X30894Y-12011D01*
X30891Y-12007D01*
X30894Y-12004D01*
X30915Y-11954D01*
X30958Y-11996D01*
X31064Y-12040D01*
X31179Y-12040D01*
X31285Y-11997D01*
X31366Y-11915D01*
X31410Y-11809D01*
X31411Y-11694D01*
X31367Y-11588D01*
X31285Y-11507D01*
X31179Y-11463D01*
X31064Y-11462D01*
X30958Y-11506D01*
X30909Y-11555D01*
X30894Y-11519D01*
X30852Y-11477D01*
X30797Y-11454D01*
X30738Y-11454D01*
X30108Y-11454D01*
X30052Y-11477D01*
X30010Y-11519D01*
X29987Y-11574D01*
X29987Y-11633D01*
X29590Y-12031D01*
X29548Y-12092D01*
X29534Y-12165D01*
X29534Y-13396D01*
X29521Y-13387D01*
X29490Y-13381D01*
X29477Y-13350D01*
X29435Y-13307D01*
X29380Y-13285D01*
X29320Y-13285D01*
X28926Y-13285D01*
X28871Y-13307D01*
X28829Y-13349D01*
X28806Y-13405D01*
X28806Y-13464D01*
X28806Y-13720D01*
X28829Y-13775D01*
X28871Y-13818D01*
X28926Y-13840D01*
X28986Y-13840D01*
X29380Y-13840D01*
X29435Y-13818D01*
X29435Y-13818D01*
X29515Y-13898D01*
X29458Y-13921D01*
X29435Y-13898D01*
X29380Y-13875D01*
X29320Y-13875D01*
X28926Y-13875D01*
X28922Y-13877D01*
X28894Y-13849D01*
X28839Y-13826D01*
X28779Y-13826D01*
X28523Y-13826D01*
X28468Y-13849D01*
X28445Y-13871D01*
X28430Y-13834D01*
X28359Y-13764D01*
X28268Y-13726D01*
X28203Y-13726D01*
X28140Y-13788D01*
X28140Y-14123D01*
X28148Y-14123D01*
X28148Y-14223D01*
X28140Y-14223D01*
X28140Y-14359D01*
X28140Y-14557D01*
X28140Y-14694D01*
X28148Y-14694D01*
X28148Y-14794D01*
X28140Y-14794D01*
X28140Y-14930D01*
X28140Y-15128D01*
X28140Y-15264D01*
X28148Y-15264D01*
X28148Y-15364D01*
X28140Y-15364D01*
X28140Y-15372D01*
X28040Y-15372D01*
X28040Y-15364D01*
X28032Y-15364D01*
X28032Y-15264D01*
X28040Y-15264D01*
X28040Y-15128D01*
X28040Y-14930D01*
X28040Y-14794D01*
X28032Y-14794D01*
X28032Y-14694D01*
X28040Y-14694D01*
X28040Y-14557D01*
X28040Y-14359D01*
X28040Y-14223D01*
X28032Y-14223D01*
X28032Y-14123D01*
X28040Y-14123D01*
X28040Y-13788D01*
X27978Y-13726D01*
X27945Y-13726D01*
X27945Y-13207D01*
X27946Y-13207D01*
X28001Y-13230D01*
X28061Y-13230D01*
X28454Y-13230D01*
X28484Y-13218D01*
X28513Y-13230D01*
X28573Y-13230D01*
X28966Y-13230D01*
X29021Y-13207D01*
X29064Y-13165D01*
X29086Y-13110D01*
X29087Y-13051D01*
X29087Y-13028D01*
X29174Y-13064D01*
X29289Y-13064D01*
X29395Y-13020D01*
X29477Y-12939D01*
X29521Y-12833D01*
X29521Y-12718D01*
X29477Y-12612D01*
X29396Y-12530D01*
X29290Y-12486D01*
X29187Y-12486D01*
X29187Y-12184D01*
X29149Y-12092D01*
X29078Y-12022D01*
X28986Y-11984D01*
X28887Y-11984D01*
X28852Y-11984D01*
X28790Y-12046D01*
X28790Y-12312D01*
X29124Y-12312D01*
X29187Y-12249D01*
X29187Y-12184D01*
X29187Y-12486D01*
X29187Y-12486D01*
X29187Y-12474D01*
X29124Y-12412D01*
X28790Y-12412D01*
X28790Y-12420D01*
X28690Y-12420D01*
X28690Y-12412D01*
X28682Y-12412D01*
X28682Y-12312D01*
X28690Y-12312D01*
X28690Y-12046D01*
X28627Y-11984D01*
X28592Y-11984D01*
X28493Y-11984D01*
X28401Y-12022D01*
X28339Y-12084D01*
X28183Y-12084D01*
X28183Y-11111D01*
X28183Y-10939D01*
X28120Y-10876D01*
X27707Y-10876D01*
X27707Y-11348D01*
X27769Y-11411D01*
X27982Y-11411D01*
X28074Y-11373D01*
X28144Y-11303D01*
X28183Y-11211D01*
X28183Y-11111D01*
X28183Y-12084D01*
X28001Y-12084D01*
X27946Y-12107D01*
X27904Y-12149D01*
X27881Y-12204D01*
X27881Y-12225D01*
X27881Y-12225D01*
X27877Y-12227D01*
X27877Y-12227D01*
X27749Y-12356D01*
X27749Y-11889D01*
X27749Y-11889D01*
X27749Y-11889D01*
X27734Y-11817D01*
X27693Y-11755D01*
X27693Y-11755D01*
X27349Y-11411D01*
X27544Y-11411D01*
X27607Y-11348D01*
X27607Y-10876D01*
X27194Y-10876D01*
X27131Y-10939D01*
X27131Y-11111D01*
X27131Y-11193D01*
X26945Y-11007D01*
X26945Y-11007D01*
X26846Y-10908D01*
X26785Y-10867D01*
X26712Y-10853D01*
X26281Y-10853D01*
X26226Y-10798D01*
X26120Y-10754D01*
X26005Y-10754D01*
X25899Y-10798D01*
X25818Y-10879D01*
X25774Y-10985D01*
X25773Y-11100D01*
X25793Y-11148D01*
X25531Y-11148D01*
X25232Y-10849D01*
X24878Y-10495D01*
X24816Y-10454D01*
X24744Y-10439D01*
X24667Y-10439D01*
X24633Y-10405D01*
X27146Y-10405D01*
X27131Y-10442D01*
X27131Y-10541D01*
X27131Y-10714D01*
X27194Y-10776D01*
X27607Y-10776D01*
X27607Y-10768D01*
X27707Y-10768D01*
X27707Y-10776D01*
X28120Y-10776D01*
X28183Y-10714D01*
X28183Y-10541D01*
X28183Y-10442D01*
X28167Y-10405D01*
X30753Y-10405D01*
X30753Y-10645D01*
X30816Y-10707D01*
X31544Y-10707D01*
X31544Y-10700D01*
X31644Y-10700D01*
X31644Y-10707D01*
X31652Y-10707D01*
X31652Y-10807D01*
X31644Y-10807D01*
X31644Y-11358D01*
X31706Y-11421D01*
X32113Y-11421D01*
X32113Y-13578D01*
X31706Y-13578D01*
X31644Y-13641D01*
X31644Y-14192D01*
X31652Y-14192D01*
X31652Y-14292D01*
X31644Y-14292D01*
X31644Y-14684D01*
X31644Y-14843D01*
X31644Y-15235D01*
X31652Y-15235D01*
X31652Y-15335D01*
X31644Y-15335D01*
X31644Y-15886D01*
X31706Y-15948D01*
X32113Y-15948D01*
X32113Y-18106D01*
M02*
