G04 (created by PCBNEW (2013-mar-13)-testing) date Mon 17 Mar 2014 10:10:55 PM CET*
%MOIN*%
G04 Gerber Fmt 3.4, Leading zero omitted, Abs format*
%FSLAX34Y34*%
G01*
G70*
G90*
G04 APERTURE LIST*
%ADD10C,0.005906*%
%ADD11R,0.045276X0.055118*%
%ADD12R,0.066142X0.074016*%
%ADD13R,0.016535X0.047244*%
%ADD14R,0.023622X0.043307*%
%ADD15R,0.074803X0.074803*%
%ADD16R,0.070866X0.074803*%
%ADD17R,0.082677X0.062992*%
%ADD18R,0.015748X0.053150*%
%ADD19R,0.047244X0.011811*%
%ADD20R,0.011811X0.047244*%
%ADD21R,0.021654X0.011811*%
%ADD22R,0.011811X0.021654*%
%ADD23R,0.009843X0.019685*%
%ADD24R,0.019685X0.009843*%
%ADD25C,0.175197*%
%ADD26R,0.039370X0.025591*%
%ADD27R,0.025591X0.039370*%
%ADD28R,0.033465X0.013780*%
%ADD29R,0.013780X0.031496*%
%ADD30R,0.062992X0.031496*%
%ADD31R,0.118110X0.082677*%
%ADD32R,0.031496X0.062992*%
%ADD33R,0.082677X0.118110*%
%ADD34R,0.118110X0.070866*%
G04 APERTURE END LIST*
G54D10*
G54D11*
X22559Y-14527D03*
X22559Y-15393D03*
X21929Y-15393D03*
X21929Y-14527D03*
G54D12*
X15334Y-13466D03*
G54D13*
X14950Y-12611D03*
X15206Y-12611D03*
X15462Y-12611D03*
X15718Y-12611D03*
X15718Y-14320D03*
X15462Y-14320D03*
X15206Y-14320D03*
X14950Y-14320D03*
G54D14*
X16993Y-14246D03*
X16501Y-14246D03*
X17486Y-14246D03*
X17978Y-14246D03*
X17978Y-15113D03*
X17486Y-15113D03*
X16501Y-15113D03*
X16993Y-15113D03*
G54D15*
X19015Y-10757D03*
X19960Y-10757D03*
G54D16*
X17913Y-10757D03*
X21062Y-10757D03*
G54D17*
X20708Y-11761D03*
X18267Y-11761D03*
G54D18*
X20000Y-11811D03*
X19744Y-11811D03*
X18976Y-11811D03*
X19232Y-11811D03*
X19488Y-11811D03*
G54D19*
X23523Y-14173D03*
X23523Y-14370D03*
X23523Y-14566D03*
X23523Y-14763D03*
X23523Y-14960D03*
X23523Y-15157D03*
X23523Y-15354D03*
X23523Y-15551D03*
X23523Y-15748D03*
X23523Y-15944D03*
X23523Y-16141D03*
X23523Y-16338D03*
X23523Y-16535D03*
X23523Y-16732D03*
X23523Y-16929D03*
X23523Y-17125D03*
G54D20*
X24311Y-17913D03*
X24507Y-17913D03*
X24704Y-17913D03*
X24901Y-17913D03*
X25098Y-17913D03*
X25295Y-17913D03*
X25492Y-17913D03*
X25688Y-17913D03*
X25885Y-17913D03*
X26082Y-17913D03*
X26279Y-17913D03*
X26476Y-17913D03*
X26673Y-17913D03*
X26870Y-17913D03*
X27066Y-17913D03*
X27263Y-17913D03*
G54D19*
X28051Y-17125D03*
X28051Y-16929D03*
X28051Y-16732D03*
X28051Y-16535D03*
X28051Y-16338D03*
X28051Y-16141D03*
X28051Y-15944D03*
X28051Y-15748D03*
X28051Y-15551D03*
X28051Y-15354D03*
X28051Y-15157D03*
X28051Y-14960D03*
X28051Y-14763D03*
X28051Y-14566D03*
X28051Y-14370D03*
X28051Y-14173D03*
G54D20*
X27263Y-13385D03*
X27066Y-13385D03*
X26870Y-13385D03*
X26673Y-13385D03*
X26476Y-13385D03*
X26279Y-13385D03*
X26082Y-13385D03*
X25885Y-13385D03*
X25688Y-13385D03*
X25492Y-13385D03*
X25295Y-13385D03*
X25098Y-13385D03*
X24901Y-13385D03*
X24704Y-13385D03*
X24507Y-13385D03*
X24311Y-13385D03*
G54D21*
X18041Y-17018D03*
X18041Y-17215D03*
X18041Y-16821D03*
X18041Y-16624D03*
X16998Y-16624D03*
X16998Y-16821D03*
X16998Y-17215D03*
X16998Y-17018D03*
G54D22*
X17815Y-17441D03*
X17618Y-17441D03*
X17224Y-17441D03*
X17421Y-17441D03*
X17421Y-16398D03*
X17224Y-16398D03*
X17618Y-16398D03*
X17815Y-16398D03*
G54D23*
X19881Y-14271D03*
X20078Y-14271D03*
X20275Y-14271D03*
X20275Y-15255D03*
X20078Y-15255D03*
X19881Y-15255D03*
G54D24*
X20570Y-14370D03*
X20570Y-14566D03*
X20570Y-14763D03*
X20570Y-15157D03*
X20570Y-14960D03*
X19586Y-14960D03*
X19586Y-15157D03*
X19586Y-14763D03*
X19586Y-14566D03*
X19586Y-14370D03*
G54D25*
X29035Y-11220D03*
X29035Y-18307D03*
X15846Y-18307D03*
X15846Y-11220D03*
G54D26*
X27755Y-18818D03*
X27755Y-18228D03*
X27204Y-18996D03*
X27204Y-18405D03*
G54D27*
X29212Y-14665D03*
X28622Y-14665D03*
G54D26*
X22736Y-16496D03*
X22736Y-17086D03*
X28700Y-13543D03*
X28700Y-14133D03*
G54D27*
X24264Y-18500D03*
X24855Y-18500D03*
G54D26*
X23307Y-13169D03*
X23307Y-13759D03*
X23858Y-12775D03*
X23858Y-13366D03*
G54D27*
X28858Y-12539D03*
X28267Y-12539D03*
X15118Y-15610D03*
X14527Y-15610D03*
X15118Y-15078D03*
X14527Y-15078D03*
G54D26*
X22362Y-12933D03*
X22362Y-12342D03*
X22244Y-16496D03*
X22244Y-17086D03*
X21732Y-12933D03*
X21732Y-12342D03*
X29232Y-13543D03*
X29232Y-14133D03*
G54D27*
X19304Y-13720D03*
X19895Y-13720D03*
X21043Y-13740D03*
X20452Y-13740D03*
X18011Y-18503D03*
X17421Y-18503D03*
X17716Y-17913D03*
X17125Y-17913D03*
X17024Y-15900D03*
X17615Y-15900D03*
G54D26*
X18484Y-17933D03*
X18484Y-17342D03*
G54D27*
X19940Y-16240D03*
X20531Y-16240D03*
G54D26*
X18897Y-14881D03*
X18897Y-14291D03*
G54D27*
X17164Y-13600D03*
X17755Y-13600D03*
G54D26*
X14586Y-10708D03*
X14586Y-11299D03*
X27696Y-12460D03*
X27696Y-13051D03*
G54D27*
X20610Y-12893D03*
X20019Y-12893D03*
G54D26*
X19429Y-12480D03*
X19429Y-13070D03*
G54D27*
X25649Y-18484D03*
X26240Y-18484D03*
X18169Y-12559D03*
X17578Y-12559D03*
X16555Y-12559D03*
X17145Y-12559D03*
G54D26*
X13326Y-13405D03*
X13326Y-13996D03*
X14419Y-13120D03*
X14419Y-12529D03*
X14419Y-13769D03*
X14419Y-14360D03*
G54D27*
X22066Y-16062D03*
X22657Y-16062D03*
X22421Y-13858D03*
X21830Y-13858D03*
G54D28*
X19399Y-18110D03*
X19399Y-17913D03*
X19399Y-17716D03*
X19399Y-17519D03*
X19399Y-17322D03*
X19399Y-17125D03*
X20954Y-17125D03*
X20954Y-17322D03*
X20954Y-17519D03*
X20954Y-17716D03*
X20954Y-17913D03*
X20954Y-18110D03*
G54D29*
X20078Y-16830D03*
X20275Y-16830D03*
X19881Y-16830D03*
X19685Y-16830D03*
X20472Y-16830D03*
X20669Y-16830D03*
X20669Y-18405D03*
X20472Y-18405D03*
X19685Y-18405D03*
X19881Y-18405D03*
X20275Y-18405D03*
X20078Y-18405D03*
G54D30*
X14429Y-17765D03*
X14429Y-17273D03*
X14429Y-16781D03*
X14429Y-16289D03*
G54D31*
X13287Y-15285D03*
X13287Y-18769D03*
G54D30*
X30452Y-11761D03*
X30452Y-12253D03*
X30452Y-12746D03*
X30452Y-13238D03*
G54D31*
X31594Y-14242D03*
X31594Y-10757D03*
G54D30*
X30452Y-16289D03*
X30452Y-16781D03*
X30452Y-17273D03*
X30452Y-17765D03*
G54D31*
X31594Y-18769D03*
X31594Y-15285D03*
G54D32*
X26525Y-12066D03*
X23080Y-12066D03*
X26033Y-12066D03*
X23572Y-12066D03*
X24064Y-12066D03*
X24557Y-12066D03*
X25049Y-12066D03*
X25541Y-12066D03*
G54D33*
X27529Y-10925D03*
X22076Y-10925D03*
G54D34*
X13385Y-11779D03*
X13385Y-10779D03*
M02*
