G04 (created by PCBNEW (2013-mar-13)-testing) date Mon 17 Mar 2014 09:42:44 PM CET*
%MOIN*%
G04 Gerber Fmt 3.4, Leading zero omitted, Abs format*
%FSLAX34Y34*%
G01*
G70*
G90*
G04 APERTURE LIST*
%ADD10C,0.005906*%
%ADD11C,0.175197*%
%ADD12C,0.027795*%
%ADD13C,0.035433*%
%ADD14C,0.010000*%
G04 APERTURE END LIST*
G54D10*
G54D11*
X29035Y-11220D03*
X29035Y-18307D03*
X15846Y-18307D03*
X15846Y-11220D03*
G54D12*
X28051Y-17421D03*
X27637Y-17539D03*
X21141Y-14311D03*
X29685Y-15039D03*
X29429Y-15334D03*
X16141Y-17106D03*
X21673Y-18937D03*
X26732Y-18937D03*
X15374Y-16456D03*
X14645Y-11614D03*
X24448Y-10629D03*
X26830Y-14094D03*
X26377Y-14015D03*
X26023Y-13877D03*
X27106Y-16023D03*
X26732Y-15688D03*
X26574Y-12696D03*
X26161Y-12677D03*
X24780Y-15900D03*
X27559Y-16220D03*
X21259Y-13149D03*
X29232Y-16141D03*
X27283Y-12007D03*
X27283Y-15452D03*
X25078Y-11338D03*
X26929Y-12559D03*
X26062Y-11043D03*
X27559Y-14488D03*
X24015Y-14763D03*
X21220Y-14780D03*
X18464Y-16909D03*
X24488Y-16811D03*
X18188Y-15551D03*
X24606Y-15118D03*
X20511Y-15728D03*
X16685Y-15559D03*
X18346Y-16496D03*
X18503Y-15255D03*
X19901Y-15610D03*
X24606Y-14685D03*
X24035Y-16220D03*
X21397Y-17047D03*
X24389Y-16082D03*
X21653Y-16771D03*
X21850Y-17933D03*
X23484Y-18562D03*
X18110Y-15944D03*
X18917Y-13149D03*
X19094Y-16279D03*
X20925Y-16279D03*
X20157Y-13622D03*
X27027Y-16614D03*
X28779Y-16732D03*
X26811Y-16299D03*
X29133Y-16496D03*
X23996Y-18090D03*
X23248Y-17539D03*
X29488Y-16417D03*
X29881Y-16791D03*
X30059Y-15059D03*
X29921Y-15629D03*
X25610Y-15255D03*
X20826Y-13169D03*
X20334Y-13287D03*
X25255Y-15039D03*
G54D13*
X13838Y-14507D03*
G54D12*
X31122Y-11751D03*
X31161Y-13267D03*
X31161Y-16279D03*
X13740Y-16181D03*
X13267Y-14507D03*
X17559Y-12125D03*
X21358Y-15531D03*
X24114Y-15472D03*
G54D13*
X13720Y-12440D03*
G54D12*
X25984Y-15354D03*
X20078Y-12342D03*
X15586Y-14826D03*
X18897Y-12716D03*
X19023Y-16960D03*
G54D13*
X13740Y-12933D03*
X14212Y-10748D03*
G54D12*
X17362Y-17007D03*
X22204Y-13996D03*
X20826Y-14074D03*
X19015Y-15275D03*
X21870Y-16456D03*
G54D13*
X18956Y-13582D03*
G54D12*
X16692Y-16240D03*
X20275Y-17519D03*
X18228Y-18149D03*
X26259Y-16003D03*
X27401Y-18779D03*
X21555Y-11811D03*
X24488Y-18641D03*
X22027Y-12933D03*
X28307Y-13740D03*
X29606Y-14665D03*
X21692Y-16062D03*
X23858Y-12992D03*
X31102Y-12500D03*
X31102Y-17027D03*
X13779Y-17027D03*
X26043Y-18641D03*
X22637Y-12342D03*
X22086Y-12224D03*
X18976Y-17637D03*
X21496Y-17460D03*
X16318Y-15669D03*
X29606Y-14173D03*
G54D13*
X22066Y-11791D03*
G54D12*
X29232Y-12775D03*
X23858Y-13740D03*
X22480Y-17539D03*
X27874Y-17913D03*
X25118Y-18641D03*
G54D10*
G36*
X32113Y-19121D02*
X31450Y-19121D01*
X31450Y-16222D01*
X31450Y-13210D01*
X31411Y-13115D01*
X31411Y-11694D01*
X31367Y-11588D01*
X31285Y-11507D01*
X31179Y-11463D01*
X31064Y-11462D01*
X30958Y-11506D01*
X30877Y-11588D01*
X30833Y-11694D01*
X30833Y-11809D01*
X30876Y-11915D01*
X30958Y-11996D01*
X31064Y-12040D01*
X31179Y-12040D01*
X31285Y-11997D01*
X31366Y-11915D01*
X31410Y-11809D01*
X31411Y-11694D01*
X31411Y-13115D01*
X31406Y-13104D01*
X31325Y-13022D01*
X31219Y-12978D01*
X31104Y-12978D01*
X30997Y-13022D01*
X30916Y-13103D01*
X30872Y-13209D01*
X30872Y-13324D01*
X30916Y-13431D01*
X30997Y-13512D01*
X31103Y-13556D01*
X31218Y-13556D01*
X31324Y-13512D01*
X31406Y-13431D01*
X31450Y-13325D01*
X31450Y-13210D01*
X31450Y-16222D01*
X31406Y-16116D01*
X31325Y-16034D01*
X31219Y-15990D01*
X31104Y-15990D01*
X30997Y-16034D01*
X30916Y-16115D01*
X30872Y-16221D01*
X30872Y-16336D01*
X30916Y-16443D01*
X30997Y-16524D01*
X31103Y-16568D01*
X31218Y-16568D01*
X31324Y-16524D01*
X31406Y-16443D01*
X31450Y-16337D01*
X31450Y-16222D01*
X31450Y-19121D01*
X30348Y-19121D01*
X30348Y-15001D01*
X30304Y-14895D01*
X30222Y-14814D01*
X30116Y-14770D01*
X30001Y-14770D01*
X29895Y-14813D01*
X29895Y-14814D01*
X29895Y-14115D01*
X29851Y-14009D01*
X29770Y-13928D01*
X29664Y-13884D01*
X29549Y-13884D01*
X29521Y-13895D01*
X29521Y-12718D01*
X29477Y-12612D01*
X29396Y-12530D01*
X29290Y-12486D01*
X29175Y-12486D01*
X29068Y-12530D01*
X28987Y-12611D01*
X28943Y-12717D01*
X28943Y-12832D01*
X28987Y-12939D01*
X29068Y-13020D01*
X29174Y-13064D01*
X29289Y-13064D01*
X29395Y-13020D01*
X29477Y-12939D01*
X29521Y-12833D01*
X29521Y-12718D01*
X29521Y-13895D01*
X29442Y-13928D01*
X29361Y-14009D01*
X29317Y-14115D01*
X29317Y-14230D01*
X29361Y-14336D01*
X29442Y-14418D01*
X29548Y-14462D01*
X29663Y-14462D01*
X29769Y-14418D01*
X29851Y-14337D01*
X29895Y-14230D01*
X29895Y-14115D01*
X29895Y-14814D01*
X29881Y-14827D01*
X29848Y-14794D01*
X29742Y-14750D01*
X29627Y-14750D01*
X29521Y-14794D01*
X29440Y-14875D01*
X29396Y-14981D01*
X29396Y-15045D01*
X29371Y-15045D01*
X29265Y-15089D01*
X29184Y-15170D01*
X29140Y-15276D01*
X29140Y-15391D01*
X29184Y-15498D01*
X29265Y-15579D01*
X29371Y-15623D01*
X29486Y-15623D01*
X29592Y-15579D01*
X29655Y-15517D01*
X29632Y-15572D01*
X29632Y-15687D01*
X29676Y-15793D01*
X29757Y-15874D01*
X29863Y-15918D01*
X29978Y-15918D01*
X30084Y-15875D01*
X30166Y-15793D01*
X30210Y-15687D01*
X30210Y-15572D01*
X30166Y-15466D01*
X30085Y-15385D01*
X29978Y-15340D01*
X29864Y-15340D01*
X29757Y-15384D01*
X29695Y-15447D01*
X29718Y-15392D01*
X29718Y-15328D01*
X29742Y-15328D01*
X29848Y-15284D01*
X29862Y-15270D01*
X29895Y-15303D01*
X30001Y-15347D01*
X30116Y-15348D01*
X30222Y-15304D01*
X30303Y-15222D01*
X30347Y-15116D01*
X30348Y-15001D01*
X30348Y-19121D01*
X30170Y-19121D01*
X30170Y-16734D01*
X30127Y-16627D01*
X30045Y-16546D01*
X29939Y-16502D01*
X29824Y-16502D01*
X29753Y-16531D01*
X29777Y-16475D01*
X29777Y-16360D01*
X29733Y-16253D01*
X29652Y-16172D01*
X29545Y-16128D01*
X29521Y-16128D01*
X29521Y-16084D01*
X29477Y-15978D01*
X29396Y-15896D01*
X29290Y-15852D01*
X29175Y-15852D01*
X29068Y-15896D01*
X28987Y-15977D01*
X28943Y-16083D01*
X28943Y-16198D01*
X28966Y-16254D01*
X28889Y-16332D01*
X28844Y-16438D01*
X28844Y-16446D01*
X28837Y-16443D01*
X28722Y-16443D01*
X28616Y-16487D01*
X28534Y-16568D01*
X28490Y-16674D01*
X28490Y-16789D01*
X28534Y-16895D01*
X28615Y-16977D01*
X28721Y-17021D01*
X28836Y-17021D01*
X28943Y-16977D01*
X29024Y-16896D01*
X29068Y-16790D01*
X29068Y-16781D01*
X29076Y-16784D01*
X29191Y-16785D01*
X29297Y-16741D01*
X29361Y-16677D01*
X29430Y-16706D01*
X29545Y-16706D01*
X29616Y-16676D01*
X29592Y-16733D01*
X29592Y-16848D01*
X29636Y-16954D01*
X29717Y-17036D01*
X29824Y-17080D01*
X29939Y-17080D01*
X30045Y-17036D01*
X30126Y-16955D01*
X30170Y-16849D01*
X30170Y-16734D01*
X30170Y-19121D01*
X28340Y-19121D01*
X28340Y-17364D01*
X28296Y-17257D01*
X28215Y-17176D01*
X28108Y-17132D01*
X27993Y-17132D01*
X27887Y-17176D01*
X27848Y-17215D01*
X27848Y-16163D01*
X27848Y-14430D01*
X27804Y-14324D01*
X27722Y-14243D01*
X27616Y-14199D01*
X27572Y-14199D01*
X27572Y-11950D01*
X27528Y-11844D01*
X27447Y-11763D01*
X27341Y-11718D01*
X27226Y-11718D01*
X27119Y-11762D01*
X27038Y-11843D01*
X26994Y-11950D01*
X26994Y-12065D01*
X27038Y-12171D01*
X27119Y-12252D01*
X27225Y-12296D01*
X27340Y-12296D01*
X27446Y-12252D01*
X27528Y-12171D01*
X27572Y-12065D01*
X27572Y-11950D01*
X27572Y-14199D01*
X27501Y-14199D01*
X27395Y-14243D01*
X27314Y-14324D01*
X27270Y-14430D01*
X27270Y-14545D01*
X27313Y-14651D01*
X27395Y-14733D01*
X27501Y-14777D01*
X27616Y-14777D01*
X27722Y-14733D01*
X27803Y-14652D01*
X27847Y-14545D01*
X27848Y-14430D01*
X27848Y-16163D01*
X27804Y-16056D01*
X27722Y-15975D01*
X27616Y-15931D01*
X27572Y-15931D01*
X27572Y-15395D01*
X27528Y-15289D01*
X27447Y-15207D01*
X27341Y-15163D01*
X27226Y-15163D01*
X27218Y-15167D01*
X27218Y-12501D01*
X27174Y-12395D01*
X27093Y-12314D01*
X26986Y-12270D01*
X26871Y-12270D01*
X26765Y-12313D01*
X26684Y-12395D01*
X26672Y-12424D01*
X26632Y-12407D01*
X26517Y-12407D01*
X26411Y-12451D01*
X26377Y-12485D01*
X26352Y-12459D01*
X26352Y-10986D01*
X26308Y-10879D01*
X26226Y-10798D01*
X26120Y-10754D01*
X26005Y-10754D01*
X25899Y-10798D01*
X25818Y-10879D01*
X25774Y-10985D01*
X25773Y-11100D01*
X25817Y-11206D01*
X25899Y-11288D01*
X26005Y-11332D01*
X26120Y-11332D01*
X26226Y-11288D01*
X26307Y-11207D01*
X26351Y-11101D01*
X26352Y-10986D01*
X26352Y-12459D01*
X26325Y-12432D01*
X26219Y-12388D01*
X26104Y-12388D01*
X25997Y-12432D01*
X25916Y-12513D01*
X25872Y-12619D01*
X25872Y-12734D01*
X25916Y-12840D01*
X25997Y-12922D01*
X26103Y-12966D01*
X26218Y-12966D01*
X26324Y-12922D01*
X26358Y-12888D01*
X26410Y-12941D01*
X26517Y-12985D01*
X26632Y-12985D01*
X26738Y-12941D01*
X26819Y-12860D01*
X26831Y-12831D01*
X26871Y-12847D01*
X26986Y-12848D01*
X27092Y-12804D01*
X27173Y-12722D01*
X27218Y-12616D01*
X27218Y-12501D01*
X27218Y-15167D01*
X27119Y-15207D01*
X27119Y-15207D01*
X27119Y-14037D01*
X27075Y-13931D01*
X26994Y-13849D01*
X26888Y-13805D01*
X26773Y-13805D01*
X26667Y-13849D01*
X26635Y-13881D01*
X26623Y-13852D01*
X26541Y-13770D01*
X26435Y-13726D01*
X26320Y-13726D01*
X26280Y-13743D01*
X26268Y-13714D01*
X26187Y-13633D01*
X26081Y-13589D01*
X25966Y-13588D01*
X25860Y-13632D01*
X25778Y-13714D01*
X25734Y-13820D01*
X25734Y-13935D01*
X25778Y-14041D01*
X25859Y-14122D01*
X25965Y-14166D01*
X26080Y-14166D01*
X26120Y-14150D01*
X26132Y-14179D01*
X26214Y-14260D01*
X26320Y-14304D01*
X26435Y-14304D01*
X26541Y-14260D01*
X26573Y-14228D01*
X26585Y-14257D01*
X26666Y-14339D01*
X26772Y-14383D01*
X26887Y-14383D01*
X26994Y-14339D01*
X27075Y-14258D01*
X27119Y-14152D01*
X27119Y-14037D01*
X27119Y-15207D01*
X27038Y-15288D01*
X26994Y-15395D01*
X26994Y-15509D01*
X27038Y-15616D01*
X27119Y-15697D01*
X27225Y-15741D01*
X27340Y-15741D01*
X27446Y-15697D01*
X27528Y-15616D01*
X27572Y-15510D01*
X27572Y-15395D01*
X27572Y-15931D01*
X27501Y-15931D01*
X27395Y-15975D01*
X27395Y-15975D01*
X27395Y-15966D01*
X27351Y-15860D01*
X27270Y-15778D01*
X27164Y-15734D01*
X27049Y-15734D01*
X27021Y-15746D01*
X27021Y-15631D01*
X26977Y-15525D01*
X26896Y-15444D01*
X26790Y-15400D01*
X26675Y-15399D01*
X26568Y-15443D01*
X26487Y-15525D01*
X26443Y-15631D01*
X26443Y-15746D01*
X26487Y-15852D01*
X26568Y-15933D01*
X26674Y-15977D01*
X26789Y-15978D01*
X26817Y-15966D01*
X26817Y-16010D01*
X26753Y-16010D01*
X26647Y-16054D01*
X26566Y-16135D01*
X26522Y-16241D01*
X26521Y-16356D01*
X26565Y-16462D01*
X26647Y-16544D01*
X26738Y-16582D01*
X26738Y-16671D01*
X26782Y-16777D01*
X26863Y-16859D01*
X26969Y-16903D01*
X27084Y-16903D01*
X27191Y-16859D01*
X27272Y-16778D01*
X27316Y-16671D01*
X27316Y-16556D01*
X27272Y-16450D01*
X27191Y-16369D01*
X27099Y-16331D01*
X27099Y-16312D01*
X27163Y-16312D01*
X27269Y-16268D01*
X27270Y-16268D01*
X27270Y-16277D01*
X27313Y-16383D01*
X27395Y-16465D01*
X27501Y-16509D01*
X27616Y-16509D01*
X27722Y-16465D01*
X27803Y-16384D01*
X27847Y-16278D01*
X27848Y-16163D01*
X27848Y-17215D01*
X27806Y-17257D01*
X27792Y-17290D01*
X27695Y-17250D01*
X27580Y-17250D01*
X27474Y-17294D01*
X27392Y-17375D01*
X27348Y-17481D01*
X27348Y-17596D01*
X27392Y-17702D01*
X27473Y-17784D01*
X27580Y-17828D01*
X27596Y-17828D01*
X27585Y-17855D01*
X27584Y-17970D01*
X27628Y-18076D01*
X27710Y-18158D01*
X27816Y-18202D01*
X27931Y-18202D01*
X28037Y-18158D01*
X28118Y-18077D01*
X28162Y-17971D01*
X28163Y-17856D01*
X28119Y-17749D01*
X28079Y-17710D01*
X28108Y-17710D01*
X28214Y-17666D01*
X28296Y-17585D01*
X28340Y-17478D01*
X28340Y-17364D01*
X28340Y-19121D01*
X26956Y-19121D01*
X26977Y-19100D01*
X27021Y-18994D01*
X27021Y-18879D01*
X26977Y-18773D01*
X26896Y-18692D01*
X26790Y-18648D01*
X26675Y-18647D01*
X26568Y-18691D01*
X26487Y-18773D01*
X26443Y-18879D01*
X26443Y-18994D01*
X26487Y-19100D01*
X26508Y-19121D01*
X26332Y-19121D01*
X26332Y-18584D01*
X26288Y-18478D01*
X26273Y-18463D01*
X26273Y-15297D01*
X26229Y-15190D01*
X26148Y-15109D01*
X26041Y-15065D01*
X25927Y-15065D01*
X25856Y-15094D01*
X25855Y-15092D01*
X25774Y-15011D01*
X25667Y-14966D01*
X25553Y-14966D01*
X25540Y-14971D01*
X25501Y-14875D01*
X25419Y-14794D01*
X25367Y-14772D01*
X25367Y-11281D01*
X25323Y-11175D01*
X25242Y-11093D01*
X25136Y-11049D01*
X25021Y-11049D01*
X24915Y-11093D01*
X24833Y-11174D01*
X24789Y-11280D01*
X24789Y-11395D01*
X24833Y-11502D01*
X24914Y-11583D01*
X25021Y-11627D01*
X25135Y-11627D01*
X25242Y-11583D01*
X25323Y-11502D01*
X25367Y-11396D01*
X25367Y-11281D01*
X25367Y-14772D01*
X25313Y-14750D01*
X25198Y-14750D01*
X25092Y-14794D01*
X25011Y-14875D01*
X24966Y-14981D01*
X24966Y-15096D01*
X25010Y-15202D01*
X25091Y-15284D01*
X25198Y-15328D01*
X25313Y-15328D01*
X25325Y-15323D01*
X25365Y-15419D01*
X25446Y-15500D01*
X25552Y-15544D01*
X25667Y-15544D01*
X25738Y-15515D01*
X25739Y-15517D01*
X25820Y-15599D01*
X25926Y-15643D01*
X26041Y-15643D01*
X26147Y-15599D01*
X26229Y-15518D01*
X26273Y-15412D01*
X26273Y-15297D01*
X26273Y-18463D01*
X26207Y-18396D01*
X26101Y-18352D01*
X25986Y-18352D01*
X25879Y-18396D01*
X25798Y-18477D01*
X25754Y-18583D01*
X25754Y-18698D01*
X25798Y-18805D01*
X25879Y-18886D01*
X25985Y-18930D01*
X26100Y-18930D01*
X26206Y-18886D01*
X26288Y-18805D01*
X26332Y-18699D01*
X26332Y-18584D01*
X26332Y-19121D01*
X25407Y-19121D01*
X25407Y-18584D01*
X25363Y-18478D01*
X25282Y-18396D01*
X25175Y-18352D01*
X25069Y-18352D01*
X25069Y-15842D01*
X25025Y-15736D01*
X24943Y-15655D01*
X24895Y-15634D01*
X24895Y-15060D01*
X24851Y-14954D01*
X24798Y-14901D01*
X24851Y-14848D01*
X24895Y-14742D01*
X24895Y-14627D01*
X24851Y-14521D01*
X24770Y-14440D01*
X24664Y-14396D01*
X24549Y-14396D01*
X24442Y-14439D01*
X24361Y-14521D01*
X24317Y-14627D01*
X24317Y-14742D01*
X24361Y-14848D01*
X24414Y-14901D01*
X24361Y-14954D01*
X24317Y-15060D01*
X24317Y-15175D01*
X24361Y-15281D01*
X24442Y-15362D01*
X24548Y-15407D01*
X24663Y-15407D01*
X24769Y-15363D01*
X24851Y-15282D01*
X24895Y-15175D01*
X24895Y-15060D01*
X24895Y-15634D01*
X24837Y-15611D01*
X24722Y-15610D01*
X24616Y-15654D01*
X24535Y-15736D01*
X24501Y-15816D01*
X24447Y-15793D01*
X24403Y-15793D01*
X24403Y-15415D01*
X24359Y-15308D01*
X24304Y-15254D01*
X24304Y-14706D01*
X24260Y-14600D01*
X24179Y-14518D01*
X24147Y-14505D01*
X24147Y-13682D01*
X24103Y-13576D01*
X24022Y-13495D01*
X23916Y-13451D01*
X23801Y-13451D01*
X23694Y-13495D01*
X23613Y-13576D01*
X23569Y-13682D01*
X23569Y-13797D01*
X23613Y-13903D01*
X23694Y-13984D01*
X23800Y-14029D01*
X23915Y-14029D01*
X24021Y-13985D01*
X24103Y-13904D01*
X24147Y-13797D01*
X24147Y-13682D01*
X24147Y-14505D01*
X24073Y-14474D01*
X23958Y-14474D01*
X23852Y-14518D01*
X23770Y-14599D01*
X23726Y-14706D01*
X23726Y-14821D01*
X23770Y-14927D01*
X23851Y-15008D01*
X23958Y-15052D01*
X24072Y-15052D01*
X24179Y-15008D01*
X24260Y-14927D01*
X24304Y-14821D01*
X24304Y-14706D01*
X24304Y-15254D01*
X24278Y-15227D01*
X24171Y-15183D01*
X24056Y-15183D01*
X23950Y-15227D01*
X23869Y-15308D01*
X23825Y-15414D01*
X23825Y-15529D01*
X23869Y-15635D01*
X23950Y-15717D01*
X24056Y-15761D01*
X24171Y-15761D01*
X24277Y-15717D01*
X24359Y-15636D01*
X24403Y-15530D01*
X24403Y-15415D01*
X24403Y-15793D01*
X24332Y-15793D01*
X24226Y-15837D01*
X24144Y-15918D01*
X24132Y-15947D01*
X24093Y-15931D01*
X23978Y-15931D01*
X23871Y-15975D01*
X23790Y-16056D01*
X23746Y-16162D01*
X23746Y-16277D01*
X23790Y-16383D01*
X23871Y-16465D01*
X23977Y-16509D01*
X24092Y-16509D01*
X24198Y-16465D01*
X24280Y-16384D01*
X24292Y-16355D01*
X24332Y-16371D01*
X24446Y-16371D01*
X24553Y-16327D01*
X24634Y-16246D01*
X24667Y-16166D01*
X24722Y-16188D01*
X24837Y-16189D01*
X24943Y-16145D01*
X25024Y-16063D01*
X25068Y-15957D01*
X25069Y-15842D01*
X25069Y-18352D01*
X25060Y-18352D01*
X24954Y-18396D01*
X24873Y-18477D01*
X24829Y-18583D01*
X24829Y-18698D01*
X24872Y-18805D01*
X24954Y-18886D01*
X25060Y-18930D01*
X25175Y-18930D01*
X25281Y-18886D01*
X25362Y-18805D01*
X25407Y-18699D01*
X25407Y-18584D01*
X25407Y-19121D01*
X24777Y-19121D01*
X24777Y-16753D01*
X24733Y-16647D01*
X24652Y-16566D01*
X24545Y-16522D01*
X24430Y-16521D01*
X24324Y-16565D01*
X24243Y-16647D01*
X24199Y-16753D01*
X24199Y-16868D01*
X24243Y-16974D01*
X24324Y-17055D01*
X24430Y-17099D01*
X24545Y-17100D01*
X24651Y-17056D01*
X24733Y-16974D01*
X24777Y-16868D01*
X24777Y-16753D01*
X24777Y-19121D01*
X24285Y-19121D01*
X24285Y-18033D01*
X24241Y-17927D01*
X24159Y-17845D01*
X24053Y-17801D01*
X23938Y-17801D01*
X23832Y-17845D01*
X23751Y-17926D01*
X23707Y-18032D01*
X23707Y-18147D01*
X23750Y-18254D01*
X23832Y-18335D01*
X23938Y-18379D01*
X24053Y-18379D01*
X24159Y-18335D01*
X24240Y-18254D01*
X24284Y-18148D01*
X24285Y-18033D01*
X24285Y-19121D01*
X23773Y-19121D01*
X23773Y-18505D01*
X23729Y-18399D01*
X23648Y-18318D01*
X23541Y-18274D01*
X23537Y-18274D01*
X23537Y-17482D01*
X23493Y-17375D01*
X23411Y-17294D01*
X23305Y-17250D01*
X23190Y-17250D01*
X23084Y-17294D01*
X23003Y-17375D01*
X22959Y-17481D01*
X22959Y-17596D01*
X23002Y-17702D01*
X23084Y-17784D01*
X23190Y-17828D01*
X23305Y-17828D01*
X23411Y-17784D01*
X23492Y-17703D01*
X23536Y-17597D01*
X23537Y-17482D01*
X23537Y-18274D01*
X23427Y-18273D01*
X23320Y-18317D01*
X23239Y-18399D01*
X23195Y-18505D01*
X23195Y-18620D01*
X23239Y-18726D01*
X23320Y-18807D01*
X23426Y-18851D01*
X23541Y-18852D01*
X23647Y-18808D01*
X23729Y-18726D01*
X23773Y-18620D01*
X23773Y-18505D01*
X23773Y-19121D01*
X22926Y-19121D01*
X22926Y-12285D01*
X22882Y-12179D01*
X22801Y-12097D01*
X22695Y-12053D01*
X22580Y-12053D01*
X22474Y-12097D01*
X22392Y-12178D01*
X22375Y-12220D01*
X22375Y-12167D01*
X22331Y-12060D01*
X22295Y-12025D01*
X22344Y-11976D01*
X22394Y-11856D01*
X22394Y-11726D01*
X22344Y-11606D01*
X22252Y-11514D01*
X22132Y-11464D01*
X22002Y-11464D01*
X21881Y-11513D01*
X21789Y-11605D01*
X21739Y-11725D01*
X21739Y-11856D01*
X21789Y-11976D01*
X21857Y-12044D01*
X21841Y-12060D01*
X21797Y-12166D01*
X21797Y-12281D01*
X21841Y-12387D01*
X21922Y-12469D01*
X22028Y-12513D01*
X22143Y-12513D01*
X22250Y-12469D01*
X22331Y-12388D01*
X22348Y-12346D01*
X22348Y-12399D01*
X22392Y-12505D01*
X22473Y-12587D01*
X22580Y-12631D01*
X22695Y-12631D01*
X22801Y-12587D01*
X22882Y-12506D01*
X22926Y-12400D01*
X22926Y-12285D01*
X22926Y-19121D01*
X22769Y-19121D01*
X22769Y-17482D01*
X22725Y-17375D01*
X22644Y-17294D01*
X22538Y-17250D01*
X22423Y-17250D01*
X22316Y-17294D01*
X22235Y-17375D01*
X22191Y-17481D01*
X22191Y-17596D01*
X22235Y-17702D01*
X22316Y-17784D01*
X22422Y-17828D01*
X22537Y-17828D01*
X22643Y-17784D01*
X22725Y-17703D01*
X22769Y-17597D01*
X22769Y-17482D01*
X22769Y-19121D01*
X22139Y-19121D01*
X22139Y-17875D01*
X22095Y-17769D01*
X22014Y-17688D01*
X21942Y-17658D01*
X21942Y-16714D01*
X21898Y-16608D01*
X21817Y-16526D01*
X21711Y-16482D01*
X21647Y-16482D01*
X21647Y-15474D01*
X21603Y-15368D01*
X21548Y-15313D01*
X21548Y-13092D01*
X21504Y-12986D01*
X21423Y-12904D01*
X21317Y-12860D01*
X21202Y-12860D01*
X21096Y-12904D01*
X21033Y-12967D01*
X20990Y-12924D01*
X20884Y-12880D01*
X20769Y-12880D01*
X20663Y-12924D01*
X20581Y-13005D01*
X20546Y-13090D01*
X20498Y-13042D01*
X20392Y-12998D01*
X20367Y-12998D01*
X20367Y-12285D01*
X20323Y-12179D01*
X20242Y-12097D01*
X20136Y-12053D01*
X20021Y-12053D01*
X19915Y-12097D01*
X19833Y-12178D01*
X19789Y-12284D01*
X19789Y-12399D01*
X19833Y-12505D01*
X19914Y-12587D01*
X20021Y-12631D01*
X20135Y-12631D01*
X20242Y-12587D01*
X20323Y-12506D01*
X20367Y-12400D01*
X20367Y-12285D01*
X20367Y-12998D01*
X20277Y-12998D01*
X20171Y-13042D01*
X20089Y-13123D01*
X20045Y-13229D01*
X20045Y-13344D01*
X20049Y-13353D01*
X19994Y-13376D01*
X19912Y-13458D01*
X19868Y-13564D01*
X19868Y-13679D01*
X19912Y-13785D01*
X19993Y-13866D01*
X20099Y-13910D01*
X20214Y-13911D01*
X20320Y-13867D01*
X20402Y-13785D01*
X20446Y-13679D01*
X20446Y-13564D01*
X20442Y-13555D01*
X20498Y-13532D01*
X20579Y-13451D01*
X20614Y-13366D01*
X20662Y-13414D01*
X20769Y-13458D01*
X20884Y-13458D01*
X20990Y-13414D01*
X21053Y-13351D01*
X21095Y-13394D01*
X21202Y-13438D01*
X21317Y-13438D01*
X21423Y-13394D01*
X21504Y-13313D01*
X21548Y-13207D01*
X21548Y-13092D01*
X21548Y-15313D01*
X21522Y-15286D01*
X21509Y-15281D01*
X21509Y-14722D01*
X21465Y-14616D01*
X21383Y-14535D01*
X21343Y-14518D01*
X21386Y-14474D01*
X21430Y-14368D01*
X21430Y-14253D01*
X21386Y-14147D01*
X21305Y-14066D01*
X21199Y-14022D01*
X21084Y-14021D01*
X20978Y-14065D01*
X20896Y-14147D01*
X20852Y-14253D01*
X20852Y-14368D01*
X20896Y-14474D01*
X20977Y-14555D01*
X21018Y-14572D01*
X20975Y-14616D01*
X20931Y-14722D01*
X20930Y-14837D01*
X20974Y-14943D01*
X21056Y-15024D01*
X21162Y-15068D01*
X21277Y-15069D01*
X21383Y-15025D01*
X21464Y-14943D01*
X21508Y-14837D01*
X21509Y-14722D01*
X21509Y-15281D01*
X21416Y-15242D01*
X21301Y-15242D01*
X21194Y-15286D01*
X21113Y-15367D01*
X21069Y-15473D01*
X21069Y-15588D01*
X21113Y-15694D01*
X21194Y-15776D01*
X21300Y-15820D01*
X21415Y-15820D01*
X21521Y-15776D01*
X21603Y-15695D01*
X21647Y-15589D01*
X21647Y-15474D01*
X21647Y-16482D01*
X21596Y-16482D01*
X21490Y-16526D01*
X21408Y-16607D01*
X21364Y-16713D01*
X21364Y-16758D01*
X21340Y-16758D01*
X21234Y-16802D01*
X21214Y-16822D01*
X21214Y-16222D01*
X21170Y-16116D01*
X21089Y-16034D01*
X20982Y-15990D01*
X20867Y-15990D01*
X20800Y-16018D01*
X20800Y-15671D01*
X20756Y-15564D01*
X20675Y-15483D01*
X20569Y-15439D01*
X20454Y-15439D01*
X20348Y-15483D01*
X20266Y-15564D01*
X20222Y-15670D01*
X20222Y-15785D01*
X20266Y-15891D01*
X20347Y-15973D01*
X20454Y-16017D01*
X20569Y-16017D01*
X20675Y-15973D01*
X20756Y-15892D01*
X20800Y-15786D01*
X20800Y-15671D01*
X20800Y-16018D01*
X20761Y-16034D01*
X20680Y-16115D01*
X20636Y-16221D01*
X20636Y-16336D01*
X20680Y-16443D01*
X20761Y-16524D01*
X20867Y-16568D01*
X20982Y-16568D01*
X21088Y-16524D01*
X21170Y-16443D01*
X21214Y-16337D01*
X21214Y-16222D01*
X21214Y-16822D01*
X21152Y-16883D01*
X21108Y-16989D01*
X21108Y-17104D01*
X21152Y-17210D01*
X21233Y-17292D01*
X21250Y-17298D01*
X21207Y-17402D01*
X21207Y-17517D01*
X21250Y-17624D01*
X21332Y-17705D01*
X21438Y-17749D01*
X21553Y-17749D01*
X21659Y-17705D01*
X21740Y-17624D01*
X21784Y-17518D01*
X21785Y-17403D01*
X21741Y-17297D01*
X21659Y-17215D01*
X21643Y-17208D01*
X21686Y-17104D01*
X21686Y-17060D01*
X21710Y-17060D01*
X21817Y-17016D01*
X21898Y-16935D01*
X21942Y-16829D01*
X21942Y-16714D01*
X21942Y-17658D01*
X21908Y-17644D01*
X21793Y-17644D01*
X21686Y-17687D01*
X21605Y-17769D01*
X21561Y-17875D01*
X21561Y-17990D01*
X21605Y-18096D01*
X21686Y-18177D01*
X21792Y-18221D01*
X21907Y-18222D01*
X22013Y-18178D01*
X22095Y-18096D01*
X22139Y-17990D01*
X22139Y-17875D01*
X22139Y-19121D01*
X21897Y-19121D01*
X21918Y-19100D01*
X21962Y-18994D01*
X21962Y-18879D01*
X21918Y-18773D01*
X21837Y-18692D01*
X21730Y-18648D01*
X21615Y-18647D01*
X21509Y-18691D01*
X21428Y-18773D01*
X21384Y-18879D01*
X21384Y-18994D01*
X21428Y-19100D01*
X21449Y-19121D01*
X20190Y-19121D01*
X20190Y-15553D01*
X20146Y-15446D01*
X20065Y-15365D01*
X19959Y-15321D01*
X19844Y-15321D01*
X19738Y-15365D01*
X19656Y-15446D01*
X19612Y-15552D01*
X19612Y-15667D01*
X19656Y-15773D01*
X19737Y-15855D01*
X19843Y-15899D01*
X19958Y-15899D01*
X20065Y-15855D01*
X20146Y-15774D01*
X20190Y-15667D01*
X20190Y-15553D01*
X20190Y-19121D01*
X19383Y-19121D01*
X19383Y-16222D01*
X19339Y-16116D01*
X19258Y-16034D01*
X19206Y-16013D01*
X19206Y-13092D01*
X19162Y-12986D01*
X19081Y-12904D01*
X18975Y-12860D01*
X18860Y-12860D01*
X18753Y-12904D01*
X18672Y-12985D01*
X18628Y-13091D01*
X18628Y-13206D01*
X18672Y-13313D01*
X18753Y-13394D01*
X18859Y-13438D01*
X18974Y-13438D01*
X19080Y-13394D01*
X19162Y-13313D01*
X19206Y-13207D01*
X19206Y-13092D01*
X19206Y-16013D01*
X19152Y-15990D01*
X19037Y-15990D01*
X18931Y-16034D01*
X18849Y-16115D01*
X18805Y-16221D01*
X18805Y-16336D01*
X18849Y-16443D01*
X18930Y-16524D01*
X19036Y-16568D01*
X19151Y-16568D01*
X19257Y-16524D01*
X19339Y-16443D01*
X19383Y-16337D01*
X19383Y-16222D01*
X19383Y-19121D01*
X19265Y-19121D01*
X19265Y-17580D01*
X19221Y-17474D01*
X19140Y-17392D01*
X19034Y-17348D01*
X18919Y-17348D01*
X18812Y-17392D01*
X18792Y-17412D01*
X18792Y-15198D01*
X18749Y-15092D01*
X18667Y-15011D01*
X18561Y-14966D01*
X18446Y-14966D01*
X18340Y-15010D01*
X18259Y-15091D01*
X18215Y-15198D01*
X18214Y-15262D01*
X18131Y-15262D01*
X18025Y-15306D01*
X17944Y-15387D01*
X17900Y-15493D01*
X17899Y-15608D01*
X17940Y-15706D01*
X17865Y-15780D01*
X17848Y-15822D01*
X17848Y-12068D01*
X17804Y-11962D01*
X17722Y-11881D01*
X17616Y-11837D01*
X17501Y-11836D01*
X17395Y-11880D01*
X17314Y-11962D01*
X17270Y-12068D01*
X17270Y-12183D01*
X17313Y-12289D01*
X17395Y-12370D01*
X17501Y-12414D01*
X17616Y-12415D01*
X17722Y-12371D01*
X17803Y-12289D01*
X17847Y-12183D01*
X17848Y-12068D01*
X17848Y-15822D01*
X17821Y-15887D01*
X17821Y-16002D01*
X17865Y-16108D01*
X17946Y-16189D01*
X18052Y-16233D01*
X18167Y-16233D01*
X18273Y-16190D01*
X18355Y-16108D01*
X18399Y-16002D01*
X18399Y-15887D01*
X18358Y-15789D01*
X18433Y-15715D01*
X18477Y-15608D01*
X18477Y-15544D01*
X18561Y-15544D01*
X18667Y-15501D01*
X18748Y-15419D01*
X18792Y-15313D01*
X18792Y-15198D01*
X18792Y-17412D01*
X18753Y-17451D01*
X18753Y-16852D01*
X18709Y-16745D01*
X18628Y-16664D01*
X18595Y-16650D01*
X18635Y-16553D01*
X18635Y-16438D01*
X18591Y-16332D01*
X18510Y-16251D01*
X18404Y-16207D01*
X18289Y-16207D01*
X18182Y-16250D01*
X18101Y-16332D01*
X18057Y-16438D01*
X18057Y-16553D01*
X18101Y-16659D01*
X18182Y-16740D01*
X18215Y-16754D01*
X18175Y-16851D01*
X18175Y-16966D01*
X18219Y-17072D01*
X18300Y-17154D01*
X18406Y-17198D01*
X18521Y-17198D01*
X18628Y-17154D01*
X18709Y-17073D01*
X18753Y-16967D01*
X18753Y-16852D01*
X18753Y-17451D01*
X18731Y-17473D01*
X18687Y-17580D01*
X18687Y-17695D01*
X18731Y-17801D01*
X18812Y-17882D01*
X18918Y-17926D01*
X19033Y-17926D01*
X19139Y-17882D01*
X19221Y-17801D01*
X19265Y-17695D01*
X19265Y-17580D01*
X19265Y-19121D01*
X16974Y-19121D01*
X16974Y-15501D01*
X16930Y-15395D01*
X16848Y-15314D01*
X16742Y-15270D01*
X16627Y-15270D01*
X16521Y-15313D01*
X16440Y-15395D01*
X16436Y-15405D01*
X16376Y-15380D01*
X16261Y-15380D01*
X16155Y-15424D01*
X16074Y-15505D01*
X16029Y-15611D01*
X16029Y-15726D01*
X16073Y-15832D01*
X16154Y-15914D01*
X16261Y-15958D01*
X16376Y-15958D01*
X16482Y-15914D01*
X16563Y-15833D01*
X16567Y-15823D01*
X16627Y-15847D01*
X16742Y-15848D01*
X16848Y-15804D01*
X16929Y-15722D01*
X16973Y-15616D01*
X16974Y-15501D01*
X16974Y-19121D01*
X16430Y-19121D01*
X16430Y-17049D01*
X16386Y-16942D01*
X16305Y-16861D01*
X16199Y-16817D01*
X16084Y-16817D01*
X15978Y-16861D01*
X15896Y-16942D01*
X15852Y-17048D01*
X15852Y-17163D01*
X15896Y-17269D01*
X15977Y-17351D01*
X16083Y-17395D01*
X16198Y-17395D01*
X16305Y-17351D01*
X16386Y-17270D01*
X16430Y-17164D01*
X16430Y-17049D01*
X16430Y-19121D01*
X15663Y-19121D01*
X15663Y-16399D01*
X15619Y-16293D01*
X15537Y-16211D01*
X15431Y-16167D01*
X15316Y-16167D01*
X15210Y-16211D01*
X15129Y-16292D01*
X15085Y-16398D01*
X15084Y-16513D01*
X15128Y-16620D01*
X15210Y-16701D01*
X15316Y-16745D01*
X15431Y-16745D01*
X15537Y-16701D01*
X15618Y-16620D01*
X15662Y-16514D01*
X15663Y-16399D01*
X15663Y-19121D01*
X14934Y-19121D01*
X14934Y-11556D01*
X14890Y-11450D01*
X14809Y-11369D01*
X14703Y-11325D01*
X14588Y-11325D01*
X14482Y-11369D01*
X14400Y-11450D01*
X14356Y-11556D01*
X14356Y-11671D01*
X14400Y-11777D01*
X14481Y-11859D01*
X14587Y-11903D01*
X14702Y-11903D01*
X14809Y-11859D01*
X14890Y-11778D01*
X14934Y-11671D01*
X14934Y-11556D01*
X14934Y-19121D01*
X14165Y-19121D01*
X14165Y-14443D01*
X14116Y-14322D01*
X14047Y-14254D01*
X14047Y-12376D01*
X13997Y-12255D01*
X13906Y-12163D01*
X13785Y-12113D01*
X13655Y-12113D01*
X13535Y-12163D01*
X13443Y-12255D01*
X13393Y-12375D01*
X13393Y-12505D01*
X13442Y-12626D01*
X13534Y-12718D01*
X13655Y-12768D01*
X13785Y-12768D01*
X13905Y-12718D01*
X13997Y-12626D01*
X14047Y-12506D01*
X14047Y-12376D01*
X14047Y-14254D01*
X14024Y-14230D01*
X13903Y-14180D01*
X13773Y-14180D01*
X13653Y-14230D01*
X13561Y-14322D01*
X13532Y-14391D01*
X13512Y-14344D01*
X13431Y-14263D01*
X13325Y-14218D01*
X13210Y-14218D01*
X13104Y-14262D01*
X13022Y-14343D01*
X12978Y-14450D01*
X12978Y-14565D01*
X13022Y-14671D01*
X13103Y-14752D01*
X13209Y-14796D01*
X13324Y-14796D01*
X13431Y-14752D01*
X13512Y-14671D01*
X13532Y-14623D01*
X13561Y-14692D01*
X13653Y-14785D01*
X13773Y-14834D01*
X13903Y-14835D01*
X14023Y-14785D01*
X14115Y-14693D01*
X14165Y-14573D01*
X14165Y-14443D01*
X14165Y-19121D01*
X14029Y-19121D01*
X14029Y-16123D01*
X13985Y-16017D01*
X13904Y-15936D01*
X13797Y-15892D01*
X13682Y-15892D01*
X13576Y-15935D01*
X13495Y-16017D01*
X13451Y-16123D01*
X13451Y-16238D01*
X13495Y-16344D01*
X13576Y-16425D01*
X13682Y-16470D01*
X13797Y-16470D01*
X13903Y-16426D01*
X13984Y-16345D01*
X14029Y-16238D01*
X14029Y-16123D01*
X14029Y-19121D01*
X12768Y-19121D01*
X12768Y-10405D01*
X24264Y-10405D01*
X24203Y-10466D01*
X24159Y-10572D01*
X24159Y-10687D01*
X24203Y-10793D01*
X24284Y-10874D01*
X24391Y-10918D01*
X24506Y-10918D01*
X24612Y-10875D01*
X24693Y-10793D01*
X24737Y-10687D01*
X24737Y-10572D01*
X24693Y-10466D01*
X24633Y-10405D01*
X32113Y-10405D01*
X32113Y-19121D01*
X32113Y-19121D01*
G37*
G54D14*
X32113Y-19121D02*
X31450Y-19121D01*
X31450Y-16222D01*
X31450Y-13210D01*
X31411Y-13115D01*
X31411Y-11694D01*
X31367Y-11588D01*
X31285Y-11507D01*
X31179Y-11463D01*
X31064Y-11462D01*
X30958Y-11506D01*
X30877Y-11588D01*
X30833Y-11694D01*
X30833Y-11809D01*
X30876Y-11915D01*
X30958Y-11996D01*
X31064Y-12040D01*
X31179Y-12040D01*
X31285Y-11997D01*
X31366Y-11915D01*
X31410Y-11809D01*
X31411Y-11694D01*
X31411Y-13115D01*
X31406Y-13104D01*
X31325Y-13022D01*
X31219Y-12978D01*
X31104Y-12978D01*
X30997Y-13022D01*
X30916Y-13103D01*
X30872Y-13209D01*
X30872Y-13324D01*
X30916Y-13431D01*
X30997Y-13512D01*
X31103Y-13556D01*
X31218Y-13556D01*
X31324Y-13512D01*
X31406Y-13431D01*
X31450Y-13325D01*
X31450Y-13210D01*
X31450Y-16222D01*
X31406Y-16116D01*
X31325Y-16034D01*
X31219Y-15990D01*
X31104Y-15990D01*
X30997Y-16034D01*
X30916Y-16115D01*
X30872Y-16221D01*
X30872Y-16336D01*
X30916Y-16443D01*
X30997Y-16524D01*
X31103Y-16568D01*
X31218Y-16568D01*
X31324Y-16524D01*
X31406Y-16443D01*
X31450Y-16337D01*
X31450Y-16222D01*
X31450Y-19121D01*
X30348Y-19121D01*
X30348Y-15001D01*
X30304Y-14895D01*
X30222Y-14814D01*
X30116Y-14770D01*
X30001Y-14770D01*
X29895Y-14813D01*
X29895Y-14814D01*
X29895Y-14115D01*
X29851Y-14009D01*
X29770Y-13928D01*
X29664Y-13884D01*
X29549Y-13884D01*
X29521Y-13895D01*
X29521Y-12718D01*
X29477Y-12612D01*
X29396Y-12530D01*
X29290Y-12486D01*
X29175Y-12486D01*
X29068Y-12530D01*
X28987Y-12611D01*
X28943Y-12717D01*
X28943Y-12832D01*
X28987Y-12939D01*
X29068Y-13020D01*
X29174Y-13064D01*
X29289Y-13064D01*
X29395Y-13020D01*
X29477Y-12939D01*
X29521Y-12833D01*
X29521Y-12718D01*
X29521Y-13895D01*
X29442Y-13928D01*
X29361Y-14009D01*
X29317Y-14115D01*
X29317Y-14230D01*
X29361Y-14336D01*
X29442Y-14418D01*
X29548Y-14462D01*
X29663Y-14462D01*
X29769Y-14418D01*
X29851Y-14337D01*
X29895Y-14230D01*
X29895Y-14115D01*
X29895Y-14814D01*
X29881Y-14827D01*
X29848Y-14794D01*
X29742Y-14750D01*
X29627Y-14750D01*
X29521Y-14794D01*
X29440Y-14875D01*
X29396Y-14981D01*
X29396Y-15045D01*
X29371Y-15045D01*
X29265Y-15089D01*
X29184Y-15170D01*
X29140Y-15276D01*
X29140Y-15391D01*
X29184Y-15498D01*
X29265Y-15579D01*
X29371Y-15623D01*
X29486Y-15623D01*
X29592Y-15579D01*
X29655Y-15517D01*
X29632Y-15572D01*
X29632Y-15687D01*
X29676Y-15793D01*
X29757Y-15874D01*
X29863Y-15918D01*
X29978Y-15918D01*
X30084Y-15875D01*
X30166Y-15793D01*
X30210Y-15687D01*
X30210Y-15572D01*
X30166Y-15466D01*
X30085Y-15385D01*
X29978Y-15340D01*
X29864Y-15340D01*
X29757Y-15384D01*
X29695Y-15447D01*
X29718Y-15392D01*
X29718Y-15328D01*
X29742Y-15328D01*
X29848Y-15284D01*
X29862Y-15270D01*
X29895Y-15303D01*
X30001Y-15347D01*
X30116Y-15348D01*
X30222Y-15304D01*
X30303Y-15222D01*
X30347Y-15116D01*
X30348Y-15001D01*
X30348Y-19121D01*
X30170Y-19121D01*
X30170Y-16734D01*
X30127Y-16627D01*
X30045Y-16546D01*
X29939Y-16502D01*
X29824Y-16502D01*
X29753Y-16531D01*
X29777Y-16475D01*
X29777Y-16360D01*
X29733Y-16253D01*
X29652Y-16172D01*
X29545Y-16128D01*
X29521Y-16128D01*
X29521Y-16084D01*
X29477Y-15978D01*
X29396Y-15896D01*
X29290Y-15852D01*
X29175Y-15852D01*
X29068Y-15896D01*
X28987Y-15977D01*
X28943Y-16083D01*
X28943Y-16198D01*
X28966Y-16254D01*
X28889Y-16332D01*
X28844Y-16438D01*
X28844Y-16446D01*
X28837Y-16443D01*
X28722Y-16443D01*
X28616Y-16487D01*
X28534Y-16568D01*
X28490Y-16674D01*
X28490Y-16789D01*
X28534Y-16895D01*
X28615Y-16977D01*
X28721Y-17021D01*
X28836Y-17021D01*
X28943Y-16977D01*
X29024Y-16896D01*
X29068Y-16790D01*
X29068Y-16781D01*
X29076Y-16784D01*
X29191Y-16785D01*
X29297Y-16741D01*
X29361Y-16677D01*
X29430Y-16706D01*
X29545Y-16706D01*
X29616Y-16676D01*
X29592Y-16733D01*
X29592Y-16848D01*
X29636Y-16954D01*
X29717Y-17036D01*
X29824Y-17080D01*
X29939Y-17080D01*
X30045Y-17036D01*
X30126Y-16955D01*
X30170Y-16849D01*
X30170Y-16734D01*
X30170Y-19121D01*
X28340Y-19121D01*
X28340Y-17364D01*
X28296Y-17257D01*
X28215Y-17176D01*
X28108Y-17132D01*
X27993Y-17132D01*
X27887Y-17176D01*
X27848Y-17215D01*
X27848Y-16163D01*
X27848Y-14430D01*
X27804Y-14324D01*
X27722Y-14243D01*
X27616Y-14199D01*
X27572Y-14199D01*
X27572Y-11950D01*
X27528Y-11844D01*
X27447Y-11763D01*
X27341Y-11718D01*
X27226Y-11718D01*
X27119Y-11762D01*
X27038Y-11843D01*
X26994Y-11950D01*
X26994Y-12065D01*
X27038Y-12171D01*
X27119Y-12252D01*
X27225Y-12296D01*
X27340Y-12296D01*
X27446Y-12252D01*
X27528Y-12171D01*
X27572Y-12065D01*
X27572Y-11950D01*
X27572Y-14199D01*
X27501Y-14199D01*
X27395Y-14243D01*
X27314Y-14324D01*
X27270Y-14430D01*
X27270Y-14545D01*
X27313Y-14651D01*
X27395Y-14733D01*
X27501Y-14777D01*
X27616Y-14777D01*
X27722Y-14733D01*
X27803Y-14652D01*
X27847Y-14545D01*
X27848Y-14430D01*
X27848Y-16163D01*
X27804Y-16056D01*
X27722Y-15975D01*
X27616Y-15931D01*
X27572Y-15931D01*
X27572Y-15395D01*
X27528Y-15289D01*
X27447Y-15207D01*
X27341Y-15163D01*
X27226Y-15163D01*
X27218Y-15167D01*
X27218Y-12501D01*
X27174Y-12395D01*
X27093Y-12314D01*
X26986Y-12270D01*
X26871Y-12270D01*
X26765Y-12313D01*
X26684Y-12395D01*
X26672Y-12424D01*
X26632Y-12407D01*
X26517Y-12407D01*
X26411Y-12451D01*
X26377Y-12485D01*
X26352Y-12459D01*
X26352Y-10986D01*
X26308Y-10879D01*
X26226Y-10798D01*
X26120Y-10754D01*
X26005Y-10754D01*
X25899Y-10798D01*
X25818Y-10879D01*
X25774Y-10985D01*
X25773Y-11100D01*
X25817Y-11206D01*
X25899Y-11288D01*
X26005Y-11332D01*
X26120Y-11332D01*
X26226Y-11288D01*
X26307Y-11207D01*
X26351Y-11101D01*
X26352Y-10986D01*
X26352Y-12459D01*
X26325Y-12432D01*
X26219Y-12388D01*
X26104Y-12388D01*
X25997Y-12432D01*
X25916Y-12513D01*
X25872Y-12619D01*
X25872Y-12734D01*
X25916Y-12840D01*
X25997Y-12922D01*
X26103Y-12966D01*
X26218Y-12966D01*
X26324Y-12922D01*
X26358Y-12888D01*
X26410Y-12941D01*
X26517Y-12985D01*
X26632Y-12985D01*
X26738Y-12941D01*
X26819Y-12860D01*
X26831Y-12831D01*
X26871Y-12847D01*
X26986Y-12848D01*
X27092Y-12804D01*
X27173Y-12722D01*
X27218Y-12616D01*
X27218Y-12501D01*
X27218Y-15167D01*
X27119Y-15207D01*
X27119Y-15207D01*
X27119Y-14037D01*
X27075Y-13931D01*
X26994Y-13849D01*
X26888Y-13805D01*
X26773Y-13805D01*
X26667Y-13849D01*
X26635Y-13881D01*
X26623Y-13852D01*
X26541Y-13770D01*
X26435Y-13726D01*
X26320Y-13726D01*
X26280Y-13743D01*
X26268Y-13714D01*
X26187Y-13633D01*
X26081Y-13589D01*
X25966Y-13588D01*
X25860Y-13632D01*
X25778Y-13714D01*
X25734Y-13820D01*
X25734Y-13935D01*
X25778Y-14041D01*
X25859Y-14122D01*
X25965Y-14166D01*
X26080Y-14166D01*
X26120Y-14150D01*
X26132Y-14179D01*
X26214Y-14260D01*
X26320Y-14304D01*
X26435Y-14304D01*
X26541Y-14260D01*
X26573Y-14228D01*
X26585Y-14257D01*
X26666Y-14339D01*
X26772Y-14383D01*
X26887Y-14383D01*
X26994Y-14339D01*
X27075Y-14258D01*
X27119Y-14152D01*
X27119Y-14037D01*
X27119Y-15207D01*
X27038Y-15288D01*
X26994Y-15395D01*
X26994Y-15509D01*
X27038Y-15616D01*
X27119Y-15697D01*
X27225Y-15741D01*
X27340Y-15741D01*
X27446Y-15697D01*
X27528Y-15616D01*
X27572Y-15510D01*
X27572Y-15395D01*
X27572Y-15931D01*
X27501Y-15931D01*
X27395Y-15975D01*
X27395Y-15975D01*
X27395Y-15966D01*
X27351Y-15860D01*
X27270Y-15778D01*
X27164Y-15734D01*
X27049Y-15734D01*
X27021Y-15746D01*
X27021Y-15631D01*
X26977Y-15525D01*
X26896Y-15444D01*
X26790Y-15400D01*
X26675Y-15399D01*
X26568Y-15443D01*
X26487Y-15525D01*
X26443Y-15631D01*
X26443Y-15746D01*
X26487Y-15852D01*
X26568Y-15933D01*
X26674Y-15977D01*
X26789Y-15978D01*
X26817Y-15966D01*
X26817Y-16010D01*
X26753Y-16010D01*
X26647Y-16054D01*
X26566Y-16135D01*
X26522Y-16241D01*
X26521Y-16356D01*
X26565Y-16462D01*
X26647Y-16544D01*
X26738Y-16582D01*
X26738Y-16671D01*
X26782Y-16777D01*
X26863Y-16859D01*
X26969Y-16903D01*
X27084Y-16903D01*
X27191Y-16859D01*
X27272Y-16778D01*
X27316Y-16671D01*
X27316Y-16556D01*
X27272Y-16450D01*
X27191Y-16369D01*
X27099Y-16331D01*
X27099Y-16312D01*
X27163Y-16312D01*
X27269Y-16268D01*
X27270Y-16268D01*
X27270Y-16277D01*
X27313Y-16383D01*
X27395Y-16465D01*
X27501Y-16509D01*
X27616Y-16509D01*
X27722Y-16465D01*
X27803Y-16384D01*
X27847Y-16278D01*
X27848Y-16163D01*
X27848Y-17215D01*
X27806Y-17257D01*
X27792Y-17290D01*
X27695Y-17250D01*
X27580Y-17250D01*
X27474Y-17294D01*
X27392Y-17375D01*
X27348Y-17481D01*
X27348Y-17596D01*
X27392Y-17702D01*
X27473Y-17784D01*
X27580Y-17828D01*
X27596Y-17828D01*
X27585Y-17855D01*
X27584Y-17970D01*
X27628Y-18076D01*
X27710Y-18158D01*
X27816Y-18202D01*
X27931Y-18202D01*
X28037Y-18158D01*
X28118Y-18077D01*
X28162Y-17971D01*
X28163Y-17856D01*
X28119Y-17749D01*
X28079Y-17710D01*
X28108Y-17710D01*
X28214Y-17666D01*
X28296Y-17585D01*
X28340Y-17478D01*
X28340Y-17364D01*
X28340Y-19121D01*
X26956Y-19121D01*
X26977Y-19100D01*
X27021Y-18994D01*
X27021Y-18879D01*
X26977Y-18773D01*
X26896Y-18692D01*
X26790Y-18648D01*
X26675Y-18647D01*
X26568Y-18691D01*
X26487Y-18773D01*
X26443Y-18879D01*
X26443Y-18994D01*
X26487Y-19100D01*
X26508Y-19121D01*
X26332Y-19121D01*
X26332Y-18584D01*
X26288Y-18478D01*
X26273Y-18463D01*
X26273Y-15297D01*
X26229Y-15190D01*
X26148Y-15109D01*
X26041Y-15065D01*
X25927Y-15065D01*
X25856Y-15094D01*
X25855Y-15092D01*
X25774Y-15011D01*
X25667Y-14966D01*
X25553Y-14966D01*
X25540Y-14971D01*
X25501Y-14875D01*
X25419Y-14794D01*
X25367Y-14772D01*
X25367Y-11281D01*
X25323Y-11175D01*
X25242Y-11093D01*
X25136Y-11049D01*
X25021Y-11049D01*
X24915Y-11093D01*
X24833Y-11174D01*
X24789Y-11280D01*
X24789Y-11395D01*
X24833Y-11502D01*
X24914Y-11583D01*
X25021Y-11627D01*
X25135Y-11627D01*
X25242Y-11583D01*
X25323Y-11502D01*
X25367Y-11396D01*
X25367Y-11281D01*
X25367Y-14772D01*
X25313Y-14750D01*
X25198Y-14750D01*
X25092Y-14794D01*
X25011Y-14875D01*
X24966Y-14981D01*
X24966Y-15096D01*
X25010Y-15202D01*
X25091Y-15284D01*
X25198Y-15328D01*
X25313Y-15328D01*
X25325Y-15323D01*
X25365Y-15419D01*
X25446Y-15500D01*
X25552Y-15544D01*
X25667Y-15544D01*
X25738Y-15515D01*
X25739Y-15517D01*
X25820Y-15599D01*
X25926Y-15643D01*
X26041Y-15643D01*
X26147Y-15599D01*
X26229Y-15518D01*
X26273Y-15412D01*
X26273Y-15297D01*
X26273Y-18463D01*
X26207Y-18396D01*
X26101Y-18352D01*
X25986Y-18352D01*
X25879Y-18396D01*
X25798Y-18477D01*
X25754Y-18583D01*
X25754Y-18698D01*
X25798Y-18805D01*
X25879Y-18886D01*
X25985Y-18930D01*
X26100Y-18930D01*
X26206Y-18886D01*
X26288Y-18805D01*
X26332Y-18699D01*
X26332Y-18584D01*
X26332Y-19121D01*
X25407Y-19121D01*
X25407Y-18584D01*
X25363Y-18478D01*
X25282Y-18396D01*
X25175Y-18352D01*
X25069Y-18352D01*
X25069Y-15842D01*
X25025Y-15736D01*
X24943Y-15655D01*
X24895Y-15634D01*
X24895Y-15060D01*
X24851Y-14954D01*
X24798Y-14901D01*
X24851Y-14848D01*
X24895Y-14742D01*
X24895Y-14627D01*
X24851Y-14521D01*
X24770Y-14440D01*
X24664Y-14396D01*
X24549Y-14396D01*
X24442Y-14439D01*
X24361Y-14521D01*
X24317Y-14627D01*
X24317Y-14742D01*
X24361Y-14848D01*
X24414Y-14901D01*
X24361Y-14954D01*
X24317Y-15060D01*
X24317Y-15175D01*
X24361Y-15281D01*
X24442Y-15362D01*
X24548Y-15407D01*
X24663Y-15407D01*
X24769Y-15363D01*
X24851Y-15282D01*
X24895Y-15175D01*
X24895Y-15060D01*
X24895Y-15634D01*
X24837Y-15611D01*
X24722Y-15610D01*
X24616Y-15654D01*
X24535Y-15736D01*
X24501Y-15816D01*
X24447Y-15793D01*
X24403Y-15793D01*
X24403Y-15415D01*
X24359Y-15308D01*
X24304Y-15254D01*
X24304Y-14706D01*
X24260Y-14600D01*
X24179Y-14518D01*
X24147Y-14505D01*
X24147Y-13682D01*
X24103Y-13576D01*
X24022Y-13495D01*
X23916Y-13451D01*
X23801Y-13451D01*
X23694Y-13495D01*
X23613Y-13576D01*
X23569Y-13682D01*
X23569Y-13797D01*
X23613Y-13903D01*
X23694Y-13984D01*
X23800Y-14029D01*
X23915Y-14029D01*
X24021Y-13985D01*
X24103Y-13904D01*
X24147Y-13797D01*
X24147Y-13682D01*
X24147Y-14505D01*
X24073Y-14474D01*
X23958Y-14474D01*
X23852Y-14518D01*
X23770Y-14599D01*
X23726Y-14706D01*
X23726Y-14821D01*
X23770Y-14927D01*
X23851Y-15008D01*
X23958Y-15052D01*
X24072Y-15052D01*
X24179Y-15008D01*
X24260Y-14927D01*
X24304Y-14821D01*
X24304Y-14706D01*
X24304Y-15254D01*
X24278Y-15227D01*
X24171Y-15183D01*
X24056Y-15183D01*
X23950Y-15227D01*
X23869Y-15308D01*
X23825Y-15414D01*
X23825Y-15529D01*
X23869Y-15635D01*
X23950Y-15717D01*
X24056Y-15761D01*
X24171Y-15761D01*
X24277Y-15717D01*
X24359Y-15636D01*
X24403Y-15530D01*
X24403Y-15415D01*
X24403Y-15793D01*
X24332Y-15793D01*
X24226Y-15837D01*
X24144Y-15918D01*
X24132Y-15947D01*
X24093Y-15931D01*
X23978Y-15931D01*
X23871Y-15975D01*
X23790Y-16056D01*
X23746Y-16162D01*
X23746Y-16277D01*
X23790Y-16383D01*
X23871Y-16465D01*
X23977Y-16509D01*
X24092Y-16509D01*
X24198Y-16465D01*
X24280Y-16384D01*
X24292Y-16355D01*
X24332Y-16371D01*
X24446Y-16371D01*
X24553Y-16327D01*
X24634Y-16246D01*
X24667Y-16166D01*
X24722Y-16188D01*
X24837Y-16189D01*
X24943Y-16145D01*
X25024Y-16063D01*
X25068Y-15957D01*
X25069Y-15842D01*
X25069Y-18352D01*
X25060Y-18352D01*
X24954Y-18396D01*
X24873Y-18477D01*
X24829Y-18583D01*
X24829Y-18698D01*
X24872Y-18805D01*
X24954Y-18886D01*
X25060Y-18930D01*
X25175Y-18930D01*
X25281Y-18886D01*
X25362Y-18805D01*
X25407Y-18699D01*
X25407Y-18584D01*
X25407Y-19121D01*
X24777Y-19121D01*
X24777Y-16753D01*
X24733Y-16647D01*
X24652Y-16566D01*
X24545Y-16522D01*
X24430Y-16521D01*
X24324Y-16565D01*
X24243Y-16647D01*
X24199Y-16753D01*
X24199Y-16868D01*
X24243Y-16974D01*
X24324Y-17055D01*
X24430Y-17099D01*
X24545Y-17100D01*
X24651Y-17056D01*
X24733Y-16974D01*
X24777Y-16868D01*
X24777Y-16753D01*
X24777Y-19121D01*
X24285Y-19121D01*
X24285Y-18033D01*
X24241Y-17927D01*
X24159Y-17845D01*
X24053Y-17801D01*
X23938Y-17801D01*
X23832Y-17845D01*
X23751Y-17926D01*
X23707Y-18032D01*
X23707Y-18147D01*
X23750Y-18254D01*
X23832Y-18335D01*
X23938Y-18379D01*
X24053Y-18379D01*
X24159Y-18335D01*
X24240Y-18254D01*
X24284Y-18148D01*
X24285Y-18033D01*
X24285Y-19121D01*
X23773Y-19121D01*
X23773Y-18505D01*
X23729Y-18399D01*
X23648Y-18318D01*
X23541Y-18274D01*
X23537Y-18274D01*
X23537Y-17482D01*
X23493Y-17375D01*
X23411Y-17294D01*
X23305Y-17250D01*
X23190Y-17250D01*
X23084Y-17294D01*
X23003Y-17375D01*
X22959Y-17481D01*
X22959Y-17596D01*
X23002Y-17702D01*
X23084Y-17784D01*
X23190Y-17828D01*
X23305Y-17828D01*
X23411Y-17784D01*
X23492Y-17703D01*
X23536Y-17597D01*
X23537Y-17482D01*
X23537Y-18274D01*
X23427Y-18273D01*
X23320Y-18317D01*
X23239Y-18399D01*
X23195Y-18505D01*
X23195Y-18620D01*
X23239Y-18726D01*
X23320Y-18807D01*
X23426Y-18851D01*
X23541Y-18852D01*
X23647Y-18808D01*
X23729Y-18726D01*
X23773Y-18620D01*
X23773Y-18505D01*
X23773Y-19121D01*
X22926Y-19121D01*
X22926Y-12285D01*
X22882Y-12179D01*
X22801Y-12097D01*
X22695Y-12053D01*
X22580Y-12053D01*
X22474Y-12097D01*
X22392Y-12178D01*
X22375Y-12220D01*
X22375Y-12167D01*
X22331Y-12060D01*
X22295Y-12025D01*
X22344Y-11976D01*
X22394Y-11856D01*
X22394Y-11726D01*
X22344Y-11606D01*
X22252Y-11514D01*
X22132Y-11464D01*
X22002Y-11464D01*
X21881Y-11513D01*
X21789Y-11605D01*
X21739Y-11725D01*
X21739Y-11856D01*
X21789Y-11976D01*
X21857Y-12044D01*
X21841Y-12060D01*
X21797Y-12166D01*
X21797Y-12281D01*
X21841Y-12387D01*
X21922Y-12469D01*
X22028Y-12513D01*
X22143Y-12513D01*
X22250Y-12469D01*
X22331Y-12388D01*
X22348Y-12346D01*
X22348Y-12399D01*
X22392Y-12505D01*
X22473Y-12587D01*
X22580Y-12631D01*
X22695Y-12631D01*
X22801Y-12587D01*
X22882Y-12506D01*
X22926Y-12400D01*
X22926Y-12285D01*
X22926Y-19121D01*
X22769Y-19121D01*
X22769Y-17482D01*
X22725Y-17375D01*
X22644Y-17294D01*
X22538Y-17250D01*
X22423Y-17250D01*
X22316Y-17294D01*
X22235Y-17375D01*
X22191Y-17481D01*
X22191Y-17596D01*
X22235Y-17702D01*
X22316Y-17784D01*
X22422Y-17828D01*
X22537Y-17828D01*
X22643Y-17784D01*
X22725Y-17703D01*
X22769Y-17597D01*
X22769Y-17482D01*
X22769Y-19121D01*
X22139Y-19121D01*
X22139Y-17875D01*
X22095Y-17769D01*
X22014Y-17688D01*
X21942Y-17658D01*
X21942Y-16714D01*
X21898Y-16608D01*
X21817Y-16526D01*
X21711Y-16482D01*
X21647Y-16482D01*
X21647Y-15474D01*
X21603Y-15368D01*
X21548Y-15313D01*
X21548Y-13092D01*
X21504Y-12986D01*
X21423Y-12904D01*
X21317Y-12860D01*
X21202Y-12860D01*
X21096Y-12904D01*
X21033Y-12967D01*
X20990Y-12924D01*
X20884Y-12880D01*
X20769Y-12880D01*
X20663Y-12924D01*
X20581Y-13005D01*
X20546Y-13090D01*
X20498Y-13042D01*
X20392Y-12998D01*
X20367Y-12998D01*
X20367Y-12285D01*
X20323Y-12179D01*
X20242Y-12097D01*
X20136Y-12053D01*
X20021Y-12053D01*
X19915Y-12097D01*
X19833Y-12178D01*
X19789Y-12284D01*
X19789Y-12399D01*
X19833Y-12505D01*
X19914Y-12587D01*
X20021Y-12631D01*
X20135Y-12631D01*
X20242Y-12587D01*
X20323Y-12506D01*
X20367Y-12400D01*
X20367Y-12285D01*
X20367Y-12998D01*
X20277Y-12998D01*
X20171Y-13042D01*
X20089Y-13123D01*
X20045Y-13229D01*
X20045Y-13344D01*
X20049Y-13353D01*
X19994Y-13376D01*
X19912Y-13458D01*
X19868Y-13564D01*
X19868Y-13679D01*
X19912Y-13785D01*
X19993Y-13866D01*
X20099Y-13910D01*
X20214Y-13911D01*
X20320Y-13867D01*
X20402Y-13785D01*
X20446Y-13679D01*
X20446Y-13564D01*
X20442Y-13555D01*
X20498Y-13532D01*
X20579Y-13451D01*
X20614Y-13366D01*
X20662Y-13414D01*
X20769Y-13458D01*
X20884Y-13458D01*
X20990Y-13414D01*
X21053Y-13351D01*
X21095Y-13394D01*
X21202Y-13438D01*
X21317Y-13438D01*
X21423Y-13394D01*
X21504Y-13313D01*
X21548Y-13207D01*
X21548Y-13092D01*
X21548Y-15313D01*
X21522Y-15286D01*
X21509Y-15281D01*
X21509Y-14722D01*
X21465Y-14616D01*
X21383Y-14535D01*
X21343Y-14518D01*
X21386Y-14474D01*
X21430Y-14368D01*
X21430Y-14253D01*
X21386Y-14147D01*
X21305Y-14066D01*
X21199Y-14022D01*
X21084Y-14021D01*
X20978Y-14065D01*
X20896Y-14147D01*
X20852Y-14253D01*
X20852Y-14368D01*
X20896Y-14474D01*
X20977Y-14555D01*
X21018Y-14572D01*
X20975Y-14616D01*
X20931Y-14722D01*
X20930Y-14837D01*
X20974Y-14943D01*
X21056Y-15024D01*
X21162Y-15068D01*
X21277Y-15069D01*
X21383Y-15025D01*
X21464Y-14943D01*
X21508Y-14837D01*
X21509Y-14722D01*
X21509Y-15281D01*
X21416Y-15242D01*
X21301Y-15242D01*
X21194Y-15286D01*
X21113Y-15367D01*
X21069Y-15473D01*
X21069Y-15588D01*
X21113Y-15694D01*
X21194Y-15776D01*
X21300Y-15820D01*
X21415Y-15820D01*
X21521Y-15776D01*
X21603Y-15695D01*
X21647Y-15589D01*
X21647Y-15474D01*
X21647Y-16482D01*
X21596Y-16482D01*
X21490Y-16526D01*
X21408Y-16607D01*
X21364Y-16713D01*
X21364Y-16758D01*
X21340Y-16758D01*
X21234Y-16802D01*
X21214Y-16822D01*
X21214Y-16222D01*
X21170Y-16116D01*
X21089Y-16034D01*
X20982Y-15990D01*
X20867Y-15990D01*
X20800Y-16018D01*
X20800Y-15671D01*
X20756Y-15564D01*
X20675Y-15483D01*
X20569Y-15439D01*
X20454Y-15439D01*
X20348Y-15483D01*
X20266Y-15564D01*
X20222Y-15670D01*
X20222Y-15785D01*
X20266Y-15891D01*
X20347Y-15973D01*
X20454Y-16017D01*
X20569Y-16017D01*
X20675Y-15973D01*
X20756Y-15892D01*
X20800Y-15786D01*
X20800Y-15671D01*
X20800Y-16018D01*
X20761Y-16034D01*
X20680Y-16115D01*
X20636Y-16221D01*
X20636Y-16336D01*
X20680Y-16443D01*
X20761Y-16524D01*
X20867Y-16568D01*
X20982Y-16568D01*
X21088Y-16524D01*
X21170Y-16443D01*
X21214Y-16337D01*
X21214Y-16222D01*
X21214Y-16822D01*
X21152Y-16883D01*
X21108Y-16989D01*
X21108Y-17104D01*
X21152Y-17210D01*
X21233Y-17292D01*
X21250Y-17298D01*
X21207Y-17402D01*
X21207Y-17517D01*
X21250Y-17624D01*
X21332Y-17705D01*
X21438Y-17749D01*
X21553Y-17749D01*
X21659Y-17705D01*
X21740Y-17624D01*
X21784Y-17518D01*
X21785Y-17403D01*
X21741Y-17297D01*
X21659Y-17215D01*
X21643Y-17208D01*
X21686Y-17104D01*
X21686Y-17060D01*
X21710Y-17060D01*
X21817Y-17016D01*
X21898Y-16935D01*
X21942Y-16829D01*
X21942Y-16714D01*
X21942Y-17658D01*
X21908Y-17644D01*
X21793Y-17644D01*
X21686Y-17687D01*
X21605Y-17769D01*
X21561Y-17875D01*
X21561Y-17990D01*
X21605Y-18096D01*
X21686Y-18177D01*
X21792Y-18221D01*
X21907Y-18222D01*
X22013Y-18178D01*
X22095Y-18096D01*
X22139Y-17990D01*
X22139Y-17875D01*
X22139Y-19121D01*
X21897Y-19121D01*
X21918Y-19100D01*
X21962Y-18994D01*
X21962Y-18879D01*
X21918Y-18773D01*
X21837Y-18692D01*
X21730Y-18648D01*
X21615Y-18647D01*
X21509Y-18691D01*
X21428Y-18773D01*
X21384Y-18879D01*
X21384Y-18994D01*
X21428Y-19100D01*
X21449Y-19121D01*
X20190Y-19121D01*
X20190Y-15553D01*
X20146Y-15446D01*
X20065Y-15365D01*
X19959Y-15321D01*
X19844Y-15321D01*
X19738Y-15365D01*
X19656Y-15446D01*
X19612Y-15552D01*
X19612Y-15667D01*
X19656Y-15773D01*
X19737Y-15855D01*
X19843Y-15899D01*
X19958Y-15899D01*
X20065Y-15855D01*
X20146Y-15774D01*
X20190Y-15667D01*
X20190Y-15553D01*
X20190Y-19121D01*
X19383Y-19121D01*
X19383Y-16222D01*
X19339Y-16116D01*
X19258Y-16034D01*
X19206Y-16013D01*
X19206Y-13092D01*
X19162Y-12986D01*
X19081Y-12904D01*
X18975Y-12860D01*
X18860Y-12860D01*
X18753Y-12904D01*
X18672Y-12985D01*
X18628Y-13091D01*
X18628Y-13206D01*
X18672Y-13313D01*
X18753Y-13394D01*
X18859Y-13438D01*
X18974Y-13438D01*
X19080Y-13394D01*
X19162Y-13313D01*
X19206Y-13207D01*
X19206Y-13092D01*
X19206Y-16013D01*
X19152Y-15990D01*
X19037Y-15990D01*
X18931Y-16034D01*
X18849Y-16115D01*
X18805Y-16221D01*
X18805Y-16336D01*
X18849Y-16443D01*
X18930Y-16524D01*
X19036Y-16568D01*
X19151Y-16568D01*
X19257Y-16524D01*
X19339Y-16443D01*
X19383Y-16337D01*
X19383Y-16222D01*
X19383Y-19121D01*
X19265Y-19121D01*
X19265Y-17580D01*
X19221Y-17474D01*
X19140Y-17392D01*
X19034Y-17348D01*
X18919Y-17348D01*
X18812Y-17392D01*
X18792Y-17412D01*
X18792Y-15198D01*
X18749Y-15092D01*
X18667Y-15011D01*
X18561Y-14966D01*
X18446Y-14966D01*
X18340Y-15010D01*
X18259Y-15091D01*
X18215Y-15198D01*
X18214Y-15262D01*
X18131Y-15262D01*
X18025Y-15306D01*
X17944Y-15387D01*
X17900Y-15493D01*
X17899Y-15608D01*
X17940Y-15706D01*
X17865Y-15780D01*
X17848Y-15822D01*
X17848Y-12068D01*
X17804Y-11962D01*
X17722Y-11881D01*
X17616Y-11837D01*
X17501Y-11836D01*
X17395Y-11880D01*
X17314Y-11962D01*
X17270Y-12068D01*
X17270Y-12183D01*
X17313Y-12289D01*
X17395Y-12370D01*
X17501Y-12414D01*
X17616Y-12415D01*
X17722Y-12371D01*
X17803Y-12289D01*
X17847Y-12183D01*
X17848Y-12068D01*
X17848Y-15822D01*
X17821Y-15887D01*
X17821Y-16002D01*
X17865Y-16108D01*
X17946Y-16189D01*
X18052Y-16233D01*
X18167Y-16233D01*
X18273Y-16190D01*
X18355Y-16108D01*
X18399Y-16002D01*
X18399Y-15887D01*
X18358Y-15789D01*
X18433Y-15715D01*
X18477Y-15608D01*
X18477Y-15544D01*
X18561Y-15544D01*
X18667Y-15501D01*
X18748Y-15419D01*
X18792Y-15313D01*
X18792Y-15198D01*
X18792Y-17412D01*
X18753Y-17451D01*
X18753Y-16852D01*
X18709Y-16745D01*
X18628Y-16664D01*
X18595Y-16650D01*
X18635Y-16553D01*
X18635Y-16438D01*
X18591Y-16332D01*
X18510Y-16251D01*
X18404Y-16207D01*
X18289Y-16207D01*
X18182Y-16250D01*
X18101Y-16332D01*
X18057Y-16438D01*
X18057Y-16553D01*
X18101Y-16659D01*
X18182Y-16740D01*
X18215Y-16754D01*
X18175Y-16851D01*
X18175Y-16966D01*
X18219Y-17072D01*
X18300Y-17154D01*
X18406Y-17198D01*
X18521Y-17198D01*
X18628Y-17154D01*
X18709Y-17073D01*
X18753Y-16967D01*
X18753Y-16852D01*
X18753Y-17451D01*
X18731Y-17473D01*
X18687Y-17580D01*
X18687Y-17695D01*
X18731Y-17801D01*
X18812Y-17882D01*
X18918Y-17926D01*
X19033Y-17926D01*
X19139Y-17882D01*
X19221Y-17801D01*
X19265Y-17695D01*
X19265Y-17580D01*
X19265Y-19121D01*
X16974Y-19121D01*
X16974Y-15501D01*
X16930Y-15395D01*
X16848Y-15314D01*
X16742Y-15270D01*
X16627Y-15270D01*
X16521Y-15313D01*
X16440Y-15395D01*
X16436Y-15405D01*
X16376Y-15380D01*
X16261Y-15380D01*
X16155Y-15424D01*
X16074Y-15505D01*
X16029Y-15611D01*
X16029Y-15726D01*
X16073Y-15832D01*
X16154Y-15914D01*
X16261Y-15958D01*
X16376Y-15958D01*
X16482Y-15914D01*
X16563Y-15833D01*
X16567Y-15823D01*
X16627Y-15847D01*
X16742Y-15848D01*
X16848Y-15804D01*
X16929Y-15722D01*
X16973Y-15616D01*
X16974Y-15501D01*
X16974Y-19121D01*
X16430Y-19121D01*
X16430Y-17049D01*
X16386Y-16942D01*
X16305Y-16861D01*
X16199Y-16817D01*
X16084Y-16817D01*
X15978Y-16861D01*
X15896Y-16942D01*
X15852Y-17048D01*
X15852Y-17163D01*
X15896Y-17269D01*
X15977Y-17351D01*
X16083Y-17395D01*
X16198Y-17395D01*
X16305Y-17351D01*
X16386Y-17270D01*
X16430Y-17164D01*
X16430Y-17049D01*
X16430Y-19121D01*
X15663Y-19121D01*
X15663Y-16399D01*
X15619Y-16293D01*
X15537Y-16211D01*
X15431Y-16167D01*
X15316Y-16167D01*
X15210Y-16211D01*
X15129Y-16292D01*
X15085Y-16398D01*
X15084Y-16513D01*
X15128Y-16620D01*
X15210Y-16701D01*
X15316Y-16745D01*
X15431Y-16745D01*
X15537Y-16701D01*
X15618Y-16620D01*
X15662Y-16514D01*
X15663Y-16399D01*
X15663Y-19121D01*
X14934Y-19121D01*
X14934Y-11556D01*
X14890Y-11450D01*
X14809Y-11369D01*
X14703Y-11325D01*
X14588Y-11325D01*
X14482Y-11369D01*
X14400Y-11450D01*
X14356Y-11556D01*
X14356Y-11671D01*
X14400Y-11777D01*
X14481Y-11859D01*
X14587Y-11903D01*
X14702Y-11903D01*
X14809Y-11859D01*
X14890Y-11778D01*
X14934Y-11671D01*
X14934Y-11556D01*
X14934Y-19121D01*
X14165Y-19121D01*
X14165Y-14443D01*
X14116Y-14322D01*
X14047Y-14254D01*
X14047Y-12376D01*
X13997Y-12255D01*
X13906Y-12163D01*
X13785Y-12113D01*
X13655Y-12113D01*
X13535Y-12163D01*
X13443Y-12255D01*
X13393Y-12375D01*
X13393Y-12505D01*
X13442Y-12626D01*
X13534Y-12718D01*
X13655Y-12768D01*
X13785Y-12768D01*
X13905Y-12718D01*
X13997Y-12626D01*
X14047Y-12506D01*
X14047Y-12376D01*
X14047Y-14254D01*
X14024Y-14230D01*
X13903Y-14180D01*
X13773Y-14180D01*
X13653Y-14230D01*
X13561Y-14322D01*
X13532Y-14391D01*
X13512Y-14344D01*
X13431Y-14263D01*
X13325Y-14218D01*
X13210Y-14218D01*
X13104Y-14262D01*
X13022Y-14343D01*
X12978Y-14450D01*
X12978Y-14565D01*
X13022Y-14671D01*
X13103Y-14752D01*
X13209Y-14796D01*
X13324Y-14796D01*
X13431Y-14752D01*
X13512Y-14671D01*
X13532Y-14623D01*
X13561Y-14692D01*
X13653Y-14785D01*
X13773Y-14834D01*
X13903Y-14835D01*
X14023Y-14785D01*
X14115Y-14693D01*
X14165Y-14573D01*
X14165Y-14443D01*
X14165Y-19121D01*
X14029Y-19121D01*
X14029Y-16123D01*
X13985Y-16017D01*
X13904Y-15936D01*
X13797Y-15892D01*
X13682Y-15892D01*
X13576Y-15935D01*
X13495Y-16017D01*
X13451Y-16123D01*
X13451Y-16238D01*
X13495Y-16344D01*
X13576Y-16425D01*
X13682Y-16470D01*
X13797Y-16470D01*
X13903Y-16426D01*
X13984Y-16345D01*
X14029Y-16238D01*
X14029Y-16123D01*
X14029Y-19121D01*
X12768Y-19121D01*
X12768Y-10405D01*
X24264Y-10405D01*
X24203Y-10466D01*
X24159Y-10572D01*
X24159Y-10687D01*
X24203Y-10793D01*
X24284Y-10874D01*
X24391Y-10918D01*
X24506Y-10918D01*
X24612Y-10875D01*
X24693Y-10793D01*
X24737Y-10687D01*
X24737Y-10572D01*
X24693Y-10466D01*
X24633Y-10405D01*
X32113Y-10405D01*
X32113Y-19121D01*
M02*
